<?xml version="1.0" encoding="utf-8"?>
<!-- Generator: Adobe Illustrator 24.0.3, SVG Export Plug-In . SVG Version: 6.00 Build 0)  -->
<svg version="1.1" id="Layer_1" xmlns="http://www.w3.org/2000/svg" xmlns:xlink="http://www.w3.org/1999/xlink" x="0px" y="0px"
	 viewBox="0 0 500 500" style="enable-background:new 0 0 500 500;" xml:space="preserve">
<style type="text/css">
	.st0{fill:#FFFFFF;}
	.st1{display:none;}
	.st2{display:inline;}
	.st3{fill:#056839;}
	.st4{fill:#BF1E2D;}
	.st5{fill:#28A6D8;}
	.st6{fill:#020049;}
	.st7{fill:#F6F5F0;}
	.st8{fill:#174E98;}
	.st9{fill:#1DB7E4;}
	.st10{fill:#FF841F;}
	.st11{fill:#FFB401;}
	.st12{fill:#7D0200;}
	.st13{fill:#FFFFFC;}
	.st14{fill:#193B5E;}
	.st15{fill:#FFFFFE;}
	.st16{fill:#FAF7DC;}
	.st17{fill:#18284A;}
	.st18{fill:#29282B;}
	.st19{fill:#EEE4C9;}
	.st20{fill:#EFEAD2;}
	.st21{fill:#9D8978;}
	.st22{fill:#958D89;}
	.st23{fill:#53554A;}
	.st24{fill:#FFFEFF;}
	.st25{fill:#162443;}
	.st26{fill:#F6F4F1;}
	.st27{fill:#F2E7D3;}
	.st28{fill:#575644;}
	.st29{fill:#9D8677;}
	.st30{fill:#525157;}
	.st31{fill:#F3E8CD;}
</style>
<g id="Air">
	<g>
		<path class="st0" d="M289.6,62.8c-9.2-6-18.8-11.3-28.7-15.9c-2.5-1.2-5-2.2-7.5-3.3c-2.5-1-5.1-2.1-7.6-3
			c-5.1-2-10.2-3.8-15.4-5.5c-20.7-6.6-42.2-10.6-63.7-11.2c-10.7-0.3-21.3,0.1-31.8,1.6c-10.4,1.5-20.6,3.9-30.3,7.3
			c-9.7,3.4-18.9,7.9-27.2,13.4c-8.2,5.5-15.5,12-21.6,19.6c-6,7.5-10.9,15.9-14.5,24.8l-1.3,3.3L39,97.2c-0.3,1.2-0.8,2.3-1.1,3.4
			l-0.8,3.5c-0.6,2.3-1,4.7-1.5,7c-0.5,2.3-0.7,4.8-1,7.1c-1,9.6-0.8,19.3,0.8,28.8c1.4,9.5,4.3,18.8,8.3,27.5
			c8.1,17.4,21.3,32,37.9,41.4l3.1,1.8l3.2,1.5l3.2,1.5c1.1,0.5,2.2,0.9,3.4,1.3c4.5,1.9,9,3.1,13.6,4.1c4.6,0.9,9.2,1.5,13.9,1.8
			c4.6,0.1,9.3-0.1,13.8-0.7c18.2-2.6,35-12.7,45.1-28c10.4-15.3,14.9-35.5,12.9-54.5c-1.1-9.5-3.7-18.8-8.1-27.1
			c-4.4-8.2-10.4-15.4-18-20.8c-14.2-10.6-35.4-12.3-52.1-5.2c-4.2,1.7-8.1,4.1-11.6,6.9c-1.8,1.3-3.4,3-5,4.6l-2.2,2.6
			c-0.8,0.8-1.4,1.8-2.1,2.7c-2.6,3.7-5,7.8-6.6,12.2c-1.6,4.4-2.8,8.9-3.5,13.6c-0.5,4.7-0.6,9.4,0,14.1l0.5,3.5
			c0.2,1.1,0.5,2.3,0.8,3.4c0.2,1.1,0.7,2.2,1.1,3.3l0.6,1.6c0.2,0.6,0.4,1,0.6,1.5c3.6,7.7,10,14.1,17.5,17.8
			c7.5,3.9,15.6,5.4,22.9,4c1.8-0.4,3.6-0.9,5.4-1.6c1.8-0.7,3.5-1.5,5.1-2.6c3-1.9,6.1-4.9,8.6-8.2c1.2-1.7,2.3-3.4,3.1-5.1
			c0.5-0.9,0.7-1.7,1.1-2.5c0.2-0.8,0.5-1.6,0.6-2.3c0.2-0.8,0.1-1.4,0.2-2.1c0-0.3-0.1-0.6-0.1-0.9c0-0.3-0.1-0.6-0.1-0.9
			c-0.3-1.2-0.7-2.4-1.6-3.4c-0.8-1-2.1-2-3.8-2.8c-1.7-0.8-3.7-1.3-5.9-1.6c-4.4-0.5-9.5-0.1-14.2,1.2l-0.4,0.1
			c-2.3,0.7-4.7-0.6-5.4-2.9c-0.5-1.7,0.1-3.5,1.4-4.6c2.5-2.1,5.4-3.6,8.3-4.9c3-1.3,6.1-2.1,9.4-2.6c3.3-0.5,6.8-0.5,10.5,0.1
			c3.6,0.6,7.4,2,10.8,4.4c3.4,2.4,6.1,5.8,7.9,9.5c0.4,1,1,1.9,1.2,2.9c0.3,1,0.6,2,0.8,3c0.3,2,0.6,4.1,0.6,6
			c0.1,2-0.2,3.8-0.5,5.7c-0.4,1.8-0.7,3.6-1.3,5.3c-0.5,1.7-1.2,3.3-1.9,4.9c-0.8,1.5-1.5,3.1-2.4,4.6c-1.7,3-3.7,5.7-5.9,8.3
			l-1.7,1.9l-1.9,1.8c-1.3,1.2-2.7,2.4-4.1,3.4c-5.5,4.1-12.1,7.2-18.9,8.7c-3.4,0.8-6.9,1.2-10.4,1.2c-3.5,0.1-7-0.2-10.3-0.8
			c-6.8-1.2-13.2-3.6-19.1-7c-5.8-3.4-11.2-7.6-15.7-12.7c-4.5-5.1-8.2-10.9-10.7-17.4c-0.3-0.8-0.7-1.6-0.9-2.4l-0.7-2.3
			c-0.5-1.6-1-3.1-1.3-4.7c-0.4-1.6-0.7-3.1-1.1-4.7l-0.7-4.8c-0.8-6.4-0.8-12.9-0.2-19.3c0.8-6.4,2.2-12.8,4.5-18.9
			c2.2-6.1,5.3-11.9,9-17.4c1-1.3,1.8-2.7,2.9-4l3.2-3.8c2.3-2.4,4.6-4.8,7.2-6.8c5.1-4.2,10.8-7.9,16.9-10.5
			c12.1-5.3,25.3-7.5,38.3-6.4c6.5,0.5,13,1.8,19.3,3.9c6.2,2.2,12.3,5.2,17.8,9c10.8,7.3,19.6,17.4,26,28.6
			c6.3,11.3,10.1,23.6,11.8,36.1c1.6,12.5,1.2,25.2-1.5,37.5c-1.3,6.2-3.1,12.2-5.5,18.1c-2.4,5.9-5.3,11.6-8.8,17
			c-3.5,5.4-7.5,10.5-12.2,15.1c-4.7,4.6-9.7,8.6-15.1,12.2c-5.5,3.4-11.3,6.4-17.3,8.8c-6.1,2.3-12.3,4-18.6,5.1
			c-6.3,1-12.7,1.5-19.1,1.4c-6.4-0.2-12.7-0.9-18.9-2.1c-6.2-1.3-12.3-3-18.1-5.3c-1.5-0.6-2.9-1.1-4.4-1.6l-4.3-1.9l-4.2-2
			l-4.1-2.3c-11-6.1-21-13.9-29.5-23.1c-8.5-9.2-15.6-19.7-21-30.9c-5.4-11.2-9.2-23.2-11.2-35.5c-2-12.3-2.2-24.8-0.7-37.2
			s4.8-24.5,9.8-36c5-11.5,11.8-22.3,20.3-31.6c8.4-9.3,18.2-17.4,29-23.5c10.7-6.2,22-10.8,33.6-14.1C120.9,3,144.9,2,168.2,4.4
			c11.6,1.2,23.1,3.2,34.3,6.2c11.2,3,22.1,6.7,32.8,11.1c5.3,2.2,10.6,4.6,15.7,7.1c2.6,1.3,5.1,2.7,7.6,4c2.5,1.4,5,2.8,7.5,4.3
			c9.8,5.9,19.3,12.4,28,19.7l0,0c1.6,1.3,1.8,3.7,0.5,5.3C293.3,63.6,291.2,63.8,289.6,62.8z"/>
		<path class="st0" d="M376.4,363.5c9-6.5,17.5-13.7,25.4-21.4c2-1.9,3.9-3.9,5.8-5.9c1.9-2,3.8-4,5.6-6.1
			c3.7-4.1,7.3-8.3,10.7-12.6c13.7-17.2,25.2-36.1,33.5-56.1c4.2-10,7.6-20.2,10-30.6c2.4-10.4,3.8-20.9,4-31.3
			c0.3-10.4-0.6-20.7-2.9-30.5c-2.2-9.8-5.8-19-10.7-27.4c-5-8.4-11.1-16-18.2-22.6l-2.7-2.5l-2.9-2.3c-1-0.7-1.9-1.5-2.9-2.2
			l-3-2.1c-2-1.4-4.1-2.7-6.1-3.9c-2-1.3-4.2-2.4-6.4-3.5c-8.7-4.3-17.9-7.7-27.5-9.7c-9.5-2.1-19.4-2.7-29-2
			c-19.4,1.4-38,8.6-52.8,20.9l-2.8,2.3l-2.6,2.5l-2.6,2.5c-0.8,0.9-1.6,1.8-2.4,2.7c-3.4,3.6-6.1,7.4-8.8,11.3
			c-2.5,4-4.8,8.2-6.6,12.5c-1.8,4.3-3.2,8.8-4.3,13.3c-4,18.1-0.5,37.7,10.3,52.8c10.7,15.4,28.2,26.9,47,31.9
			c9.4,2.4,19.2,3.2,28.6,2.1c9.4-1.2,18.4-4.3,26.1-9.5c15.1-9.7,24.4-29.1,23.7-47.5c-0.1-4.6-1-9.1-2.4-13.4
			c-0.6-2.2-1.6-4.3-2.5-6.4l-1.6-3c-0.5-1-1.2-1.9-1.8-2.9c-2.6-3.8-5.6-7.5-9.2-10.6c-3.5-3.1-7.5-5.9-11.6-8.2
			c-4.2-2.2-8.7-4-13.3-5.1l-3.5-0.8c-1.2-0.2-2.4-0.3-3.5-0.4c-1.2-0.2-2.4-0.1-3.5-0.2l-1.8-0.1c-0.6,0-1.1,0-1.6,0.1
			c-8.5,0.6-16.9,4.4-23.2,10.2c-6.4,5.7-10.8,12.9-12.1,20.3c-0.3,1.9-0.5,3.8-0.4,5.7c0,1.9,0.2,3.9,0.6,5.8
			c0.8,3.5,2.4,7.6,4.7,11.1c1.1,1.8,2.4,3.4,3.7,4.8c0.6,0.8,1.3,1.3,2,1.9c0.7,0.4,1.3,1.1,2,1.4c0.6,0.5,1.3,0.6,1.9,0.9
			c0.3,0.1,0.6,0.1,0.9,0.3c0.3,0.2,0.6,0.1,0.9,0.2c1.2,0.2,2.6,0.2,3.8-0.3c1.3-0.4,2.7-1.3,4-2.6c1.4-1.3,2.6-3.1,3.6-5.1
			c2.1-4,3.5-8.9,3.9-13.9l0-0.4c0.2-2.4,2.2-4.2,4.6-4c1.8,0.1,3.3,1.4,3.8,3c1,3.1,1.5,6.3,1.6,9.6c0.2,3.3-0.2,6.6-0.9,9.9
			c-0.7,3.3-1.9,6.6-3.8,9.8c-1.9,3.2-4.6,6.2-8,8.5c-0.9,0.6-1.8,1.1-2.7,1.6c-1,0.4-1.9,0.8-2.9,1.2c-1,0.4-2,0.6-3,0.8
			c-0.5,0.1-1,0.2-1.5,0.3l-1.6,0.1c-1,0.1-2.1,0.2-3.2,0.1c-1-0.1-2.1-0.2-3.1-0.3c-2-0.4-4.1-0.9-5.9-1.6
			c-1.9-0.7-3.5-1.6-5.2-2.5c-1.5-1-3.2-2-4.5-3.1c-1.5-1.1-2.7-2.3-4-3.5c-1.2-1.3-2.4-2.5-3.4-3.9c-2.2-2.7-4-5.5-5.7-8.5
			l-1.2-2.3l-1-2.4c-0.6-1.6-1.3-3.4-1.7-5.1c-1.9-6.7-2.5-14-1.4-21c0.5-3.5,1.4-7,2.6-10.3c1.2-3.3,2.7-6.5,4.5-9.4
			c3.6-6,8.2-11.1,13.4-15.5c5.3-4.3,11.2-7.8,17.6-10.2c6.4-2.4,13.2-3.8,20.2-3.9c0.9,0,1.8,0,2.6,0l2.5,0.1
			c1.6,0.1,3.3,0.2,4.9,0.4c1.6,0.2,3.2,0.4,4.9,0.7l4.8,1c6.3,1.6,12.5,3.9,18.3,6.8c5.8,3,11.2,6.7,16.2,11
			c5,4.2,9.4,9.3,13.2,14.7c0.9,1.4,1.9,2.7,2.7,4.2l2.4,4.4c1.4,3,2.8,6.1,3.9,9.3c2.2,6.3,3.5,13,3.8,19.7
			c0.6,13.3-2,26.6-7.7,38.5c-2.8,5.9-6.4,11.6-10.6,16.8c-4.3,5.1-9.4,9.7-14.8,13.5c-10.8,7.6-23.5,12.3-36.3,14.2
			c-12.9,1.9-25.9,1.1-38.3-1.8c-12.4-3-24.2-8-34.9-14.9c-5.3-3.4-10.4-7.3-15.1-11.7c-4.7-4.4-9-9.2-12.9-14.4
			c-3.8-5.2-7.2-10.9-9.9-16.9c-2.7-6.1-4.6-12.3-6.1-18.6c-1.3-6.4-2-12.9-2.1-19.4c0-6.5,0.7-13,1.9-19.4
			c1.3-6.3,3.2-12.5,5.5-18.5c2.5-5.9,5.4-11.7,8.7-17.1c3.5-5.4,7.2-10.6,11.5-15.2c1-1.2,2-2.4,3.1-3.5l3.4-3.3l3.4-3.3l3.6-3.1
			c9.7-8.1,20.7-14.8,32.4-19.5c11.7-4.8,24.2-7.7,36.7-8.7c12.5-1,25.2-0.3,37.5,2.2c12.3,2.6,24.2,6.8,35.3,12.7
			c11.1,5.8,21.5,13.3,30.5,22.2c9,8.8,16.8,19.1,22.5,30.4c5.8,11.3,9.8,23.4,11.8,35.8c2,12.3,2.3,24.7,1.2,36.8
			c-2.2,24.3-9.9,47.4-20.5,68.5c-5.3,10.5-11.3,20.7-18.2,30.1c-6.8,9.5-14.3,18.5-22.2,27c-4,4.2-8.1,8.3-12.3,12.3
			c-2.1,2-4.3,3.9-6.5,5.8c-2.2,1.8-4.4,3.7-6.7,5.5c-9.1,7.2-18.6,13.8-28.6,19.4l0,0c-1.8,1-4.1,0.4-5.1-1.4
			C374.4,366.7,374.9,364.6,376.4,363.5z"/>
		<path class="st0" d="M67.4,265.6c-0.6,11-0.3,22,0.6,32.9c0.2,2.7,0.6,5.4,0.9,8.1c0.4,2.7,0.8,5.4,1.2,8.1
			c0.8,5.4,1.8,10.8,3,16.1c4.7,21.2,12.1,41.9,22.2,60.7c5.1,9.4,10.8,18.4,17.3,26.7c6.5,8.3,13.7,15.9,21.5,22.6
			c7.8,6.7,16.3,12.4,25.3,16.8c8.8,4.4,18.2,7.4,27.7,8.8c9.5,1.4,19.2,1.5,28.7,0.1l3.6-0.5l3.5-0.8c1.2-0.3,2.4-0.5,3.5-0.8
			l3.4-1c2.3-0.6,4.6-1.5,6.8-2.3c2.3-0.7,4.5-1.8,6.7-2.7c8.8-4,17.1-9,24.5-15.1c7.5-6,14.1-13.1,19.6-21
			c11-15.7,17-34.5,16.8-53.5l0-3.6l-0.3-3.6l-0.3-3.6c-0.1-1.2-0.4-2.4-0.6-3.6c-0.6-4.8-1.8-9.3-3.2-13.8
			c-1.5-4.4-3.3-8.7-5.4-12.9c-2.2-4.1-4.7-8-7.6-11.6c-11.4-14.4-28.5-23.9-46.9-24.9c-18.5-1.3-38.2,4.9-53.7,16.2
			c-7.7,5.7-14.4,12.7-19.4,20.6c-4.9,8-8.1,16.8-9,26c-2,17.6,7.1,36.8,21.6,47.7c3.6,2.8,7.6,4.9,11.8,6.5c2.1,0.9,4.3,1.4,6.5,2
			l3.4,0.6c1.1,0.3,2.3,0.3,3.4,0.4c4.6,0.4,9.2,0.4,13.8-0.4c4.6-0.8,9.1-2.1,13.5-3.8c4.3-1.9,8.5-4.2,12.2-7l2.8-2.2
			c0.9-0.8,1.7-1.6,2.5-2.4c0.9-0.8,1.6-1.7,2.4-2.6l1.1-1.3c0.4-0.4,0.6-0.9,1-1.3c4.8-6.9,7.1-15.7,6.6-24.1
			c-0.4-8.4-3.2-16.2-8-21.9c-1.2-1.4-2.6-2.7-4.1-3.8c-1.5-1.2-3.1-2.2-4.8-3.1c-3.1-1.6-7.3-2.9-11.4-3.3c-2-0.2-4.1-0.3-5.9-0.1
			c-1,0-1.8,0.2-2.7,0.3c-0.8,0.2-1.6,0.4-2.3,0.6c-0.8,0.2-1.2,0.6-1.9,0.8c-0.2,0.2-0.5,0.4-0.8,0.5c-0.3,0.1-0.4,0.4-0.7,0.6
			c-0.9,0.8-1.7,1.9-2.1,3.1c-0.5,1.2-0.7,2.8-0.5,4.7c0.1,1.8,0.7,3.9,1.6,5.9c1.8,4.1,4.6,8.3,8.2,11.6l0.3,0.3
			c1.7,1.6,1.8,4.4,0.2,6.1c-1.2,1.3-3.1,1.7-4.7,1.1c-3-1.2-5.8-2.8-8.4-4.8c-2.6-1.9-4.9-4.2-7-6.8c-2.1-2.6-3.9-5.6-5.2-9.1
			c-1.2-3.5-1.9-7.4-1.6-11.5c0.3-4.1,1.9-8.1,4.2-11.6c0.6-0.8,1.2-1.8,1.9-2.5c0.7-0.8,1.4-1.5,2.2-2.2c1.6-1.3,3.2-2.6,4.9-3.5
			c1.7-1.1,3.4-1.7,5.2-2.5c1.7-0.6,3.5-1.2,5.2-1.5c1.8-0.4,3.5-0.6,5.2-0.9c1.7-0.1,3.4-0.3,5.1-0.2c3.4,0,6.8,0.4,10.1,1l2.5,0.5
			l2.5,0.7c1.7,0.5,3.5,1.1,5,1.8c6.4,2.7,12.3,6.8,17,12c2.4,2.6,4.5,5.4,6.3,8.4c1.8,3,3.3,6.1,4.5,9.4c2.4,6.5,3.5,13.2,3.5,20
			c0,6.8-1,13.5-3.1,19.9c-2.1,6.4-5.4,12.6-9.6,18c-0.5,0.7-1.1,1.4-1.6,2l-1.6,1.8c-1.1,1.2-2.2,2.4-3.4,3.5
			c-1.2,1.1-2.4,2.2-3.6,3.3l-3.8,3c-5.2,3.9-10.8,7.2-16.6,9.8c-5.9,2.6-12.2,4.5-18.6,5.6c-6.4,1.2-13,1.4-19.6,0.9
			c-1.6-0.2-3.3-0.2-4.9-0.5l-4.9-0.9c-3.2-0.8-6.4-1.6-9.5-2.8c-6.2-2.3-12.2-5.4-17.5-9.3c-10.6-7.8-19.2-18.1-24.8-30
			c-2.8-5.9-5-12.1-6.2-18.7c-1.2-6.5-1.6-13.3-1.1-19.9c0.9-13,5.2-25.7,11.7-36.8c6.6-11.1,15.3-20.6,25.3-28.3
			c10-7.6,21.2-13.6,33.2-17.5c6-2,12.1-3.4,18.4-4.4c6.3-0.9,12.7-1.2,19.1-0.9c6.4,0.3,12.9,1.2,19.2,2.9c6.4,1.7,12.3,4.1,18.1,7
			c5.7,3,11.2,6.5,16.2,10.5c5,4.1,9.6,8.6,13.7,13.5c4.1,5,7.7,10.3,10.8,15.8c3,5.6,5.6,11.4,7.7,17.4c2,6,3.6,12.2,4.5,18.3
			c0.2,1.5,0.6,3.1,0.8,4.6l0.5,4.7l0.4,4.7l0.1,4.7c0.2,12.5-1.5,25.1-5.2,37.1c-3.7,12-9.2,23.4-16.2,33.7
			c-7,10.3-15.5,19.6-25.1,27.5c-9.6,7.8-20.4,14.4-31.8,19.2c-11.4,4.9-23.6,8.2-36.1,9.6c-12.4,1.4-25.2,1-37.5-1.7
			c-12.3-2.6-24.2-7.1-34.9-13.3c-10.7-6.1-20.4-13.6-29.1-22c-17.3-16.9-30.3-37.2-39.8-58.5c-4.8-10.7-8.8-21.6-11.8-32.8
			c-3-11.2-5.3-22.5-6.8-33.9c-0.8-5.7-1.3-11.4-1.8-17.1c-0.2-2.9-0.2-5.7-0.4-8.6c0-2.9-0.1-5.7,0-8.6c0.1-11.5,1-22.9,3-34.1l0,0
			c0.3-2,2.3-3.4,4.3-3C66.2,262.1,67.5,263.8,67.4,265.6z"/>
	</g>
</g>
<g id="Water" class="st1">
	<path class="st2" d="M485.1,189.2c-0.1-0.5-0.2-1-0.4-1.5C457.1,83.9,362.3,7.2,250,7.2C116.1,7.2,7.2,116.1,7.2,250
		c0,21.9,2.9,43,8.4,63.2c0.1,0.5,0.2,0.9,0.4,1.4c28.4,102.6,122.5,178.2,234,178.2c133.9,0,242.8-108.9,242.8-242.8
		C492.8,229,490.1,208.6,485.1,189.2z M45.1,331.4c22.1,8.5,48.6,15.2,77.6,15.2c13.3,0,27.1-1.4,41.1-4.7
		c55.7-13,94.8-49.4,132.6-84.6c10.4-9.6,21-19.6,31.9-28.9c21.1-18.1,61.9-37.2,136.6-27c2.7,11.9,4.4,24.3,5.1,36.9
		c-60.4-12.9-117,22.7-154.5,55.6c-2.6,2.3-5.3,4.7-8,7c-42.7,37.7-86.8,76.6-143,83.4c-33,4-67.4-0.1-97.5-11.3
		C58.4,360,51,346.1,45.1,331.4z M458.4,178.1c-46.3-4.9-103.8-1.5-144.5,33.3c-11.2,9.6-22.1,19.7-32.6,29.5
		c-37.3,34.7-72.6,67.6-122.5,79.2c-47.8,11.2-92.4-2.5-122.7-17c-4.2-17-6.5-34.9-6.5-53.2c0-28.8,5.6-56.3,15.7-81.6
		c2.4-1.7,4.9-3.4,7.4-5c5.3-3.3,10.9-6.2,16.5-8.9c5.7-2.6,11.6-4.8,17.5-6.6c6-1.8,12-3.1,18.2-4.1c6.1-0.8,12.3-1.2,18.4-1
		l4.6,0.3c1.5,0.1,2.9,0.3,4.4,0.5c2.9,0.5,5.8,1.1,8.6,2c11.2,3.5,21,10.5,28.6,19.8c2.8,3.4,5.2,6.9,7.4,10.8
		c3.9,6.7,6.8,14,8.9,21.5c1.3,4.6,2.3,9.3,3,14.1c0.2,1.3,0.4,2.7,0.5,4c0.6,5.9,0.4,11.8-0.7,17.6c-2,11.7-7.1,23-14.4,32.5
		c-7.3,9.5-16.8,17.2-27.6,21.6c-10.7,4.5-22.6,5.4-33.7,2.2c-2.8-0.8-5.5-1.8-8.2-3c-1.3-0.5-2.6-1.3-3.9-2l-1.9-1l-1.7-1.2
		c-4.6-3.1-8.6-7.2-11.6-12c-3.1-4.8-5.3-10.2-6.8-15.9c-1.4-5.7-1.9-11.6-1.5-17.4c0.7-11.6,5.6-23,14.4-29.4
		c4.4-3.2,9.7-5,15.3-5.6c2.8-0.3,5.7-0.2,8.7,0.1c2.9,0.2,5.6,0.8,8.3,1.7c5.4,1.9,10.3,5.1,14.4,9.1c4.1,4.1,7.1,9.2,8.8,14.6
		c1.7,5.5,1.9,11.5,0.2,16.8c-1.7,5.3-5,10.2-9.8,12.4c-4.7,2.3-10.7,1.9-15.7-0.9c-5.1-2.7-9-7.5-11.1-13c-0.5-1.3-2-2.1-3.4-1.7
		c-1.5,0.4-2.3,2-1.9,3.5l0,0c2,6.9,6.4,13.4,12.8,17.4c3.2,2,6.9,3.4,10.8,3.9c1.9,0.2,4,0.3,6,0c2-0.2,4-0.8,5.9-1.5
		c1.9-0.8,3.7-1.8,5.3-3c1.6-1.2,3.1-2.6,4.4-4.1c0.7-0.7,1.2-1.5,1.9-2.3c0.5-0.8,1.1-1.6,1.6-2.5c1-1.6,1.8-3.4,2.5-5.3
		c2.7-7.4,2.7-15.4,0.9-22.8c-1.9-7.4-5.6-14.3-10.7-19.9s-11.4-10.2-18.6-13.1c-3.6-1.4-7.4-2.5-11.2-2.9
		c-3.7-0.5-7.5-0.7-11.3-0.4c-7.7,0.5-15.7,2.9-22.4,7.5c-6.7,4.6-12,10.9-15.4,17.9c-3.5,6.9-5.5,14.4-6.2,21.9
		c-0.7,7.5-0.3,15,1.3,22.4c1.6,7.4,4.5,14.5,8.6,21c4.1,6.5,9.6,12.3,16.1,16.8l2.5,1.6l2.4,1.4c1.6,0.9,3.2,1.8,5,2.6
		c3.4,1.6,6.9,2.9,10.6,4c7.3,2,15,2.8,22.6,2.2c7.6-0.6,15-2.5,21.8-5.4c13.7-5.9,25.1-15.7,33.6-27.3c8.5-11.6,14.4-25,16.7-39.3
		c0.4-2.4,0.7-4.8,0.8-7.3c2.7,2.2,5.5,4.2,8.6,5.9c14.2,8.1,31.2,10.3,47.1,6.9c1-0.2,2-0.4,3-0.7c1-0.3,2-0.5,2.9-0.9l2.9-1
		l2.8-1.1c0.9-0.4,1.9-0.8,2.8-1.2l2.7-1.4c0.9-0.5,1.8-0.9,2.7-1.4l2.6-1.6c6.8-4.2,12.9-9.6,18-15.7
		c10.3-12.2,16.2-27.4,18.6-42.7c0-0.1,0-0.2,0-0.3c1.1,0.6,2.1,1.2,3.3,1.7c1.1,0.5,2.2,1.1,3.4,1.5l3.5,1.3
		c1.1,0.5,2.3,0.7,3.5,1.1c1.2,0.3,2.4,0.7,3.5,0.9c2.4,0.4,4.8,0.9,7.2,1.1c4.8,0.6,9.7,0.3,14.5-0.2l3.6-0.6
		c0.6-0.1,1.2-0.2,1.8-0.3l1.8-0.4l3.5-0.9l3.4-1.2l1.7-0.6l1.7-0.7l3.3-1.5c1.1-0.6,2.1-1.2,3.2-1.7c1.1-0.6,2.1-1.2,3.1-1.9
		c8.1-5.3,15.1-12.5,19.7-21c4.7-8.5,7-18.1,7.6-27.5c0.5-8.6-0.5-17-2.4-25.1C430.8,120.2,447.9,147.7,458.4,178.1z M389.4,79.3
		c2.8,6,5.1,12.3,6.6,18.7c1.8,7.8,2.8,15.8,2.1,23.5c-0.6,7.8-2.8,15.1-6.4,21.6c-3.5,6.6-9,12-15.2,16.1c-0.8,0.6-1.6,1-2.4,1.4
		l-2.5,1.4l-2.6,1.1l-1.3,0.6l-1.3,0.5l-2.7,0.9l-2.8,0.7l-1.4,0.4c-0.5,0.1-0.9,0.1-1.4,0.2l-2.8,0.5c-3.8,0.4-7.6,0.6-11.3,0.1
		c-1.9-0.1-3.7-0.5-5.6-0.8c-0.9-0.2-1.8-0.5-2.7-0.7c-0.9-0.3-1.8-0.4-2.7-0.8l-2.6-1c-0.9-0.3-1.7-0.8-2.5-1.2
		c-1.7-0.7-3.3-1.7-4.9-2.7c-1.3-0.8-2.5-1.7-3.7-2.6v0c0-0.2,0-0.3,0-0.5l-0.1-5.8c-0.7-7.6-1.7-15.3-4-22.7
		c-1.7-6.4-4.3-12.6-7.2-18.5c0.3-0.5,0.6-1.1,1-1.6c1.1-1.5,2.1-3,3.5-4.3c1.2-1.4,2.6-2.6,4-3.8c1.5-1.1,2.9-2.3,4.6-3.2
		c1.5-1.1,3.3-1.7,4.9-2.6l2.6-0.9c0.9-0.3,1.8-0.6,2.6-0.8c0.9-0.2,1.8-0.5,2.7-0.6l2.7-0.4c0.9-0.2,1.8-0.1,2.8-0.1
		c0.9,0,1.8-0.1,2.8,0c7.4,0.2,14.8,2.8,20.6,7.2c2.9,2.2,5.4,4.9,7.1,8c1.8,3.1,2.8,6.5,3.1,10.1c0.2,1.8,0.1,3.6,0.1,5.4
		c-0.1,1.7-0.5,3.5-1.1,5.2c-1.1,3.4-2.9,6.7-5.3,9.2c-2.4,2.5-5.3,3.9-8.7,4.2c-3.4,0.3-7-0.6-9.9-2.4c-1.5-0.9-2.7-2.1-3.7-3.5
		c-1-1.4-1.6-3-1.8-4.6c-0.5-3.3,0.8-6.7,3.7-8.9l0,0c0.9-0.7,1.2-2,0.6-3.1c-0.7-1.1-2.1-1.5-3.3-0.9c-2.2,1.3-4.2,3.2-5.5,5.5
		c-1.4,2.4-2,5.1-1.9,7.8c0.1,2.7,0.9,5.4,2.1,7.8c1.3,2.4,3.1,4.4,5.2,6.1c4.2,3.3,9.4,5.1,14.8,5c2.7,0,5.4-0.5,8-1.6
		c2.6-1.1,4.9-2.6,6.9-4.3c4-3.5,6.8-7.9,8.7-12.7c0.9-2.4,1.6-4.9,2-7.5c0.3-2.5,0.6-5.1,0.3-7.6c-0.3-5.1-1.6-10.3-4-14.9
		s-5.8-8.7-9.7-11.9c-3.9-3.2-8.4-5.8-13-7.6c-4.7-1.8-9.6-2.9-14.6-3.2c-1.2-0.1-2.5-0.1-3.8-0.1c-1.3,0.1-2.5,0-3.8,0.2l-3.7,0.5
		c-1.2,0.2-2.4,0.5-3.7,0.8c-1.2,0.3-2.4,0.6-3.6,1c-1.2,0.4-2.4,0.8-3.5,1.3c-2.3,1.1-4.6,2-6.7,3.4c-2.2,1.2-4.2,2.7-6.2,4.2
		c-1.9,1.7-3.8,3.2-5.5,5.1c-0.7,0.7-1.4,1.5-2.1,2.3l-3.1-4.4c-1.2-1.5-2.4-2.9-3.7-4.4c-9.9-11.6-22.1-21-35.5-27.8
		c-13.4-6.9-27.6-11.2-42-13.8c-14.9-2.7-29.9-3.5-44.8-2.5c24.4-9.4,51-14.5,78.7-14.5C302.8,29.5,351.3,48.2,389.4,79.3z
		 M135.6,61.6c5.6-1.1,11.2-2,16.8-2.8c6.7-0.8,13.5-1.3,20.2-1.5c13.5-0.2,27.1,0.9,40.3,3.5c13.2,2.7,26.2,6.9,37.8,13
		c11.6,6.2,22.3,14.3,30.8,24.3l3.1,3.8l2.9,4l1.4,2l1.2,2.1l1.4,2.4l1,1.8c2.9,5.8,5.7,11.8,7.3,18.1c1.9,6.2,2.8,12.8,3.4,19.3
		l0.1,4.9c0,1.6,0.1,3.3-0.1,4.9c0,0.1,0,0.2,0,0.3c-0.2,3.2-0.4,6.4-0.9,9.5c-1.9,12.8-6.9,25.2-15.1,35c-4,4.9-8.8,9.1-14.1,12.4
		l-2,1.2c-0.7,0.4-1.4,0.7-2.1,1.1l-2.1,1.1l-2.2,0.9c-2.9,1.3-5.8,2.1-8.9,2.9c-12.1,2.6-25.3,0.9-36.1-5c-7.1-4-13.2-9.8-18-16.7
		c-0.7-3.5-1.5-6.9-2.5-10.4c-2-7-4.6-13.8-8-20.4c-0.1-5.7,0.8-11.2,2.9-16.2c2.2-5.4,6-10.1,10.8-13.8c2.4-1.9,5-3.5,7.8-4.8
		c1.4-0.6,2.8-1.3,4.2-1.7c1.5-0.4,2.9-0.9,4.4-1.2c5.9-1.3,12.2-1.2,18.1,0.4c5.9,1.5,11.5,4.4,16.2,8.4c4.7,3.9,8.5,8.9,10.9,14.6
		c0.3,0.7,0.6,1.4,0.9,2.1l0.7,2.2c0.2,0.7,0.5,1.5,0.6,2.2l0.4,2.3l0.4,2.3c0.1,0.8,0.2,1.6,0.2,2.3c0.1,1.5,0.1,3.1-0.1,4.6
		c-0.2,3-1,5.9-2.2,8.4c-1.2,2.5-3,4.8-5.3,6.6c-2.2,1.9-4.9,3.3-7.8,4.1c-1.4,0.4-2.9,0.6-4.4,0.8c-1.5,0-3,0-4.4-0.3
		c-2.9-0.5-5.7-1.8-8.1-3.8c-2.4-1.9-4.5-4.4-5.8-7.2c-1.3-2.8-1.4-5.8,0.3-8.4c1.7-2.5,4.7-4.5,7.9-5.5c0.3-0.1,0.5-0.4,0.5-0.8
		c0-0.4-0.4-0.7-0.8-0.6c-1.8,0.2-3.6,0.7-5.4,1.5c-1.7,0.8-3.4,1.9-4.8,3.4c-1.4,1.5-2.3,3.5-2.7,5.6c-0.4,2.1-0.1,4.3,0.5,6.2
		c1.1,3.8,3.2,7.3,6,10.2c2.9,2.8,6.4,5.1,10.4,6.2c2,0.6,4.1,0.9,6.1,1.1c2.1,0,4.2-0.1,6.2-0.5c4.1-0.8,8-2.4,11.4-4.8
		c3.4-2.4,6.5-5.4,8.6-9.3c2.1-3.8,3.3-7.8,4-11.8c0.3-2,0.5-4.1,0.5-6.1c0-1,0-2-0.1-3l-0.3-3l-0.4-3c-0.2-1-0.5-1.9-0.7-2.9
		l-0.8-2.9c-0.3-1-0.7-1.9-1-2.8c-2.8-7.5-7.5-14.4-13.5-19.7c-6-5.4-13.3-9.3-21.1-11.5c-7.8-2.2-16.1-2.5-24.1-1
		c-2,0.4-3.9,1-5.9,1.5c-2,0.6-3.9,1.3-5.7,2.2c-3.7,1.7-7.2,3.7-10.5,6.1c-6.5,4.8-12.2,11.4-15.6,19.1c-0.6,1.4-1.2,2.8-1.7,4.1
		c-2.1-2.4-4.3-4.8-6.6-7c-2.6-2.5-5.4-4.7-8.4-6.8c-5.9-4.2-12.6-7.4-19.5-9.5c-3.5-1.1-7-1.9-10.6-2.4c-1.8-0.2-3.6-0.5-5.4-0.6
		l-5.3-0.3c-7-0.2-14,0.2-20.9,1.2c-6.8,1.1-13.6,2.6-20.2,4.6c-6.6,2.1-13,4.4-19.3,7.3c-2.6,1.2-5.1,2.4-7.6,3.8
		C74.5,111.1,102.1,82,135.6,61.6z M89.9,401.4c16.2,3.5,32.9,5.3,49.7,5.3c9.2,0,18.4-0.5,27.4-1.6c62.7-7.5,111.4-50.5,154.4-88.5
		c2.6-2.3,5.3-4.7,7.9-7c34.8-30.5,87.3-63.8,140.8-49.8c-0.8,18-3.8,35.5-8.7,52.2c-35.2,0.9-66.1,7.8-92.1,20.7
		c-23.5,11.6-40.2,30.5-56.2,48.7c-13.1,14.8-25.4,28.8-41,38.9c-29.7,19.3-68.8,28.4-119.1,27.6C129.3,436.3,108,420.5,89.9,401.4z
		 M250,470.5c-16.8,0-33.2-1.9-49-5.5c32.2-4.2,59.2-13.5,81.8-28.2c17.9-11.6,31.7-27.2,45-42.4c15.5-17.6,30.2-34.2,50.2-44.1
		c21.6-10.7,47.4-16.9,76.6-18.4C422.1,413,342.6,470.5,250,470.5z"/>
</g>
<g id="Earth" class="st1">
	<g class="st2">
		<path d="M482.7,348.4L369,32.2c-5-14-18.5-23.5-33.4-23.5H165.2c-14.9,0-28.3,9.4-33.3,23.4L17.4,348.2
			c-3.5,9.5-5.2,19.5-5.2,29.6v82.2c0,17.2,14,31.1,31.1,31.1h173.4c15.8,0,28.7-12.9,28.7-28.7v-77.6c0-17-13.9-30.9-30.9-30.9
			H81.7c-5.8,0-10.4,4.7-10.4,10.4c0,5.8,4.7,10.4,10.4,10.4h132.8c5.5,0,10.1,4.5,10.1,10v23.4H83.4c-5.8,0-10.4,4.7-10.4,10.4
			c0,5.8,4.7,10.4,10.4,10.4h141.2v33.4c0,4.3-3.5,7.9-7.9,7.9H43.3c-5.7,0-10.3-4.6-10.3-10.3v-82.2c0-7.7,1.3-15.3,4-22.5
			L151.5,39.2c2.1-5.8,7.6-9.6,13.7-9.6h170.5c6.1,0,11.7,3.9,13.8,9.7l113.7,316.2c2.6,7.2,3.9,14.7,3.9,22.4v82.3
			c0,5.7-4.6,10.3-10.3,10.3H298.8c-4.3,0-7.9-3.5-7.9-7.9v-33.4h138c5.8,0,10.4-4.7,10.4-10.4c0-5.8-4.7-10.4-10.4-10.4H291v-23.4
			c0-5.5,4.5-10,10-10h127.9c5.8,0,10.4-4.7,10.4-10.4c0-5.8-4.7-10.4-10.4-10.4H301c-17,0-30.9,13.9-30.9,30.9v77.6
			c0,15.8,12.9,28.7,28.7,28.7h157.9c17.2,0,31.1-14,31.1-31.1v-82.3C487.9,367.7,486.1,357.8,482.7,348.4z"/>
		<path d="M290.6,199.1c-0.6,0.8-1.1,1.6-1.7,2.3l-1,1.1c-0.3,0.4-0.7,0.7-1.1,1c-1.5,1.3-3.3,2.4-5.1,3.3c-1.8,0.9-3.6,1.4-5.5,1.6
			c-1.9,0.3-3.8,0.2-5.8-0.2c-2-0.4-4-1-5.9-1.9c-2-0.9-3.9-2.1-5.7-3.5c-1.8-1.4-3.6-2.9-5.3-4.6l-0.1-0.1
			c-0.7-0.7-1.9-0.9-2.9-0.5c-1.3,0.6-1.8,2.1-1.2,3.4c2.3,4.9,5.9,9.4,10.6,12.8c4.7,3.3,10.8,5.6,17.2,5.2
			c3.1-0.2,6.3-0.9,9.1-2.2c2.8-1.3,5.3-2.8,7.7-4.7c0.6-0.4,1.2-1,1.7-1.5l1.6-1.6c1-1.1,1.9-2.4,2.9-3.7c0.7-1.4,1.6-2.7,2.2-4.1
			c0.6-1.4,1.2-2.9,1.5-4.4c1.6-6,1.4-12.1,0.1-17.7c-1.3-5.7-3.6-10.9-6.7-15.8c-3.1-4.8-7.1-9.1-11.8-12.6c-4.7-3.4-10-6-15.7-7.4
			c-11.3-2.9-23.6-1.4-33.9,3.8c-10.3,5.2-18.8,13.8-23.9,23.9c-5.3,10.1-7.4,21.5-7.2,32.6c0.3,11.1,3,22.1,8.1,32.2
			c2.6,5,5.7,9.7,9.5,14c3.8,4.3,8.2,8,13.1,11c9.8,6.2,21.1,9.1,32.2,9.8c5.5,0.3,11,0.1,16.5-0.5c5.5-0.7,10.7-1.7,16.2-3.4
			c1.5-0.5,2.8-1,4.1-1.5s2.6-1,3.9-1.6c1.3-0.6,2.5-1.2,3.8-1.8l3.7-2.1c4.8-2.9,9.3-6.3,13.4-10.1c4.1-3.8,7.7-8.1,10.9-12.6
			c3.2-4.5,6-9.3,8.2-14.4c2.3-5,4.1-10.2,5.6-15.5c1.4-5.3,2.4-10.7,3-16.1c0.6-5.4,0.7-10.9,0.5-16.3c-0.2-5.4-0.9-10.9-2-16.2
			c-2.2-10.7-6.2-21.2-12-30.6c-5.7-9.4-13.3-17.7-21.9-24.6c-8.6-6.8-18.4-12.1-28.7-15.8c-20.6-7.4-43.1-8.3-64.2-3.2
			c-5.3,1.2-10.4,3.1-15.5,5l-7.4,3.4c-1.3,0.5-2.4,1.3-3.6,1.9l-3.5,2c-9.3,5.6-17.8,12.7-25,20.8c-14.4,16.4-23.4,37-26.6,58.2
			c-1.5,10.6-1.6,21.4-0.4,32.1l1.1,7.9l1.8,7.8l0.4,1.9l0.6,1.9l1.2,3.8c0.4,1.3,0.8,2.6,1.2,3.8l1.5,3.7
			c7.7,19.9,21.2,37.7,38.7,50.1c17.4,12.5,39,18.8,60.1,18.5c10.6-0.2,21.1-1.9,31.1-5c10-3.1,19.5-7.6,28.3-13.1
			c1.5-1,2.1-3,1.2-4.6c-0.9-1.7-3.1-2.3-4.8-1.4l0,0c-17.1,9.5-36.5,14.8-55.7,14.3c-2.4,0-4.8-0.2-7.2-0.5l-7.1-1.1l-1.8-0.3
			l-1.7-0.4l-3.5-0.9c-1.1-0.3-2.3-0.6-3.5-0.9l-3.4-1.2c-9-3.1-17.5-7.4-25-13.3c-15-11.5-26.7-27.4-33.1-45.2l-1.2-3.3
			c-0.4-1.1-0.7-2.3-1-3.4l-1-3.4l-0.5-1.7l-0.4-1.7l-1.4-7l-0.9-7.1c-0.9-9.4-0.6-18.9,0.8-28.3c1.5-9.3,4.4-18.4,8.4-26.8
			c4-8.4,9-16.4,15.3-23.3c12.5-13.8,29-23.8,47.2-27.9c18.1-4.4,37.5-3.5,55,2.8c17.4,6.2,32.7,18,42.2,33.7
			c2.4,3.9,4.4,8,6.1,12.2c1.7,4.3,2.9,8.7,3.9,13.2c1,4.5,1.6,9.1,1.8,13.7c0.2,4.6,0.2,9.3-0.3,13.9c-1.8,18.4-9.5,36.4-22.6,48.8
			c-3.3,3.1-6.8,5.8-10.6,8.2l-2.9,1.7c-1,0.5-2,1-3,1.5c-1,0.5-2,0.9-3.1,1.3c-1,0.4-2.1,0.9-3,1.1c-4.2,1.3-8.9,2.3-13.4,2.9
			c-4.6,0.6-9.2,0.8-13.7,0.6c-9.1-0.4-17.9-2.7-25.3-7.2c-3.7-2.2-7.1-5-10.1-8.2c-2.9-3.2-5.5-6.9-7.6-10.9
			c-4.2-7.9-6.5-16.9-6.9-26c-0.3-9,1.4-18.1,5.3-26c1.9-3.9,4.4-7.6,7.5-10.7c3-3.1,6.6-5.8,10.4-7.8c7.6-4,16.6-5.3,24.9-3.3
			c8.4,2,15.7,7.2,20.5,14.5c2.4,3.6,4.3,7.7,5.3,11.8c1,4.2,1.1,8.4,0.2,12.2C292.4,195.6,291.5,197.4,290.6,199.1z"/>
	</g>
</g>
<g id="Fire" class="st1">
	<path class="st2" d="M460.6,345.1l-0.2-3.6l-0.4-3.6c-0.2-2.4-0.7-4.8-1-7.1c-0.5-2.4-0.9-4.7-1.6-7c-0.3-1.2-0.6-2.3-0.9-3.5
		l-1.1-3.4c-1.3-4.6-3.1-8.9-4.9-13.3c-1.9-4.3-3.8-8.6-5.9-12.6c-4.2-8.3-8.8-16.2-13.4-24c-4.6-7.8-9.4-15.5-13.8-23.3
		c-4.4-7.8-8.6-15.6-12-23.8c-0.4-1-0.9-2-1.3-3l-1.1-3.1c-0.7-2.1-1.6-4.1-2.2-6.2l-1.9-6.3l-1.4-6.4c-2-8.4-1.6-17-0.2-25.6
		c1.5-8.6,3.9-17.1,6.8-25.6c2.9-8.5,6-17,9-25.6c0.3-1,0.3-2.1-0.3-3.1c-1-1.7-3.3-2.3-5-1.3l-0.1,0c-7.5,4.4-14.8,9.2-21.9,14.2
		c-7.2,4.9-14.2,10.2-21,15.8c-13.6,11.2-26,23.8-36.4,38.3c-10.5,15-16.7,32.7-19,50.6c-1.2,8.9-1.5,18-1,26.9
		c0.1,1.9,0.3,3.8,0.5,5.8c-4-5.3-7.9-10.6-11.4-16c-3.2-4.9-6.2-10-8.6-15.1c-2.4-5.1-4.3-10.4-5.2-15.6c-0.9-5.2-1-10.3-0.1-15.7
		c0.9-5.4,2.6-10.9,4.6-16.4c2-5.6,4.4-11.2,6.7-17.1c2.3-5.9,4.6-12.1,6.1-18.7c3-12.5,5-25.3,5.4-38.3c0.4-13-0.7-26.2-4-38.9
		c-3.3-12.7-8.4-24.7-14.7-35.8c-3.2-5.5-6.6-11-10.2-16.2c-3.8-5.1-7.5-10.2-11.8-14.9l-0.4-0.4c-0.7-0.7-1.6-1.2-2.7-1.3
		c-2.2-0.1-4,1.5-4.2,3.7v0c-1,6.3-1.8,12.5-2.8,18.7c-0.9,6.2-2,12.4-3.2,18.5c-1.2,6.1-2.5,12.2-4,18.2c-0.8,3-1.6,6-2.5,8.9
		c-0.9,2.9-1.7,5.5-3,8.2c-4.7,10.6-12.2,20.3-20.8,29.3c-4.3,4.5-8.8,8.9-13.5,13.1l-7.1,6.4c-2.4,2.2-4.8,4.3-7.2,6.4
		c-4.8,4.3-9.6,8.6-14.3,13.1c-4.8,4.4-9.4,9.1-13.7,14.2c-8.7,10-16.1,21.9-19.8,35.3c-1.8,6.7-2.8,13.6-3,20.4
		c0,6.8,0.5,13.6,2,20.2c2.8,13.1,8.4,25.5,16.5,35.6l0.1,0.1c0.2,0.3,0.6,0.4,0.9,0.2c0.4-0.2,0.6-0.6,0.4-1
		c-2.7-5.7-4.8-11.7-6.4-17.7c-1.7-6-2.8-12.1-3.3-18.3c-1.1-12.3,0.4-24.7,4.5-35.9c4-11.3,10.6-21.5,18.5-30.7
		c3.9-4.6,8.1-9.1,12.5-13.4c4.4-4.3,8.9-8.6,13.6-12.8l14.1-12.6c4.8-4.2,9.5-8.8,14.1-13.5c4.6-4.7,8.9-9.8,12.9-15.3
		c3.9-5.5,7.4-11.4,10.1-17.9c0.6-1.6,1.3-3.2,1.8-4.9c0.5-1.6,1.1-3.4,1.5-4.9c0.8-3.2,1.6-6.3,2.3-9.5c1.4-6.4,2.5-12.8,3.4-19.2
		c1.2-8.4,2-16.8,2.7-25.1c0.9,1.6,1.7,3.2,2.5,4.8c2.9,5.4,5.5,10.8,8,16.2c2.4,5.5,4.8,11,6.8,16.6c2,5.6,3.8,11.2,5.1,16.9
		c2.8,11.3,3.7,23,3.2,34.8c-0.5,11.8-2.4,23.6-5.3,35.2c-2.7,11-8.1,21.9-12.6,34c-2.3,6-4.3,12.4-5.5,19.2
		c-0.2,1.7-0.5,3.4-0.7,5.2c-0.1,1.8-0.3,3.5-0.3,5.3c0,3.6,0.3,7.2,0.9,10.7c1.2,7,3.5,13.5,6.3,19.6c2.8,6.1,6.1,11.8,9.6,17.2
		c7,10.9,14.8,20.8,22.2,30.6c0.9,1.2,1.9,2.5,2.7,3.6l2.5,3.6c0.9,1.2,1.6,2.4,2.4,3.6l2.3,3.7l2.1,3.8l1,1.9l0.9,2l1.8,3.9l1.6,4
		l0.8,2l0.6,2l1.3,4.1l1,4.1c0.2,0.7,0.4,1.4,0.5,2.1l0.4,2.1c1.1,5.5,1.3,11.2,1.3,16.7c-0.4,11.2-2.9,22.3-7.8,32.5l-1.8,3.8
		l-2.1,3.7c-0.6,1.3-1.5,2.4-2.2,3.6l-1.1,1.8l-1.2,1.7c-3.3,4.6-7,8.9-11.1,12.7c-16.3,15.5-39.3,23.2-62,22.4
		c-11.3-0.4-22.5-3.1-32.8-7.7c-10.2-4.6-19.6-11.3-26.8-19.6c-7.3-8.4-12.4-18.4-14.7-29.1c-1.2-5.4-1.6-10.9-1.5-16.4
		c0.2-5.5,1.1-11.1,2.4-16.5c5.4-21.5,21.2-40.6,41.1-50.9c10-5,21-7.9,32-7.5c1.4,0.1,2.7,0.1,4.1,0.3l2.1,0.2l2,0.4
		c2.7,0.4,5.4,1.1,7.9,2c5.1,1.7,9.8,4.3,14,7.6c8.3,6.7,14.4,16.3,17.7,26.9c3.3,10.6,3.9,22.1,1.9,33.1
		c-1.9,11-6.5,21.7-13.6,29.5c-3.5,3.9-7.7,7-12.4,9c-4.7,2-9.7,3-15.2,3.1c-5.4,0.2-10.8-0.6-15.9-2.1c-5.1-1.5-9.7-4.2-13.7-7.6
		c-3.8-3.5-7-7.8-9-12.7c-1.9-5-2.8-10.4-2.7-15.8c0.1-10.8,5-21.3,13.2-27.3c1.1-0.7,2.1-1.4,3.2-2c1.1-0.6,2.3-1.1,3.4-1.6
		c2.4-0.9,4.9-1.4,7.4-1.7c2.5-0.2,5,0,7.5,0.4c2.4,0.5,4.7,1.4,6.8,2.6c4.2,2.4,7.7,6.2,9.3,10.7c1.7,4.5,1.5,9.5-0.4,13.9
		c-1.9,4.6-5.3,7.5-10.1,8.5c-4.8,1.1-10.5,0.2-15.9-1.6c-1.7-0.6-3.6,0.2-4.4,1.9c-0.8,1.8,0,3.9,1.8,4.7l0,0
		c3,1.4,6.1,2.5,9.5,3.2c3.3,0.7,6.9,1,10.5,0.6c3.6-0.4,7.4-1.8,10.5-4.1c3.2-2.3,5.6-5.5,7.3-8.8c1.7-3.3,2.8-7,3.1-10.8
		c0.3-3.8-0.2-7.7-1.3-11.3c-2.3-7.3-7.4-13.5-13.8-17.5c-3.2-2-6.8-3.5-10.4-4.4c-3.7-0.8-7.4-1.1-11.2-0.9
		c-3.7,0.2-7.4,1-10.9,2.2c-1.8,0.6-3.5,1.3-5.1,2.2c-1.7,0.9-3.2,1.9-4.8,2.9c-6.1,4.3-11,10.2-14.2,16.8
		c-3.2,6.6-4.9,13.8-5.1,20.9c-0.2,7.2,0.9,14.4,3.4,21.3c2.6,6.8,6.9,13.1,12.2,18.2c5.4,5,11.9,8.8,18.7,11.1
		c6.8,2.4,13.9,3.5,21,3.4c6.9,0,14.5-1.3,21.3-4.2c6.8-2.9,12.9-7.4,17.8-12.8c4.9-5.3,8.7-11.4,11.6-17.7
		c2.9-6.3,4.9-12.9,6.1-19.7c2.5-13.4,1.8-27.6-2.2-40.9c-4.1-13.2-11.7-25.8-23-34.9c-5.6-4.5-12.1-8-18.9-10.4
		c-3.4-1.2-6.8-2.1-10.3-2.8l-2.6-0.5l-2.6-0.3c-1.7-0.2-3.5-0.3-5.3-0.4c-3.3-0.2-6.5-0.1-9.8,0.1c-0.1-0.1-0.2-0.3-0.3-0.5
		c-1.9-2.8-5-5.5-6.9-9.1c-0.4-0.9-0.9-1.8-1.1-2.8c-0.3-1-0.4-1.9-0.7-2.9c-0.3-2-0.8-3.9-0.9-6c-0.2-2-0.3-4.1-0.3-6.1
		c0.1-2.1,0.1-4.1,0.3-6.2c0.3-4.1,0.8-8.2,1.7-12.3c0.4-2,0.9-4,1.4-6c0.6-2,1-4,1.7-5.9c2.5-7.9,5.9-15.5,9.9-23.1
		c3.9-7.6,8.2-15.1,12.1-23c4-7.9,7.8-16,11.2-24.3c1.7-4.2,3.3-8.4,4.6-12.7c1.4-4.3,2.5-8.7,3.5-13.1c0.5-2.2,0.9-4.4,1.3-6.7
		c0.3-2.2,0.6-4.5,0.8-6.7c0.4-4.5,0.6-9,0.3-13.5v-0.1c0-0.9-0.7-1.6-1.6-1.7c-1-0.1-1.9,0.6-2.1,1.6c-2,17.2-8.5,33.2-16.3,48.4
		c-3.9,7.7-8.4,15-12.8,22.6c-4.5,7.5-8.8,15.2-12.9,23.2c-1,2-2,4-3,6.1c-1,2-2,4.1-2.9,6.1c-0.9,2.1-1.9,4.2-2.7,6.3
		c-0.9,2.1-1.8,4.3-2.6,6.5c-0.8,2.2-1.6,4.4-2.3,6.6c-0.7,2.2-1.4,4.6-2,6.8c-1.2,4.5-2.2,9.2-2.9,13.9c-0.4,2.4-0.5,4.8-0.7,7.2
		c-0.1,2.4-0.1,4.9,0.1,7.3c0,1.2,0.1,2.5,0.3,3.7c0.2,1.2,0.3,2.5,0.5,3.7c0.4,2.5,1,5,1.9,7.4c1.1,3.1,2.9,6,5,8.7
		c-4.3,1.4-8.4,3-12.4,5c-12.3,6.1-23.2,14.9-31.9,25.4c-2.9,3.5-5.5,7.2-7.9,11.1c-1.1-7.1-2.3-14.3-3.7-21.4
		c-1.6-7.7-3.4-15.3-5.9-22.9c-1.2-3.8-2.6-7.6-4.1-11.3c-0.8-1.9-1.6-3.7-2.5-5.6c-0.4-0.9-0.9-1.8-1.4-2.8
		c-0.5-0.9-1.1-1.9-1.6-2.8c-4.6-7.3-10.8-13.1-17.2-18c-6.5-4.8-13.5-8.7-20.6-12.1c-7.1-3.4-14.4-6.3-21.7-8.9
		c-7.3-2.7-14.7-5-22.2-7.1c-0.9-0.2-1.8-0.2-2.7,0.2c-2,0.9-2.8,3.2-1.9,5.2v0c2.4,5,4.7,10.1,6.8,15.1c2.2,5.1,4.2,10.2,5.8,15.4
		c1.6,5.2,3,10.4,4,15.7c0.9,5.3,1.5,10.6,1.5,15.8c0.1,10.5-1.8,20.8-5.9,30.2c-4.2,9.6-10.2,18.8-15.6,29.2
		c-2.7,5.2-5.2,10.7-7.1,16.5c-1.9,5.8-3.1,11.9-3.8,18c-0.5,6.1-0.6,12.3,0.2,18.4c0.7,6.1,2.1,12.1,4.2,17.9
		c1,2.9,2.2,5.7,3.6,8.5c1.4,2.8,2.9,5.4,4.6,8c3.3,5.2,7.3,9.8,11.7,13.9c4.5,4.1,9.3,7.6,14.6,10.4c5.2,2.8,10.8,4.9,16.5,6l0.2,0
		c0.3,0,0.6-0.1,0.8-0.4c0.2-0.4,0.1-0.8-0.3-1c-4.9-2.6-9.4-5.8-13.6-9.4c-4.2-3.5-8-7.4-11.4-11.6c-6.9-8.3-12-18-15-28.2
		c-1.5-5.1-2.5-10.3-2.9-15.6c-0.4-5.3-0.3-10.6,0.3-15.8c0.6-5.2,1.8-10.3,3.4-15.3c1.5-4.9,3.7-9.7,6.2-14.5
		c4.8-9.6,10.9-19.2,15.4-30.2c4.5-11.2,6.4-23.5,5.3-35.4c-0.9-11.9-4.1-23.2-8.2-33.9c-3.1-7.8-6.5-15.4-10.1-22.9
		c4.3,1.4,8.7,3,12.9,4.6c7,2.8,13.8,6,20.3,9.6c6.5,3.6,12.6,7.7,18.1,12.4c5.5,4.6,10.3,9.8,13.6,15.7c0.8,1.4,1.6,3,2.3,4.6
		c0.8,1.6,1.5,3.2,2.1,4.9c1.3,3.4,2.5,6.8,3.6,10.3c2.1,7,3.7,14.3,5.1,21.7c1.4,7.4,2.5,14.8,3.4,22.3c1,7.1,1.8,14.2,2.5,21.3
		c-0.1,0.2-0.1,0.3-0.1,0.5c-1.7,6.7-2.8,13.5-3,20.4c-0.2,6.9,0.4,13.9,1.9,20.8c2.9,13.7,9.6,26.5,18.7,37
		c9.1,10.5,20.6,18.6,33,24.2c12.4,5.6,25.9,8.7,39.4,9.2c13.6,0.5,27.1-1.5,40-6.1c6.4-2.3,12.6-5.2,18.5-8.7
		c5.8-3.6,11.3-7.7,16.3-12.4c5-4.6,9.5-9.8,13.4-15.3l1.5-2.1l1.4-2.1c0.9-1.4,1.9-2.8,2.6-4.3l2.5-4.4l2.2-4.6
		c1.5-3,2.6-6.2,3.9-9.4c0.6-1.6,1-3.2,1.5-4.9c0.5-1.6,1-3.2,1.4-4.9l1.1-5c0.4-1.7,0.5-3.4,0.8-5.1c0.5-3.4,0.6-6.8,0.8-10.2
		c0-6.8-0.4-13.7-1.7-20.3l-0.5-2.5c-0.2-0.8-0.4-1.6-0.6-2.5l-1.2-4.9l-1.6-4.8l-0.8-2.4l-0.9-2.3l-1.9-4.7l-2.2-4.5l-1.1-2.2
		l-1.2-2.2l-2.4-4.4l-2.6-4.2c-0.9-1.4-1.8-2.8-2.7-4.1l-0.5-0.7c0.1-0.8,0.1-1.6,0-2.4v0c-1.7-8.1-2.8-16.4-3.2-24.6
		c-0.5-8.2-0.3-16.5,0.6-24.6c1.9-16.2,7.2-32.1,16.3-45.4c4.6-6.8,9.8-13.5,15.3-19.8c5.6-6.3,11.3-12.4,17.5-18.2
		c6.2-5.8,12.7-11.2,19.4-16.4c4-3,8-5.8,12.1-8.5c-5,13.6-10.4,27.3-13,42.2c-0.7,4.6-1.4,9.3-1.4,14.1l0,1.8l0.1,1.8
		c0,1.2,0.1,2.4,0.2,3.6c0.3,2.4,0.5,4.9,1,7.1l1.4,6.9l1.9,6.8c0.6,2.3,1.4,4.4,2.2,6.6l1.1,3.3c0.4,1.1,0.9,2.1,1.3,3.2
		c6.9,17.3,16.2,33.2,24.9,48.9c4.4,7.9,8.6,15.8,12.3,23.8c1.9,4,3.5,8.1,5.2,12.1c1.5,4.1,3,8.2,4.1,12.4
		c2.4,8.3,3.8,16.6,3.7,25.1c0,1.1,0,2.1,0,3.2c-0.1,1,0,2.1-0.1,3.2c-0.2,2.1-0.4,4.2-0.8,6.3c-0.3,2.1-0.8,4.1-1.1,6.2
		c-0.5,2-0.9,4.1-1.5,6.1c-2.2,8.1-4.9,16.1-8.6,23.7c-3.8,7.6-8.4,14.8-13.8,21.5c-10.8,13.3-24.4,24.6-40.2,32.4
		c-6.1,3.1-12.4,5.8-18.8,8.4c2.4-2.5,4.7-5.2,6.8-7.9c5-6.4,9.2-13.3,12.8-20.5c3.5-7.2,6.3-14.8,8.5-22.4
		c2.2-7.6,3.6-15.5,4.5-23.3c0.9-7.8,1.3-15.7,1-23.5c-0.2-7.8-1-15.6-2.2-23.3c-1.2-7.7-2.9-15.3-5.3-22.7
		c-0.6-1.8-1.2-3.7-1.8-5.5l-1.9-5.3l-3.8-10.5c-2.5-6.9-5.2-13.7-7.4-20.5c-2.3-6.8-4.1-13.7-5.5-20.6c-0.7-3.5-1.2-7-1.5-10.5
		c-0.2-1.8-0.3-3.5-0.4-5.3c-0.1-1.8-0.2-3.6-0.2-5.4c-0.2-7.3-0.1-14.6,0.2-22c0.1-3.7,0.4-7.4,0.6-11c0.2-3.7,0.5-7.4,0.8-11.1
		l-1.5-0.3c-0.9,3.6-1.8,7.2-2.6,10.8c-0.8,3.6-1.5,7.3-2.2,10.9c-1.3,7.3-2.4,14.7-3.2,22.2c-0.8,7.5-0.8,15.3-0.1,22.9
		c0.7,7.6,2,15.2,3.7,22.5c1.7,7.4,3.6,14.6,5.7,21.7l3.1,10.6c1,3.5,2,7,2.8,10.4c3.2,13.8,4.9,27.9,4.6,42
		c-0.3,14-2.1,28-6.1,41.3c-2,6.6-4.5,13-7.6,19.1c-3,6.1-6.5,12-10.6,17.3c-4.1,5.4-8.7,10.2-13.9,14.6
		c-5.1,4.4-10.6,8.1-16.6,11.2c-11.9,6.3-25.5,10-39.4,12.3c-13.9,2.3-28.4,3.2-42.8,3.3c-14.3,0-28.6-1.1-42.2-4.1
		c-13.6-3-26.7-7.8-37.9-15.4c-11.4-7.5-21.2-17.4-28.7-28.8c-7.6-11.3-12.7-24.3-14.5-37.8c-0.4-3.4-0.7-6.8-0.8-10.2
		c-0.1-3.5,0-7,0.2-10.5c0.4-7.1,1.2-14.3,2-21.6c0.8-7.3,1.8-14.8,2.1-22.4c0.2-3.8,0.2-7.6,0.2-11.4c0-3.8-0.2-7.5-0.4-11.3
		c-0.2-3.8-0.6-7.5-1-11.3c-0.5-3.7-1.2-7.5-2-11.1c-0.8-3.7-1.8-7.3-2.8-10.9c-1.1-3.6-2.5-7.1-3.9-10.5l-1.4,0.5
		c1.7,7.2,2.9,14.4,3.4,21.6c0.2,3.6,0.4,7.3,0.4,10.9c0.1,3.6,0,7.2-0.2,10.9c-0.2,3.6-0.4,7.2-0.8,10.9c-0.3,3.6-0.8,7.2-1.3,10.8
		c-1.1,7.1-2.4,14.3-3.9,21.6c-1.4,7.3-2.7,14.7-3.6,22.3c-0.8,7.6-1.3,15.5-0.5,23.5c1.4,15.9,6.9,31.4,15.2,44.9
		c8.5,13.5,19.8,25.1,32.9,34.1c13.3,9,28.5,14.6,43.6,18c15.2,3.4,30.6,4.6,45.8,4.6c15.1,0.1,30.3-0.4,45.6-2.7
		c7.6-1.1,15.3-2.7,22.9-4.8c7.6-2.1,15.1-4.8,22.4-8.4c6.1-3,12-6.7,17.5-10.9c3.3-0.6,6.6-1.2,10-1.9c8.9-2,17.7-5,26.5-8.5
		c4.4-1.8,8.8-3.8,13-6c4.2-2.4,8.3-4.9,12.2-7.7c7.9-5.5,15-12.1,21.3-19.4c3.2-3.6,6.1-7.5,8.9-11.4c2.7-4,5.2-8.1,7.5-12.4
		c4.5-8.6,8-17.7,10.1-27.2C460.5,364.5,461.1,354.8,460.6,345.1z"/>
</g>
<g id="Earth_x5F_Coin" class="st1">
	<g class="st2">
		<g>
			<path class="st3" d="M250,38.5C133.2,38.5,38.5,133.2,38.5,250c0,116.8,94.7,211.5,211.5,211.5c116.8,0,211.4-94.7,211.4-211.5
				C461.4,133.2,366.8,38.5,250,38.5z M325,324.9H175V175H325L325,324.9L325,324.9z"/>
		</g>
		<g>
			<path class="st3" d="M316.3,316.3H183.7V183.7h132.6L316.3,316.3L316.3,316.3z M205,295h90v-90h-90V295z"/>
		</g>
		<g>
			<path class="st3" d="M250,25.8c123.8,0,224.2,100.4,224.2,224.2S373.8,474.2,250,474.2S25.8,373.8,25.8,250S126.2,25.8,250,25.8
				 M250,4.5C114.6,4.5,4.5,114.6,4.5,250S114.6,495.5,250,495.5S495.5,385.4,495.5,250S385.4,4.5,250,4.5L250,4.5z"/>
		</g>
	</g>
</g>
<g id="Fire_x5F_Coin" class="st1">
	<g class="st2">
		<g>
			<path class="st4" d="M250,492.7C116.2,492.7,7.3,383.8,7.3,250S116.2,7.3,250,7.3S492.7,116.2,492.7,250S383.8,492.7,250,492.7z
				 M250,28.7C127.9,28.7,28.7,128,28.7,250S127.9,471.3,250,471.3S471.3,372,471.3,250S372,28.7,250,28.7z"/>
		</g>
		<path class="st4" d="M409.5,291.6c0,0,1.5-38.9-31.9-86.3s-34.2-84.7-34.2-84.7s-17.9,59.1,4.7,99.5
			c19.8,35.5,19.3,91.6-17.2,116.4c-23.9,16.2-59,6.4-69.9-20.8c-7.7-19.2-0.7-44.3,19.8-51.9c9.5-3.5,29.6-5.2,37.8,3
			c0,0,0.8-52.8-32.6-117.3c-33.4-64.5-36.2-84.7-36.2-84.7c-7.3,25.3-15.3,50.5-28.1,73.6c-20.7,37.5-42.6,73.3-38.7,117.9
			c3,34.6,18,60,40.8,86c0,0-52.3,2.2-77.3-46.5c-5.6-13.6-7.4-29.2-4.3-46.1c2.2-12.2,5.9-23.2,10.2-34c7.9-15.3,14.4-30.1,18.7-44
			c0.2-0.5,0.3-1.1,0.5-1.6c0.5-1.6,0.9-3.2,1.3-4.8c0,0,0-0.1,0-0.1c3.6-14.2,4.1-28.9-0.6-43.7c0,0-10.2,29.3-33.3,63.2
			c-4.9,7.2-9.7,14.5-14.3,22c-2.9,4.8-5.8,9.6-8.5,14.5c-0.3,0.5-0.6,1.1-0.9,1.6c-6.1,10.9-11.6,22.1-16.1,33.8
			c-6.2,16.1-9.6,33.8-9.3,51.3c-0.1,8.2,0.9,16.3,2.7,24.2c0,0.1,0,0.2,0.1,0.4c2.5,11.3,6.8,22.2,13.2,32.2
			c0.1,0.2,0.2,0.3,0.3,0.5c6.9,11.4,15.6,21.8,25.8,30.7c15.2,13.4,33.3,24,52.9,29.5c11.9,4.4,24.4,7.4,37.1,9
			c1.3,0.5,2.1,1,2.1,1.4c0-0.4,0-0.7,0-1.1c6.6,0.7,13.2,1.1,19.9,1.1c74.6,0,110.3-26.4,110.3-26.4S415.7,368.5,409.5,291.6z"/>
	</g>
</g>
<g id="Water_x5F_Coin" class="st1">
	<g class="st2">
		<circle class="st5" cx="250" cy="250" r="238.6"/>
		<circle class="st6" cx="250" cy="250" r="220.1"/>
		<g>
			<path class="st7" d="M447.1,250c0,51-19.3,97.4-51.1,132.4c-36.1,39.8-88.1,64.7-146,64.7c-108.9,0-197.1-88.2-197.1-197.1
				c0-108.9,88.2-197.1,197.1-197.1c54.3,0,103.4,21.9,139,57.4C424.9,146,447.1,195.4,447.1,250z"/>
			<path class="st8" d="M447.1,250c0,1.4,0,2.7-0.1,4.1c-0.3,13.2-1.8,26-4.5,38.4c-0.9,4.2-2,8.4-3.2,12.5
				c-4.4,15.2-10.6,29.6-18.3,43c-2.3,4.1-4.8,8.1-7.5,12h0c-5.3,7.9-11.2,15.4-17.5,22.4c-25.2,16.6-55.4,26.2-87.8,26.2
				c-31.8,0-61.4-9.3-86.4-25.3c-4.1-2.6-8.1-5.5-12-8.5c-18.5-14.4-33.7-32.8-44.4-53.9c-3.3-6.5-6.1-13.2-8.5-20.2
				c-5.6-16-8.6-33.2-8.7-51.1c0-0.4,0-0.8,0-1.1c0-4.1,0.1-8.2,0.5-12.2c6.2-82.7,75.3-147.9,159.6-147.9c29.5,0,57,7.9,80.8,21.8
				c33.5,33.3,55.1,78.7,57.8,129C447,242.8,447.1,246.4,447.1,250z"/>
			<g>
				<path class="st9" d="M447.1,250c0,1.4,0,2.7-0.1,4.1c-10.3-6.2-24.5-12.4-38.1-9.8c-9.6,1.8-18.1,6.2-27.2,10.9
					c-6.5,3.4-13.3,6.8-20.6,9.4c-18.8,6.6-37.1,5-54.3-4.5c-1.9-1.1-3.8-2.2-5.7-3.3c-10.6-6.1-20.6-11.9-32.2-11.3
					c-11.5,0.6-22.1,6.2-33.2,12.1c-12.5,6.6-25.4,13.5-40.4,13.5c-3.4,0-6.8-0.3-10.3-1.1c-10-2.1-17.2-7.4-24.2-12.6
					c-2.1-1.5-4.2-3.1-6.4-4.6c-1.9-1.3-4-2.4-6.2-3.2c0-0.4,0-0.8,0-1.1c0-4.1,0.1-8.2,0.5-12.2c4.6,1.2,9,3.2,12.9,5.9
					c2.4,1.6,4.7,3.3,6.8,4.9c6.4,4.7,11.9,8.8,19.2,10.3c15.1,3.2,28.2-3.8,42.1-11.1c11.9-6.3,24.2-12.8,38.5-13.6
					c15.4-0.8,27.6,6.2,39.3,13c1.8,1.1,3.7,2.1,5.5,3.2c14.1,7.8,28.4,9,43.9,3.6c6.5-2.3,12.6-5.4,19-8.7
					c9.4-4.9,19.2-9.9,30.6-12.1c14.4-2.7,28.6,1.6,40.3,7.5C447,242.8,447.1,246.4,447.1,250z"/>
			</g>
			<g>
				<path class="st9" d="M442.5,292.5c-0.9,4.2-2,8.4-3.2,12.5c-7.5-2.5-15.2-4.2-22.8-4.5c-12.7-0.6-23.8,6-35.7,12.8
					c-3.8,2.2-7.7,4.4-11.6,6.5c-19.9,10.1-41.3,9.6-65.2-1.5c-3.9-1.8-7.9-4.3-11.7-6.7c-6.5-4.1-13.1-8.2-19.1-8.9
					c-12.6-1.3-24,5.5-36.2,12.6c-12.4,7.3-25.2,14.9-40.6,14.9c-0.8,0-1.5,0-2.3-0.1c-10.6-0.5-20-4.4-28.7-9.2
					c-3.3-6.5-6.1-13.2-8.5-20.2c1,0.6,1.9,1.2,2.9,1.8c11,7,22.4,14.2,35,14.8c12.6,0.6,23.8-6,35.8-13.1
					c13.4-7.9,27.3-16.1,44-14.4c9,0.9,17.3,6.1,24.6,10.8c3.6,2.3,7,4.4,10.2,5.9c20.5,9.5,37.6,10.1,54,1.7
					c3.6-1.9,7.2-3.9,11-6.1c12.9-7.5,26.2-15.1,42.6-14.5C425.7,288,434.2,289.8,442.5,292.5z"/>
			</g>
			<g>
				<path class="st9" d="M421.1,348c-2.3,4.1-4.8,8.1-7.5,12h0c-1.6-0.1-3.1,0-4.6,0.1c-8.1,0.7-16.2,5.7-24.2,10.6
					c-3.9,2.4-8,4.9-12.1,6.9c-15.3,7.5-31.3,9.7-47.5,6.5c-9.6-1.9-18.3-6-26.7-10.1c-11.1-5.4-21.6-10.4-33.1-9.5
					c-9.6,0.8-18.6,3.3-25.3,7c-2.8,1.6-5.7,3.5-8.6,5.6c-3,2-6.1,4.2-9.6,6.2c-4.1-2.6-8.1-5.5-12-8.5c4.3-1.4,8.8-4.4,14.2-8.2
					c3.1-2.2,6.3-4.4,9.6-6.3c8.3-4.7,19.1-7.7,30.6-8.6c15-1.2,27.6,4.9,39.7,10.7c8,3.9,15.5,7.5,23.5,9.1
					c13.5,2.6,26.7,0.8,39.5-5.5c3.6-1.8,7.2-4,11-6.3c9.2-5.6,18.7-11.4,29.8-12.4C412.4,346.9,416.8,347.2,421.1,348z"/>
			</g>
		</g>
	</g>
</g>
<g id="Air_x5F_Coin" class="st1">
	<g class="st2">
		<circle class="st10" cx="250" cy="248.2" r="241.3"/>
		<g>
			<ellipse class="st11" cx="250" cy="248.4" rx="218.7" ry="218.5"/>
			<path class="st12" d="M468.7,248.2c0,83.3-54.7,181.6-139.7,202.6c-59.9,14.8-133.8-12.6-175.6-56.9
				c-41.8-44.3-57.7-117.4-40.6-175.6c17.3-58.9,100.3-110,151.7-56.5c49.4,51.5,2.7,92.8,2.7,92.8c-0.2-22-6.2-49.4-31.6-53.8
				c-35-6-55.7,31.5-49.9,61.7c5.6,28.9,30.8,52.4,58.9,59.4c35.9,8.9,78.3-1.7,104.6-28.1c58-58.2,29.1-154.1-23.8-204.9
				c-54.6-52.4-129.8-43.6-199.9-20.4C160.9,44,203.7,29.6,250,29.6C370.8,29.6,468.7,127.4,468.7,248.2z"/>
		</g>
	</g>
</g>
<g id="White_Lotus" class="st1">
	<g class="st2">
		<circle class="st13" cx="250" cy="250" r="245.4"/>
		<circle class="st14" cx="250" cy="250" r="230.1"/>
		<circle class="st13" cx="250" cy="250" r="222.1"/>
		<circle class="st14" cx="250" cy="250" r="206.1"/>
		<path class="st13" d="M436.2,290.3c-2.9-15-7.1-28.3-6.6-43.6c0.6-16.1,15.6-51.3,1.4-64.4c-2.5-2.3-5.5-3.3-8.8-3.4
			c0,0,0,0,0-0.1c1.1-1.2,2-2.5,2.6-4c4.6-11.7-6.7-22.4-14.9-28c-12.6-8.6-25.1-15-35.4-26.2c-10.9-11.8-25.2-47.3-44.6-46.5
			c-3.4,0.1-6.2,1.6-8.6,3.8c0,0,0,0,0-0.1c0-1.6-0.4-3.2-1-4.7c-5-11.5-20.6-11.1-30.4-9.2c-15,2.9-28.3,7.1-43.6,6.6
			c-16.1-0.6-51.3-15.6-64.4-1.3c-2.3,2.5-3.3,5.5-3.4,8.8c0,0,0,0-0.1-0.1c-1.2-1.1-2.5-2-4-2.6c-11.7-4.6-22.4,6.7-28,14.9
			c-8.6,12.6-15,25.1-26.2,35.4c-11.8,10.9-47.3,25.2-46.5,44.6c0.1,3.4,1.6,6.2,3.8,8.6c0,0,0,0-0.1,0c-1.6,0.1-3.2,0.4-4.7,1
			c-11.5,5-11.1,20.6-9.2,30.4c2.9,15,7.1,28.3,6.6,43.6c-0.6,16.1-15.6,51.3-1.3,64.4c2.5,2.3,5.5,3.3,8.8,3.4c0,0,0,0-0.1,0
			c-1.1,1.2-2,2.5-2.6,4c-4.6,11.7,6.7,22.4,14.9,28c12.6,8.6,25.1,15,35.4,26.2c10.9,11.8,25.2,47.4,44.6,46.5
			c3.4-0.1,6.2-1.5,8.6-3.8c0,0,0,0,0,0.1c0.1,1.6,0.4,3.2,1,4.7c5,11.5,20.6,11.1,30.4,9.2c15-2.9,28.3-7.1,43.6-6.6
			c16.1,0.6,51.3,15.6,64.4,1.4c2.3-2.5,3.3-5.5,3.4-8.8c0,0,0,0,0,0c1.2,1.1,2.5,2,4,2.6c11.7,4.6,22.4-6.7,28-14.9
			c8.6-12.6,15-25.1,26.2-35.4c11.8-10.9,47.4-25.2,46.5-44.6c-0.1-3.4-1.5-6.2-3.8-8.6c0,0,0,0,0.1,0c1.6,0,3.2-0.4,4.7-1
			C438.5,315.7,438.1,300.1,436.2,290.3z M234.7,282.5c0.2-0.4,0.3-0.9,0.5-1.3l-18.8-18.8c0.4-0.2,0.9-0.4,1.3-0.6v-26.6
			c0.4,0.2,0.9,0.3,1.3,0.5l18.8-18.8c0.2,0.4,0.4,0.9,0.6,1.3H265c-0.2,0.4-0.3,0.9-0.5,1.3l18.8,18.8c-0.4,0.2-0.9,0.4-1.3,0.6
			v26.6c-0.4-0.2-0.9-0.3-1.3-0.5l-18.8,18.8c-0.2-0.4-0.4-0.9-0.6-1.3H234.7z"/>
		<g>
			<path class="st14" d="M294.2,93.2c-15.5-8.4-43.5,18.5-43.5,18.5c-6.8-6.5-13.4-11.4-21.9-15.4c-6.8-3.2-19.2-7.2-25-0.1
				c-3.3,3.9-3,10.4-2.6,15.2c1.5,17.4,8.6,35.3,15.7,51.1c3.3,7.4,6.8,15.3,13,20.8c2.6,2.3,6.2,2.9,9.5,2c3.3-0.9,6.1-3.3,8.1-6
				c0.3-0.4,3.4-4.6,3.4-4.6c2.4,4.8,7.9,10.9,13.4,11.7c5.8,0.9,9.7-6,12.3-10.2c2.9-4.8,5-10,7.1-15.3c4.1-10.4,8.1-20.8,11-31.7
				c2-7.6,3.8-15.5,3.9-23.4C298.4,101.8,298.4,95.4,294.2,93.2z"/>
			<path class="st14" d="M169.8,107.8c-16.9,5-17.7,43.9-17.7,43.9c-9.4,0.2-17.5,1.4-26.4,4.6c-7.1,2.5-18.6,8.5-17.8,17.6
				c0.5,5.1,5.2,9.5,8.9,12.6c13.4,11.3,31,18.9,47.2,25.1c7.6,2.9,15.6,6,23.9,5.5c3.4-0.2,6.5-2.4,8.1-5.3c1.6-3,2-6.6,1.4-10
				c-0.1-0.5-0.9-5.7-0.9-5.7c5,1.7,13.3,2.1,17.8-1.2c4.7-3.5,2.6-11.1,1.4-15.9c-1.3-5.5-3.5-10.7-5.8-15.8
				c-4.5-10.3-9-20.4-14.7-30.1c-3.9-6.8-8.3-13.6-13.7-19.3C178.8,110.9,174.2,106.4,169.8,107.8z"/>
			<path class="st14" d="M92.1,206.1c-8.4,15.4,18.5,43.5,18.5,43.5c-6.5,6.8-11.4,13.4-15.4,21.9c-3.2,6.8-7.2,19.2-0.1,25
				c3.9,3.3,10.4,3,15.2,2.6c17.4-1.5,35.3-8.6,51.1-15.7c7.4-3.3,15.3-6.8,20.8-13c2.3-2.5,2.9-6.2,2-9.5c-0.9-3.3-3.3-6.1-6-8.1
				c-0.4-0.3-4.6-3.4-4.6-3.4c4.8-2.4,10.9-7.9,11.7-13.4c0.9-5.8-6-9.7-10.2-12.3c-4.8-2.9-10-5-15.3-7.1
				c-10.4-4.1-20.8-8.1-31.7-10.9c-7.6-2-15.5-3.8-23.4-3.9C100.7,201.9,94.3,202,92.1,206.1z"/>
			<path class="st14" d="M106.7,330.6c5,16.9,43.9,17.7,43.9,17.7c0.2,9.4,1.4,17.5,4.6,26.4c2.5,7.1,8.5,18.6,17.6,17.8
				c5.1-0.5,9.5-5.2,12.6-8.9c11.3-13.4,18.9-31,25.1-47.2c2.9-7.6,6-15.6,5.5-23.9c-0.2-3.4-2.4-6.5-5.3-8.1c-3-1.6-6.6-2-10-1.4
				c-0.5,0.1-5.7,0.9-5.7,0.9c1.7-5,2.1-13.3-1.2-17.8c-3.5-4.7-11.1-2.6-15.9-1.5c-5.5,1.3-10.7,3.5-15.8,5.8
				c-10.3,4.5-20.4,9-30.1,14.7c-6.8,4-13.6,8.3-19.3,13.7C109.8,321.5,105.3,326.1,106.7,330.6z"/>
			<path class="st14" d="M205,408.3c15.4,8.4,43.5-18.5,43.5-18.5c6.8,6.5,13.4,11.4,21.9,15.4c6.8,3.2,19.2,7.1,25,0.1
				c3.3-4,3-10.4,2.6-15.2c-1.5-17.4-8.6-35.3-15.7-51.1c-3.3-7.4-6.8-15.3-13-20.8c-2.5-2.3-6.2-2.9-9.5-2c-3.3,1-6.1,3.3-8.1,6
				c-0.3,0.4-3.4,4.6-3.4,4.6c-2.4-4.8-7.9-10.9-13.4-11.7c-5.8-0.9-9.7,6-12.3,10.2c-2.9,4.8-5,10-7.1,15.3
				c-4.1,10.5-8.1,20.8-10.9,31.7c-2,7.6-3.8,15.5-3.9,23.4C200.9,399.6,200.9,406,205,408.3z"/>
			<path class="st14" d="M329.5,393.6c16.9-5,17.7-43.9,17.7-43.9c9.4-0.2,17.5-1.4,26.4-4.6c7.1-2.5,18.6-8.5,17.8-17.6
				c-0.5-5.1-5.2-9.5-8.9-12.6c-13.4-11.3-31-18.9-47.2-25c-7.6-2.9-15.6-6-23.9-5.5c-3.4,0.2-6.5,2.4-8.1,5.3c-1.6,3-2,6.6-1.4,10
				c0.1,0.5,0.9,5.7,0.9,5.7c-5-1.7-13.3-2.1-17.8,1.2c-4.7,3.5-2.6,11.1-1.5,15.9c1.3,5.5,3.5,10.7,5.8,15.8
				c4.5,10.3,9,20.4,14.7,30.1c4,6.8,8.3,13.6,13.7,19.3C320.4,390.5,325,395,329.5,393.6z"/>
			<path class="st14" d="M407.2,295.3c8.4-15.5-18.5-43.5-18.5-43.5c6.5-6.8,11.4-13.4,15.4-21.9c3.2-6.8,7.1-19.2,0.1-25
				c-4-3.3-10.4-3-15.2-2.6c-17.4,1.5-35.3,8.6-51.1,15.7c-7.4,3.3-15.3,6.8-20.8,13c-2.3,2.6-2.9,6.2-2,9.5c1,3.3,3.3,6.1,6,8.1
				c0.4,0.3,4.6,3.4,4.6,3.4c-4.8,2.4-10.9,7.9-11.7,13.4c-0.9,5.8,6,9.7,10.2,12.3c4.8,2.9,10,5,15.3,7.1
				c10.5,4.1,20.8,8.1,31.7,11c7.6,2,15.5,3.8,23.4,3.9C398.5,299.5,405,299.4,407.2,295.3z"/>
			<path class="st14" d="M392.6,170.8c-5-16.9-43.9-17.7-43.9-17.7c-0.2-9.4-1.4-17.5-4.6-26.4c-2.5-7.1-8.5-18.6-17.6-17.8
				c-5.1,0.5-9.5,5.2-12.6,8.9c-11.3,13.4-18.9,31-25,47.2c-2.9,7.6-6,15.6-5.5,23.9c0.2,3.4,2.4,6.5,5.3,8.1c3,1.6,6.6,2,10,1.4
				c0.5-0.1,5.7-0.9,5.7-0.9c-1.7,5-2.1,13.3,1.2,17.8c3.5,4.7,11.1,2.6,15.9,1.4c5.5-1.3,10.7-3.5,15.8-5.8
				c10.3-4.5,20.4-9,30.1-14.7c6.8-3.9,13.6-8.3,19.3-13.7C389.4,179.9,393.9,175.3,392.6,170.8z"/>
		</g>
		<circle class="st14" cx="250" cy="250" r="57.8"/>
		<g>
			<circle class="st15" cx="249.6" cy="250.7" r="14.9"/>
			<circle class="st15" cx="249.6" cy="215" r="14.9"/>
			<circle class="st15" cx="224.4" cy="225.4" r="14.9"/>
			<circle class="st15" cx="213.9" cy="250.7" r="14.9"/>
			<circle class="st15" cx="224.4" cy="275.9" r="14.9"/>
			<circle class="st15" cx="249.6" cy="286.4" r="14.9"/>
			<circle class="st15" cx="274.9" cy="275.9" r="14.9"/>
			<circle class="st15" cx="285.4" cy="250.7" r="14.9"/>
			<circle class="st15" cx="274.9" cy="225.4" r="14.9"/>
		</g>
	</g>
</g>
<g id="Appa" class="st1">
	<g class="st2">
		<g>
			<g>
				<g>
					<g>
						<path class="st16" d="M53.6,227.5c-0.2,2.2-0.5,4.4-0.6,6.6l10.7-5.2c0.2-2.2,0.6-4.5,0.9-6.7L53.6,227.5z M62.7,240.7H52.5
							c-0.2,3.1-0.2,6.2-0.2,9.3c0,1.1,0,2.2,0,3.2l10.3,5c-0.1-2.7-0.2-5.4-0.2-8.2C62.5,246.9,62.5,243.8,62.7,240.7z M234.9,53.6
							l-5.1,10.6c5.9-0.6,11.9-1,17.9-1V53.1C243.4,53.1,239.1,53.3,234.9,53.6z M54.8,218.9l11.3-5.7
							c15.3-76.3,77.2-136,154.7-147.9l5.5-11C138.7,64.6,68.5,132.5,54.8,218.9z M268.7,54l5.4,10.8
							c80.8,10.8,145.3,73.4,159.1,153.2l11.1,5.6C432.3,133.8,359.5,63,268.7,54z M445.3,232.1l-10.8-5.2c0.3,2.2,0.5,4.4,0.7,6.6
							l10.6,5.1C445.7,236.4,445.5,234.2,445.3,232.1z M434.6,273.1c-10.2,81.9-73.6,147.6-154.5,161.1l-5.5,11.1
							c90.9-11.7,162.6-85.6,170.8-177.6L434.6,273.1z M264.7,436.1l-5.1,10.5c2.2-0.1,4.4-0.3,6.5-0.5l5.2-10.7
							C269.1,435.7,266.9,435.9,264.7,436.1z M249.2,436.8c-4.6,0-9.2-0.2-13.7-0.5l5.1,10.5c2.9,0.1,5.8,0.2,8.7,0.2
							c1.3,0,2.7,0,4,0v-10.1C251.9,436.8,250.6,436.8,249.2,436.8z M63.2,266.9l-10.6-5.3c5.7,97.5,82.6,176.1,179.4,184.5
							l-5.4-10.8C139.8,424.9,71.1,354.5,63.2,266.9z M446.1,245.8h-10.1c0,1.4,0,2.8,0,4.2c0,4.8-0.2,9.5-0.5,14.2l10.5-5
							c0.1-3,0.2-6.1,0.2-9.2C446.1,248.6,446.1,247.2,446.1,245.8z M260.4,53.4c-2.1-0.1-4.3-0.2-6.4-0.2l5,10.3
							c2.2,0.1,4.3,0.3,6.5,0.5L260.4,53.4z"/>
					</g>
				</g>
				<g>
					<g>
						<path class="st16" d="M240.7,71.7c-2.7,0.1-5.5,0.3-8.2,0.6l0,0.1h8.2L240.7,71.7z M249.3,427.7h-8.2l0,0.7
							c2.7,0.1,5.4,0.2,8.1,0.2h0.1L249.3,427.7z M265.8,427.7h-8.2l0,0.7c2.8-0.1,5.5-0.3,8.2-0.6V427.7z M231.6,427.7
							c0.4,0,0.9,0.1,1.3,0.1l0-0.1H231.6z M209.1,420.9l-0.7,3c2.7,0.6,5.4,1.2,8.1,1.7l0.6-3C214.4,422.1,211.8,421.5,209.1,420.9
							z M297.3,418.8c-2.6,0.7-5.2,1.4-7.9,2l0.7,3c2.7-0.6,5.4-1.3,8-2.1L297.3,418.8z M193.6,416.5l-1,2.9
							c2.6,0.9,5.2,1.7,7.9,2.4l0.8-2.9C198.7,418.1,196.1,417.3,193.6,416.5z M312.7,413.7c-2.5,1-5.1,1.9-7.6,2.8l1,2.9
							c2.6-0.9,5.2-1.8,7.8-2.8L312.7,413.7z M178.4,410.6l-1.2,2.8c2.5,1.1,5.1,2.2,7.6,3.2l1.1-2.8
							C183.4,412.8,180.9,411.7,178.4,410.6z M327.5,407.1c-2.4,1.2-4.9,2.4-7.3,3.5l1.2,2.8c2.5-1.1,5-2.3,7.4-3.5L327.5,407.1z
							 M163.9,403.4l-1.5,2.7c2.4,1.3,4.9,2.6,7.3,3.9l1.4-2.7C168.6,406,166.2,404.7,163.9,403.4z M341.6,399.2
							c-2.3,1.4-4.6,2.8-7,4.1l1.5,2.7c2.4-1.3,4.8-2.7,7.1-4.2L341.6,399.2z M150.1,394.8l-1.7,2.5c2.2,1.5,4.6,3.1,6.9,4.5
							l1.6-2.6C154.6,397.8,152.3,396.4,150.1,394.8z M355,390.1c-2.1,1.6-4.4,3.2-6.6,4.7l1.7,2.5c2.3-1.5,4.5-3.2,6.7-4.8
							L355,390.1z M137.1,385l-1.9,2.4c2.1,1.7,4.3,3.5,6.5,5.1l1.8-2.4C141.4,388.5,139.2,386.8,137.1,385z M367.4,379.7
							c-2,1.8-4,3.6-6.1,5.3l1.9,2.4c2.1-1.8,4.2-3.6,6.2-5.4L367.4,379.7z M125.2,374.1l-2.2,2.1c1.9,1.9,3.9,3.9,6,5.7l2.1-2.2
							C129,377.9,127.1,376,125.2,374.1z M378.9,368.3c-1.8,2-3.7,4-5.6,5.9l2.1,2.1c1.9-1.9,3.9-3.9,5.7-6L378.9,368.3z
							 M114.2,362.2l-2.3,2c1.8,2.1,3.6,4.2,5.4,6.2l2.2-2C117.8,366.3,116,364.2,114.2,362.2z M389.3,355.8c-1.6,2.1-3.3,4.3-5,6.4
							l2.4,2c1.8-2.1,3.5-4.3,5.1-6.5L389.3,355.8z M104.5,349.2L102,351c1.6,2.2,3.2,4.5,4.8,6.7l2.4-1.8
							C107.6,353.7,106,351.5,104.5,349.2z M398.5,342.4c-1.4,2.3-2.9,4.6-4.4,6.8l2.5,1.7c1.5-2.2,3.1-4.6,4.5-6.9L398.5,342.4z
							 M95.9,335.5l-2.7,1.5c1.3,2.4,2.7,4.8,4.2,7.1l2.6-1.6C98.6,340.2,97.2,337.8,95.9,335.5z M406.4,328.2
							c-1.2,2.4-2.5,4.8-3.8,7.2l2.6,1.5c1.3-2.4,2.6-4.8,3.9-7.3L406.4,328.2z M88.7,321l-2.8,1.2c1.1,2.5,2.3,5,3.5,7.5l2.7-1.4
							C90.9,325.9,89.8,323.5,88.7,321z M412.9,313.4c-1,2.5-2,5-3.1,7.5l2.8,1.2c1.1-2.5,2.2-5.1,3.2-7.6L412.9,313.4z M82.8,305.9
							l-2.9,1c0.9,2.6,1.8,5.2,2.8,7.8l2.8-1.1C84.6,311.1,83.7,308.5,82.8,305.9z M418.1,298c-0.7,2.6-1.5,5.2-2.4,7.7l2.9,1
							c0.9-2.6,1.7-5.2,2.4-7.9L418.1,298z M78.4,290.4l-3,0.7c0.6,2.7,1.3,5.4,2.1,8l2.9-0.8C79.7,295.6,79,293,78.4,290.4z
							 M421.8,282.2c-0.5,2.6-1,5.3-1.7,7.9l3,0.7c0.6-2.7,1.2-5.4,1.7-8.1L421.8,282.2z M75.4,274.4l-3,0.4
							c0.4,2.7,0.8,5.5,1.3,8.1l3-0.6C76.2,279.8,75.8,277.1,75.4,274.4z M70.9,258.4c0.1,1.3,0.1,2.6,0.2,3.8l0.5,0.2v-4.1
							L70.9,258.4z M70.9,241.9c-0.1,2.7-0.2,5.4-0.2,8v0.2h0.9V242L70.9,241.9z M71.4,233.7l0.2,0v-1.6
							C71.5,232.6,71.5,233.2,71.4,233.7z M420.9,200.8l-2.9,0.8c0.7,2.6,1.4,5.2,2,7.8l3-0.7C422.4,206.1,421.6,203.4,420.9,200.8z
							 M79.8,193.4c-0.9,2.6-1.7,5.2-2.4,7.9l2.9,0.8c0.7-2.6,1.5-5.2,2.4-7.7L79.8,193.4z M415.6,185.1l-2.8,1.1
							c1,2.5,1.9,5.1,2.8,7.6l2.9-1C417.6,190.3,416.6,187.7,415.6,185.1z M85.8,178c-1.1,2.5-2.2,5.1-3.2,7.6l2.8,1.1
							c1-2.5,2-5,3.1-7.5L85.8,178z M409,170.1l-2.7,1.4c1.2,2.4,2.4,4.9,3.5,7.3l2.8-1.2C411.4,175.1,410.2,172.6,409,170.1z
							 M93.1,163.2c-1.3,2.4-2.6,4.9-3.8,7.3l2.7,1.4c1.2-2.4,2.5-4.8,3.8-7.2L93.1,163.2z M400.9,155.8l-2.6,1.6
							c1.4,2.3,2.8,4.6,4.1,7l2.7-1.5C403.8,160.4,402.4,158.1,400.9,155.8z M101.8,149.2c-1.5,2.2-3.1,4.6-4.5,6.9l2.6,1.6
							c1.4-2.3,2.9-4.6,4.4-6.8L101.8,149.2z M391.6,142.2l-2.4,1.8c1.6,2.1,3.2,4.4,4.8,6.6l2.5-1.7
							C394.8,146.6,393.2,144.4,391.6,142.2z M111.8,136.1c-1.8,2.1-3.5,4.3-5.1,6.5l2.4,1.8c1.6-2.1,3.3-4.3,5-6.4L111.8,136.1z
							 M381,129.5l-2.2,2.1c1.8,2,3.6,4,5.3,6.1l2.3-1.9C384.7,133.6,382.9,131.5,381,129.5z M122.9,123.9c-1.9,1.9-3.8,3.9-5.7,6
							l2.2,2c1.8-2,3.7-4,5.6-5.9L122.9,123.9z M369.3,117.9l-2,2.2c2,1.8,4,3.7,5.9,5.6l2.1-2.2
							C373.4,121.6,371.4,119.7,369.3,117.9z M135,112.7c-2.1,1.8-4.2,3.6-6.2,5.4l2.1,2.2c2-1.8,4-3.6,6.1-5.3L135,112.7z
							 M356.6,107.4l-1.8,2.4c2.1,1.6,4.3,3.3,6.4,5l1.9-2.3C361,110.7,358.8,109,356.6,107.4z M148.2,102.8
							c-2.2,1.6-4.5,3.2-6.7,4.8l1.9,2.4c2.1-1.6,4.4-3.2,6.6-4.7L148.2,102.8z M343,98l-1.6,2.6c2.3,1.4,4.6,2.9,6.8,4.4l1.7-2.5
							C347.7,101,345.3,99.5,343,98z M162.1,94.1c-2.4,1.3-4.8,2.7-7.1,4.2l1.6,2.6c2.3-1.4,4.6-2.8,7-4.1L162.1,94.1z M328.6,90
							l-1.4,2.7c2.4,1.2,4.8,2.5,7.2,3.8l1.5-2.7C333.5,92.5,331,91.2,328.6,90z M176.9,86.7c-2.5,1.1-5,2.3-7.4,3.5l1.4,2.7
							c2.4-1.2,4.9-2.4,7.3-3.4L176.9,86.7z M313.5,83.3l-1.1,2.8c2.5,1,5,2,7.5,3.1l1.2-2.8C318.6,85.4,316,84.3,313.5,83.3z
							 M192.2,80.7c-2.6,0.9-5.2,1.8-7.8,2.8l1.1,2.8c2.5-1,5.1-1.9,7.6-2.8L192.2,80.7z M297.8,78.1l-0.8,2.9
							c2.6,0.7,5.2,1.5,7.7,2.4l1-2.9C303.1,79.7,300.4,78.9,297.8,78.1z M208.1,76.2c-2.7,0.6-5.4,1.3-8,2.1l0.8,2.9
							c2.6-0.7,5.2-1.4,7.8-2.1L208.1,76.2z M281.8,74.4l-0.6,3c2.6,0.5,5.3,1.1,7.9,1.7l0.7-3C287.1,75.5,284.4,74.9,281.8,74.4z
							 M216.1,74.5L216.1,74.5L216.1,74.5C216.2,74.5,216.2,74.5,216.1,74.5z M265.4,72.2l0,0.1h1.5
							C266.4,72.3,265.9,72.2,265.4,72.2z M249.2,71.4h-0.3v0.9h8.2l0-0.7C254.5,71.5,251.9,71.4,249.2,71.4z"/>
					</g>
				</g>
				<g>
					<g>
						<path class="st16" d="M249.2,83.2c-92,0-166.8,74.8-166.8,166.8s74.9,166.8,166.8,166.8c92,0,166.8-74.8,166.8-166.8
							C416.1,158,341.2,83.2,249.2,83.2z M249.2,412.8c-89.8,0-162.8-73-162.8-162.8c0-89.8,73-162.8,162.8-162.8
							C339,87.2,412,160.2,412,250C412,339.8,339,412.8,249.2,412.8z"/>
					</g>
				</g>
				<g>
					<path class="st17" d="M265.5,64l-5.1-10.5L247.7,27l-12.8,26.6l-5.1,10.6l-3.9,8.1h43.7L265.5,64z M247.7,66.7V40.2l6.3,12.9
						l5,10.3l1.5,3.2L247.7,66.7L247.7,66.7z"/>
				</g>
				<g>
					<path class="st16" d="M265.5,64l-5.1-10.5L247.7,27l-12.8,26.6l-5.1,10.6l-3.9,8.1h43.7L265.5,64z M247.7,66.7V40.2l6.3,12.9
						l5,10.3l1.5,3.2L247.7,66.7L247.7,66.7z"/>
				</g>
				<g>
					<path class="st17" d="M231.4,427.7l4.1,8.6l5.1,10.5l12.7,26.3l12.9-26.8l5.2-10.7l3.8-7.8H231.4z M259.6,446.6l-6.4,13.1
						v-26.5h12.9l-1.4,2.8L259.6,446.6z"/>
				</g>
				<g>
					<path class="st16" d="M231.4,427.7l4.1,8.6l5.1,10.5l12.7,26.3l12.9-26.8l5.2-10.7l3.8-7.8H231.4z M259.6,446.6l-6.4,13.1
						v-26.5h12.9l-1.4,2.8L259.6,446.6z"/>
				</g>
				<g>
					<path class="st17" d="M64.5,222.2l-10.9,5.3l-27.4,13.2l26.1,12.6l10.3,5l8.4,4.1l0.5,0.2v-43.7L64.5,222.2z M65.9,240.7H39.5
						l13.5-6.6l10.7-5.2l2.3-1.1L65.9,240.7L65.9,240.7z"/>
				</g>
				<g>
					<path class="st16" d="M64.5,222.2l-10.9,5.3l-27.4,13.2l26.1,12.6l10.3,5l8.4,4.1l0.5,0.2v-43.7L64.5,222.2z M65.9,240.7H39.5
						l13.5-6.6l10.7-5.2l2.3-1.1L65.9,240.7L65.9,240.7z"/>
				</g>
				<g>
					<path class="st17" d="M445.3,232.1l-10.8-5.2l-6.1-2.9v43.7l7-3.4l10.5-5l27.8-13.4L445.3,232.1z M434.1,245.8v-12.9l1.2,0.6
						l10.6,5.1l14.7,7.2H434.1z"/>
				</g>
				<g>
					<path class="st16" d="M445.3,232.1l-10.8-5.2l-6.1-2.9v43.7l7-3.4l10.5-5l27.8-13.4L445.3,232.1z M434.1,245.8v-12.9l1.2,0.6
						l10.6,5.1l14.7,7.2H434.1z"/>
				</g>
			</g>
			<path class="st14" d="M494.8,245.8l-40.9-19.7l-0.5-3.7c-6.1-45.5-27.8-88.3-61-120.5c-33.3-32.2-76.9-52.5-122.8-57l-3.2-0.3
				L247.7,5.9l-18.8,39l-3.8,0.4C134,56,60.2,126.8,45.7,217.5l-0.6,3.9L5.2,240.7L43.3,259l0.2,3.1c2.9,49.3,23.5,96,58.1,131.5
				c34.5,35.5,80.6,57.3,129.6,61.6l3.4,0.3l18.6,38.5l18.9-39.2l3.6-0.5c46.1-5.9,89.4-27.8,121.8-61.4
				c32.5-33.8,52.8-77.9,56.9-124.4l0.3-3.5L494.8,245.8z M402.9,250c0,84.7-68.9,153.6-153.6,153.6S95.6,334.7,95.6,250
				S164.5,96.4,249.2,96.4S402.9,165.3,402.9,250z"/>
		</g>
		<g>
			<g>
				<g>
					<path class="st13" d="M53.6,227.5c-0.2,2.2-0.5,4.4-0.6,6.6l10.7-5.2c0.2-2.2,0.6-4.5,0.9-6.7L53.6,227.5z M62.7,240.7H52.5
						c-0.2,3.1-0.2,6.2-0.2,9.3c0,1.1,0,2.2,0,3.2l10.3,5c-0.1-2.7-0.2-5.4-0.2-8.2C62.5,246.9,62.5,243.8,62.7,240.7z M234.9,53.6
						l-5.1,10.6c5.9-0.6,11.9-1,17.9-1V53.1C243.4,53.1,239.1,53.3,234.9,53.6z M54.8,218.9l11.3-5.7
						c15.3-76.3,77.2-136,154.7-147.9l5.5-11C138.7,64.6,68.5,132.5,54.8,218.9z M268.7,54l5.4,10.8
						c80.8,10.8,145.3,73.4,159.1,153.2l11.1,5.6C432.3,133.8,359.5,63,268.7,54z M445.3,232.1l-10.8-5.2c0.3,2.2,0.5,4.4,0.7,6.6
						l10.6,5.1C445.7,236.4,445.5,234.2,445.3,232.1z M434.6,273.1c-10.2,81.9-73.6,147.6-154.5,161.1l-5.5,11.1
						c90.9-11.7,162.6-85.6,170.8-177.6L434.6,273.1z M264.7,436.1l-5.1,10.5c2.2-0.1,4.4-0.3,6.5-0.5l5.2-10.7
						C269.1,435.7,266.9,435.9,264.7,436.1z M249.2,436.8c-4.6,0-9.2-0.2-13.7-0.5l5.1,10.5c2.9,0.1,5.8,0.2,8.7,0.2
						c1.3,0,2.7,0,4,0v-10.1C251.9,436.8,250.6,436.8,249.2,436.8z M63.2,266.9l-10.6-5.3c5.7,97.5,82.6,176.1,179.4,184.5
						l-5.4-10.8C139.8,424.9,71.1,354.5,63.2,266.9z M446.1,245.8h-10.1c0,1.4,0,2.8,0,4.2c0,4.8-0.2,9.5-0.5,14.2l10.5-5
						c0.1-3,0.2-6.1,0.2-9.2C446.1,248.6,446.1,247.2,446.1,245.8z M260.4,53.4c-2.1-0.1-4.3-0.2-6.4-0.2l5,10.3
						c2.2,0.1,4.3,0.3,6.5,0.5L260.4,53.4z"/>
				</g>
			</g>
			<g>
				<g>
					<path class="st13" d="M240.7,71.7c-2.7,0.1-5.5,0.3-8.2,0.6l0,0.1h8.2L240.7,71.7z M249.3,427.7h-8.2l0,0.7
						c2.7,0.1,5.4,0.2,8.1,0.2h0.1L249.3,427.7z M265.8,427.7h-8.2l0,0.7c2.8-0.1,5.5-0.3,8.2-0.6V427.7z M231.6,427.7
						c0.4,0,0.9,0.1,1.3,0.1l0-0.1H231.6z M209.1,420.9l-0.7,3c2.7,0.6,5.4,1.2,8.1,1.7l0.6-3C214.4,422.1,211.8,421.5,209.1,420.9z
						 M297.3,418.8c-2.6,0.7-5.2,1.4-7.9,2l0.7,3c2.7-0.6,5.4-1.3,8-2.1L297.3,418.8z M193.6,416.5l-1,2.9c2.6,0.9,5.2,1.7,7.9,2.4
						l0.8-2.9C198.7,418.1,196.1,417.3,193.6,416.5z M312.7,413.7c-2.5,1-5.1,1.9-7.6,2.8l1,2.9c2.6-0.9,5.2-1.8,7.8-2.8
						L312.7,413.7z M178.4,410.6l-1.2,2.8c2.5,1.1,5.1,2.2,7.6,3.2l1.1-2.8C183.4,412.8,180.9,411.7,178.4,410.6z M327.5,407.1
						c-2.4,1.2-4.9,2.4-7.3,3.5l1.2,2.8c2.5-1.1,5-2.3,7.4-3.5L327.5,407.1z M163.9,403.4l-1.5,2.7c2.4,1.3,4.9,2.6,7.3,3.9l1.4-2.7
						C168.6,406,166.2,404.7,163.9,403.4z M341.6,399.2c-2.3,1.4-4.6,2.8-7,4.1l1.5,2.7c2.4-1.3,4.8-2.7,7.1-4.2L341.6,399.2z
						 M150.1,394.8l-1.7,2.5c2.2,1.5,4.6,3.1,6.9,4.5l1.6-2.6C154.6,397.8,152.3,396.4,150.1,394.8z M355,390.1
						c-2.1,1.6-4.4,3.2-6.6,4.7l1.7,2.5c2.3-1.5,4.5-3.2,6.7-4.8L355,390.1z M137.1,385l-1.9,2.4c2.1,1.7,4.3,3.5,6.5,5.1l1.8-2.4
						C141.4,388.5,139.2,386.8,137.1,385z M367.4,379.7c-2,1.8-4,3.6-6.1,5.3l1.9,2.4c2.1-1.8,4.2-3.6,6.2-5.4L367.4,379.7z
						 M125.2,374.1l-2.2,2.1c1.9,1.9,3.9,3.9,6,5.7l2.1-2.2C129,377.9,127.1,376,125.2,374.1z M378.9,368.3c-1.8,2-3.7,4-5.6,5.9
						l2.1,2.1c1.9-1.9,3.9-3.9,5.7-6L378.9,368.3z M114.2,362.2l-2.3,2c1.8,2.1,3.6,4.2,5.4,6.2l2.2-2
						C117.8,366.3,116,364.2,114.2,362.2z M389.3,355.8c-1.6,2.1-3.3,4.3-5,6.4l2.4,2c1.8-2.1,3.5-4.3,5.1-6.5L389.3,355.8z
						 M104.5,349.2L102,351c1.6,2.2,3.2,4.5,4.8,6.7l2.4-1.8C107.6,353.7,106,351.5,104.5,349.2z M398.5,342.4
						c-1.4,2.3-2.9,4.6-4.4,6.8l2.5,1.7c1.5-2.2,3.1-4.6,4.5-6.9L398.5,342.4z M95.9,335.5l-2.7,1.5c1.3,2.4,2.7,4.8,4.2,7.1
						l2.6-1.6C98.6,340.2,97.2,337.8,95.9,335.5z M406.4,328.2c-1.2,2.4-2.5,4.8-3.8,7.2l2.6,1.5c1.3-2.4,2.6-4.8,3.9-7.3
						L406.4,328.2z M88.7,321l-2.8,1.2c1.1,2.5,2.3,5,3.5,7.5l2.7-1.4C90.9,325.9,89.8,323.5,88.7,321z M412.9,313.4
						c-1,2.5-2,5-3.1,7.5l2.8,1.2c1.1-2.5,2.2-5.1,3.2-7.6L412.9,313.4z M82.8,305.9l-2.9,1c0.9,2.6,1.8,5.2,2.8,7.8l2.8-1.1
						C84.6,311.1,83.7,308.5,82.8,305.9z M418.1,298c-0.7,2.6-1.5,5.2-2.4,7.7l2.9,1c0.9-2.6,1.7-5.2,2.4-7.9L418.1,298z
						 M78.4,290.4l-3,0.7c0.6,2.7,1.3,5.4,2.1,8l2.9-0.8C79.7,295.6,79,293,78.4,290.4z M421.8,282.2c-0.5,2.6-1,5.3-1.7,7.9l3,0.7
						c0.6-2.7,1.2-5.4,1.7-8.1L421.8,282.2z M75.4,274.4l-3,0.4c0.4,2.7,0.8,5.5,1.3,8.1l3-0.6C76.2,279.8,75.8,277.1,75.4,274.4z
						 M70.9,258.4c0.1,1.3,0.1,2.6,0.2,3.8l0.5,0.2v-4.1L70.9,258.4z M70.9,241.9c-0.1,2.7-0.2,5.4-0.2,8v0.2h0.9V242L70.9,241.9z
						 M71.4,233.7l0.2,0v-1.6C71.5,232.6,71.5,233.2,71.4,233.7z M420.9,200.8l-2.9,0.8c0.7,2.6,1.4,5.2,2,7.8l3-0.7
						C422.4,206.1,421.6,203.4,420.9,200.8z M79.8,193.4c-0.9,2.6-1.7,5.2-2.4,7.9l2.9,0.8c0.7-2.6,1.5-5.2,2.4-7.7L79.8,193.4z
						 M415.6,185.1l-2.8,1.1c1,2.5,1.9,5.1,2.8,7.6l2.9-1C417.6,190.3,416.6,187.7,415.6,185.1z M85.8,178c-1.1,2.5-2.2,5.1-3.2,7.6
						l2.8,1.1c1-2.5,2-5,3.1-7.5L85.8,178z M409,170.1l-2.7,1.4c1.2,2.4,2.4,4.9,3.5,7.3l2.8-1.2C411.4,175.1,410.2,172.6,409,170.1
						z M93.1,163.2c-1.3,2.4-2.6,4.9-3.8,7.3l2.7,1.4c1.2-2.4,2.5-4.8,3.8-7.2L93.1,163.2z M400.9,155.8l-2.6,1.6
						c1.4,2.3,2.8,4.6,4.1,7l2.7-1.5C403.8,160.4,402.4,158.1,400.9,155.8z M101.8,149.2c-1.5,2.2-3.1,4.6-4.5,6.9l2.6,1.6
						c1.4-2.3,2.9-4.6,4.4-6.8L101.8,149.2z M391.6,142.2l-2.4,1.8c1.6,2.1,3.2,4.4,4.8,6.6l2.5-1.7
						C394.8,146.6,393.2,144.4,391.6,142.2z M111.8,136.1c-1.8,2.1-3.5,4.3-5.1,6.5l2.4,1.8c1.6-2.1,3.3-4.3,5-6.4L111.8,136.1z
						 M381,129.5l-2.2,2.1c1.8,2,3.6,4,5.3,6.1l2.3-1.9C384.7,133.6,382.9,131.5,381,129.5z M122.9,123.9c-1.9,1.9-3.8,3.9-5.7,6
						l2.2,2c1.8-2,3.7-4,5.6-5.9L122.9,123.9z M369.3,117.9l-2,2.2c2,1.8,4,3.7,5.9,5.6l2.1-2.2
						C373.4,121.6,371.4,119.7,369.3,117.9z M135,112.7c-2.1,1.8-4.2,3.6-6.2,5.4l2.1,2.2c2-1.8,4-3.6,6.1-5.3L135,112.7z
						 M356.6,107.4l-1.8,2.4c2.1,1.6,4.3,3.3,6.4,5l1.9-2.3C361,110.7,358.8,109,356.6,107.4z M148.2,102.8
						c-2.2,1.6-4.5,3.2-6.7,4.8l1.9,2.4c2.1-1.6,4.4-3.2,6.6-4.7L148.2,102.8z M343,98l-1.6,2.6c2.3,1.4,4.6,2.9,6.8,4.4l1.7-2.5
						C347.7,101,345.3,99.5,343,98z M162.1,94.1c-2.4,1.3-4.8,2.7-7.1,4.2l1.6,2.6c2.3-1.4,4.6-2.8,7-4.1L162.1,94.1z M328.6,90
						l-1.4,2.7c2.4,1.2,4.8,2.5,7.2,3.8l1.5-2.7C333.5,92.5,331,91.2,328.6,90z M176.9,86.7c-2.5,1.1-5,2.3-7.4,3.5l1.4,2.7
						c2.4-1.2,4.9-2.4,7.3-3.4L176.9,86.7z M313.5,83.3l-1.1,2.8c2.5,1,5,2,7.5,3.1l1.2-2.8C318.6,85.4,316,84.3,313.5,83.3z
						 M192.2,80.7c-2.6,0.9-5.2,1.8-7.8,2.8l1.1,2.8c2.5-1,5.1-1.9,7.6-2.8L192.2,80.7z M297.8,78.1l-0.8,2.9
						c2.6,0.7,5.2,1.5,7.7,2.4l1-2.9C303.1,79.7,300.4,78.9,297.8,78.1z M208.1,76.2c-2.7,0.6-5.4,1.3-8,2.1l0.8,2.9
						c2.6-0.7,5.2-1.4,7.8-2.1L208.1,76.2z M281.8,74.4l-0.6,3c2.6,0.5,5.3,1.1,7.9,1.7l0.7-3C287.1,75.5,284.4,74.9,281.8,74.4z
						 M216.1,74.5L216.1,74.5L216.1,74.5C216.2,74.5,216.2,74.5,216.1,74.5z M265.4,72.2l0,0.1h1.5
						C266.4,72.3,265.9,72.2,265.4,72.2z M249.2,71.4h-0.3v0.9h8.2l0-0.7C254.5,71.5,251.9,71.4,249.2,71.4z"/>
				</g>
			</g>
			<g>
				<g>
					<path class="st13" d="M249.2,83.2c-92,0-166.8,74.8-166.8,166.8s74.9,166.8,166.8,166.8c92,0,166.8-74.8,166.8-166.8
						C416.1,158,341.2,83.2,249.2,83.2z M249.2,412.8c-89.8,0-162.8-73-162.8-162.8c0-89.8,73-162.8,162.8-162.8
						C339,87.2,412,160.2,412,250C412,339.8,339,412.8,249.2,412.8z"/>
				</g>
			</g>
			<g>
				<path class="st13" d="M265.5,64l-5.1-10.5L247.7,27l-12.8,26.6l-5.1,10.6l-3.9,8.1h43.7L265.5,64z M247.7,66.7V40.2l6.3,12.9
					l5,10.3l1.5,3.2L247.7,66.7L247.7,66.7z"/>
			</g>
			<g>
				<path class="st13" d="M265.5,64l-5.1-10.5L247.7,27l-12.8,26.6l-5.1,10.6l-3.9,8.1h43.7L265.5,64z M247.7,66.7V40.2l6.3,12.9
					l5,10.3l1.5,3.2L247.7,66.7L247.7,66.7z"/>
			</g>
			<g>
				<path class="st13" d="M231.4,427.7l4.1,8.6l5.1,10.5l12.7,26.3l12.9-26.8l5.2-10.7l3.8-7.8H231.4z M259.6,446.6l-6.4,13.1v-26.5
					h12.9l-1.4,2.8L259.6,446.6z"/>
			</g>
			<g>
				<path class="st13" d="M231.4,427.7l4.1,8.6l5.1,10.5l12.7,26.3l12.9-26.8l5.2-10.7l3.8-7.8H231.4z M259.6,446.6l-6.4,13.1v-26.5
					h12.9l-1.4,2.8L259.6,446.6z"/>
			</g>
			<g>
				<path class="st13" d="M64.5,222.2l-10.9,5.3l-27.4,13.2l26.1,12.6l10.3,5l8.4,4.1l0.5,0.2v-43.7L64.5,222.2z M65.9,240.7H39.5
					l13.5-6.6l10.7-5.2l2.3-1.1L65.9,240.7L65.9,240.7z"/>
			</g>
			<g>
				<path class="st13" d="M64.5,222.2l-10.9,5.3l-27.4,13.2l26.1,12.6l10.3,5l8.4,4.1l0.5,0.2v-43.7L64.5,222.2z M65.9,240.7H39.5
					l13.5-6.6l10.7-5.2l2.3-1.1L65.9,240.7L65.9,240.7z"/>
			</g>
			<g>
				<path class="st13" d="M445.3,232.1l-10.8-5.2l-6.1-2.9v43.7l7-3.4l10.5-5l27.8-13.4L445.3,232.1z M434.1,245.8v-12.9l1.2,0.6
					l10.6,5.1l14.7,7.2H434.1z"/>
			</g>
			<g>
				<path class="st13" d="M445.3,232.1l-10.8-5.2l-6.1-2.9v43.7l7-3.4l10.5-5l27.8-13.4L445.3,232.1z M434.1,245.8v-12.9l1.2,0.6
					l10.6,5.1l14.7,7.2H434.1z"/>
			</g>
		</g>
		<g>
			<g>
				<g>
					<path class="st18" d="M250.3,380.4c-19.7,0-35.5-5.4-46.8-16c-7.3,4.7-15.9,7.2-25,7.2c-11.5,0-23-4.1-31.4-11.4
						c-9.8-8.4-19.6-24.5-15.4-42.6c-0.1-0.1-0.2-0.3-0.3-0.4c-1,1-2.4,1.5-3.8,1.5c-0.2,0-0.4,0-0.6,0c-2-0.2-3.8-1.5-4.6-3.4
						c-2.2-5.5-1.2-11.7,0.3-16.4c-0.8-0.5-1.6-1.3-2-2.2c-1-1.9-0.8-4.1,0.4-5.8c2.9-4.1,5-8.5,6.2-13c-1.7-2.2-3.1-5-4.4-8.2
						c-12.3,3.2-23.6,7.1-26.8,8.2c-0.6,0.2-1.4,0.4-2.1,0.4c-1.7,0-3.2-0.7-4.3-2s-1.5-2.9-1.2-4.6c3.6-20.2,11.4-34.4,23-42.4
						C84.6,211.8,90,171.8,94,142.4c0.6-4.6,1.2-8.9,1.6-12.7c1.2-11.5-2.1-24.2-2.1-24.3c-0.4-1.4,0.2-3,1.4-3.8
						c0.6-0.4,1.3-0.6,2-0.6s1.4,0.2,2,0.6c6.8,4.7,10.9,13.4,12.4,25.8c1.1,9.2,0.2,17.2,0.1,18.1c-1.3,13.9-1.7,29.3,3.7,40
						c3.4-17,12.5-26.9,20.1-32.5c-0.3-1-0.5-2.3-0.2-4c0.6-3.5,3.6-8.2,20.8-13.8c0.9-1.8,2.7-3.6,5-5.6
						c8.1-6.8,27.5-10.5,42.8-12.4c1.1-2.7,4.5-4.2,6.4-5c3.1-1.3,7.2-2.2,12.2-2.4c1.2-0.1,2.6-0.1,3.9-0.1
						c9.4,0,18.8,1.5,21.9,2.1c3.1-0.6,12.5-2.1,21.9-2.1c1.2,0,2.4,0,3.5,0.1c5.3,0.2,9.5,1.1,12.7,2.5c1.9,0.8,5.2,2.3,6.4,5
						c15.3,1.9,34.7,5.6,42.8,12.4c2.4,2,4.2,3.8,5,5.6c17.1,5.6,20.1,10.3,20.8,13.8c0.3,1.6,0.1,3-0.2,4
						c7.8,5.7,17,15.8,20.3,33.3c7.6-10.6,7.2-27.9,5.8-43.6c-0.1-1.3-3.6-32.6,12.5-43.8c0.6-0.4,1.3-0.6,2-0.6s1.4,0.2,2,0.6
						c1.2,0.8,1.8,2.4,1.4,3.8c0,0.1-3.3,12.8-2.1,24.3c0.4,3.9,1,8.1,1.6,12.7c4.2,31.2,10,73.8-22.4,89.4c2.9,1.3,5.6,2.9,8.2,4.9
						c10.5,8.2,17.5,21.9,20.9,40.8c0.3,1.6-0.1,3.3-1.2,4.6c-1.1,1.3-2.6,2-4.3,2c-0.7,0-1.5-0.1-2.2-0.4c-3.9-1.4-17.6-6-31.4-9.3
						c-0.5,1.1-1,2.2-1.6,3.2c0.8,6,3.1,11.8,7,17.1c1.2,1.7,1.4,3.9,0.4,5.8c-0.5,0.9-1.2,1.7-2,2.2c1.5,4.7,2.5,10.9,0.3,16.4
						c-0.8,1.9-2.5,3.2-4.5,3.4c-0.2,0-0.4,0-0.6,0c-1.3,0-2.6-0.5-3.6-1.3c2.5,16.9-7,31.8-16,39.5c-8.4,7.2-19.9,11.4-31.4,11.4
						c-8.5,0-16.6-2.2-23.6-6.3c-2.2,2.5-4.7,4.8-7.3,6.8c-13.6,10.2-28.1,10.4-35.9,10.6C252.6,380.4,251.5,380.4,250.3,380.4z"/>
				</g>
				<g>
					<path class="st0" d="M401.6,99.8c0.4,0,0.8,0.1,1.2,0.4c0.7,0.5,1,1.4,0.8,2.2c0,0.1-3.4,13-2.1,24.8c0.4,3.9,1,8.2,1.6,12.8
						c4.2,30.8,9.9,73.1-22,88c-0.4,0.2-1.3,0.6-3,1.2c3.5,1.1,7.4,3,11.3,6c10.2,8,17,21.4,20.4,39.9c0.2,1.2-0.1,2.4-0.9,3.3
						c-0.8,0.9-1.9,1.5-3.1,1.5c-0.5,0-1.1-0.1-1.6-0.3c-8.3-2.9-21.2-7-32.9-9.7c-0.7,1.7-1.4,3.3-2.3,4.6c0.6,5,2.4,11.5,7.3,18.3
						c0.9,1.2,1,2.9,0.3,4.2c-0.5,1-1.5,1.8-2.5,2.1c1.6,4.6,3,11.1,0.8,16.6c-0.6,1.4-1.8,2.3-3.3,2.5c-0.1,0-0.3,0-0.5,0
						c-1.3,0-2.6-0.6-3.3-1.7c-0.2-0.2-0.4-0.5-0.6-0.8c-0.1,0.1-0.2,0.2-0.2,0.4c-0.4,0.5-0.7,1.1-1.1,1.6
						c2.9,16.6-6.1,31.3-15.3,39.1c-8.1,7-19.2,11-30.4,11c-8.7,0-16.9-2.3-23.9-6.8c-2.4,2.8-5,5.3-7.9,7.5
						c-13.2,9.9-27.4,10.1-35,10.2c-0.9,0-1.9,0-3.1,0c-19.9,0-35.5-5.5-46.6-16.5c-7.2,4.9-16,7.6-25.1,7.6c-11.2,0-22.2-4-30.4-11
						c-9.6-8.3-19.1-24.1-14.7-41.8c-0.5-0.7-1-1.5-1.6-2.3c-0.1-0.1-0.2-0.2-0.2-0.4c-0.2,0.2-0.4,0.5-0.6,0.8
						c-0.8,1.1-2,1.7-3.3,1.7c-0.2,0-0.3,0-0.4,0c-1.5-0.2-2.8-1.1-3.3-2.5c-2.3-5.5-0.9-12,0.8-16.6c-1.1-0.3-2-1-2.5-2.1
						c-0.7-1.4-0.6-3,0.3-4.2c3.7-5.1,5.6-10,6.6-14.3c-2-2.5-3.7-5.7-5.1-9.7c-10.3,2.6-21.1,6.1-28.3,8.6
						c-0.5,0.2-1.1,0.3-1.6,0.3c-1.2,0-2.3-0.5-3.1-1.5c-0.8-0.9-1.1-2.1-0.9-3.3c4.5-25.1,14.9-37,24.4-42.7
						c-28.7-16.1-23.2-56.6-19.1-86.5c0.6-4.6,1.2-8.9,1.6-12.8C98.4,118,95,105.1,95,105c-0.2-0.8,0.1-1.7,0.8-2.2
						c0.3-0.2,0.8-0.4,1.2-0.4c0.4,0,0.8,0.1,1.2,0.4c15.4,10.7,12,41.2,11.9,42.5c-1.6,17.1-1.6,33.8,6,44.5
						c2.7-19.3,12.6-30.3,21.2-36.2c-0.5-0.9-0.9-2.3-0.6-4.2c0.6-2.9,3.3-7.4,20.4-12.9c0.6-1.7,2.3-3.5,4.9-5.7
						c8.3-7,29.8-10.6,43-12.2c0.4-2.7,3.8-4.2,5.8-5c2.9-1.3,6.8-2.1,11.7-2.3c1.2-0.1,2.5-0.1,3.8-0.1c9.6,0,19.4,1.7,21.9,2.1
						c2.5-0.4,12.3-2.1,21.9-2.1c1.2,0,2.3,0,3.4,0.1c5.1,0.2,9.1,1,12.1,2.3c2,0.9,5.4,2.4,5.8,5c13.3,1.6,34.7,5.2,43,12.2
						c2.6,2.2,4.3,3.9,4.9,5.7c17.1,5.5,19.8,9.9,20.4,12.9c0.4,1.9,0,3.3-0.6,4.2c8.7,6,18.5,16.9,21.2,36.4
						c9.9-10.4,10-28.6,8.3-47.4c-0.1-1.2-3.5-31.7,11.9-42.4C400.8,99.9,401.2,99.8,401.6,99.8 M270,114.2L270,114.2
						C270,114.2,270,114.2,270,114.2C270,114.2,270,114.2,270,114.2 M226.2,114.2C226.2,114.2,226.2,114.2,226.2,114.2
						c0.2,0,0.4,0,0.5,0C226.5,114.2,226.4,114.2,226.2,114.2C226.2,114.2,226.2,114.2,226.2,114.2 M281.8,120.6
						C281.8,120.6,281.8,120.6,281.8,120.6C281.8,120.6,281.8,120.6,281.8,120.6c-0.1,0-0.2,0-0.3,0
						C281.6,120.6,281.7,120.6,281.8,120.6 M214.5,120.6C214.5,120.6,214.4,120.6,214.5,120.6C214.4,120.6,214.5,120.6,214.5,120.6
						c0.1,0,0.2,0,0.3,0C214.7,120.6,214.6,120.6,214.5,120.6 M354,153C354.1,153,354.1,153,354,153C354.1,153,354.1,153,354,153
						C354,153,354,153,354,153C354,153,354,153,354,153 M142.2,153C142.2,153,142.2,153,142.2,153C142.2,153,142.2,153,142.2,153
						C142.3,153,142.3,153,142.2,153C142.3,153,142.2,153,142.2,153 M374.3,266.4c-0.5-0.1-1-0.2-1.6-0.4l0,0
						C373.2,266.1,373.8,266.3,374.3,266.4 M399.1,273.5c0.5,0.2,1,0.3,1.5,0.5C400.1,273.9,399.6,273.7,399.1,273.5
						c-0.4-0.1-0.8-0.2-1.2-0.4C398.3,273.3,398.7,273.4,399.1,273.5 M132.3,281.2c0.1-0.2,0.1-0.4,0.2-0.6l0,0
						C132.4,280.8,132.4,281,132.3,281.2 M320.3,363.8c0,0,0.1,0,0.2,0C320.4,363.8,320.4,363.8,320.3,363.8c-0.2,0-0.6,0-0.9,0
						C319.7,363.8,320,363.8,320.3,363.8 M178.6,365.9c0,0,0.1,0,0.1,0C178.7,365.9,178.7,365.9,178.6,365.9c-0.2,0-0.4,0-0.6,0
						C178.1,365.9,178.4,365.9,178.6,365.9 M250.3,374.8C250.4,374.8,250.4,374.8,250.3,374.8C250.4,374.8,250.4,374.8,250.3,374.8
						c-0.2,0-0.4,0-0.6,0C249.9,374.8,250.1,374.8,250.3,374.8 M401.6,96.7c-1,0-2,0.3-2.9,0.9c-7.1,5-11.5,14-13,26.9
						c-1.1,9.3-0.2,17.3-0.1,18.3c2,22.1-0.2,33.1-3.6,39.6c-3.8-15.2-12-24.5-19.3-30c0.2-1,0.2-2.2,0-3.6
						c-1.1-5.8-7.5-10.2-21.2-14.8c-1.1-1.9-2.8-3.6-5.1-5.5c-8.2-7-27.4-10.7-42.8-12.7c-1.6-2.7-4.8-4.2-6.8-5
						c-3.4-1.5-7.7-2.3-13.2-2.6c-1.1-0.1-2.3-0.1-3.5-0.1c-9.2,0-18.5,1.5-21.9,2.1c-3.4-0.6-12.7-2.1-21.9-2.1c-1.4,0-2.7,0-4,0.1
						c-5.2,0.3-9.5,1.1-12.7,2.6c-1.9,0.8-5.2,2.3-6.8,5c-15.4,2-34.6,5.7-42.8,12.7c-2.3,1.9-4.1,3.7-5.1,5.5
						c-13.8,4.6-20.1,9-21.2,14.8c-0.3,1.4-0.2,2.6-0.1,3.6c-6.9,5.3-14.8,14.1-18.8,28.2c-3.4-10-2.9-23-1.8-35
						c0.4-3.6,3.3-33.8-13.2-45.3C99,99.7,98,99.4,97,99.4c-1.1,0-2.1,0.3-2.9,0.9c-1.7,1.2-2.5,3.4-2,5.5c0,0.1,3.3,12.5,2.1,23.7
						c-0.4,3.8-1,8.1-1.6,12.6l0,0.1c-4,29.2-9.3,68.6,16.6,87c-11,8.4-18.3,22.5-21.9,42c-0.4,2.1,0.2,4.2,1.5,5.8s3.3,2.5,5.4,2.5
						c0.9,0,1.8-0.2,2.7-0.5c3.2-1.1,13.7-4.7,25.3-7.8c1.1,2.6,2.3,4.8,3.6,6.7c-1.2,4.1-3.1,8.1-5.8,11.8c-1.6,2.2-1.8,5-0.6,7.4
						c0.4,0.8,0.9,1.5,1.6,2.1c-1.4,4.8-2.2,10.9,0.1,16.4c1,2.4,3.2,4.1,5.8,4.4c0.3,0,0.5,0,0.8,0c0.7,0,1.4-0.1,2.1-0.3
						c-2.9,17.7,6.8,33.2,16.4,41.5c8.7,7.5,20.5,11.8,32.4,11.8c8.9,0,17.4-2.3,24.8-6.8c11.5,10.4,27.3,15.7,47,15.7
						c1.2,0,2.3,0,3.2,0c8-0.1,22.8-0.4,36.8-10.9c2.4-1.8,4.6-3.8,6.7-6c7,3.9,15,5.9,23.3,5.9c11.9,0,23.7-4.3,32.4-11.8
						c8.8-7.6,18-21.8,16.8-38.1c0.6,0.1,1.1,0.2,1.8,0.2c0.3,0,0.5,0,0.8,0c2.6-0.3,4.8-2,5.8-4.4c2.2-5.5,1.5-11.6,0.1-16.4
						c0.6-0.6,1.2-1.3,1.6-2.1c1.2-2.4,1-5.2-0.6-7.4c-3.6-5-5.8-10.3-6.6-15.9c0.3-0.5,0.6-1.1,0.9-1.7c10.6,2.6,22.2,6.3,30,9
						c0.9,0.3,1.8,0.5,2.7,0.5c2.1,0,4.1-0.9,5.5-2.5s1.9-3.7,1.5-5.8c-3.5-19.3-10.7-33.3-21.5-41.8c-1.8-1.4-3.7-2.7-5.7-3.7
						c13.2-7.4,20.7-20.1,23.1-38.8c2.1-16.7-0.5-35.6-2.6-50.7l0-0.1c-0.6-4.5-1.2-8.8-1.6-12.6c-1.2-11.2,2-23.6,2.1-23.7
						c0.5-2.1-0.3-4.2-2-5.5C403.7,97.1,402.7,96.7,401.6,96.7L401.6,96.7z"/>
				</g>
			</g>
			<g>
				<g>
					<g>
						<path class="st19" d="M133.6,263.2c0,0,3.7,15-7.8,30.8h5.1c0,0-6.3,11.3-3.2,19c0,0,3.7-5.3,5.1-3.7s9.9,15,12.3,15.1
							s27.5-24.8,27.5-24.8l-3.7-34l-18.8-13h-17.4L133.6,263.2z"/>
					</g>
				</g>
				<g>
					<g>
						<path class="st18" d="M150.1,252.6l18.8,13l3.7,34c0,0-24.8,24.8-27.4,24.8c0,0,0,0,0,0c-2.5-0.2-10.9-13.6-12.3-15.1
							c-0.2-0.2-0.4-0.3-0.6-0.3c-1.7,0-4.4,4-4.4,4c-3.2-7.8,3.2-19,3.2-19h-5.1c11.4-15.9,7.8-30.8,7.8-30.8l-0.9-10.6
							L150.1,252.6 M150.1,248.6h-17.4c-1.1,0-2.2,0.5-3,1.3c-0.8,0.8-1.1,2-1.1,3.1l0.9,10.6c0,0.2,0.1,0.4,0.1,0.6
							c0.1,0.5,3,13.5-7.1,27.5c-0.9,1.2-1,2.9-0.3,4.2c0.5,1,1.5,1.8,2.5,2.1c-1.6,4.6-3,11.1-0.8,16.6c0.6,1.4,1.8,2.3,3.3,2.5
							c0.2,0,0.3,0,0.4,0c1.3,0,2.6-0.6,3.3-1.7c0.2-0.2,0.4-0.5,0.6-0.8c0.1,0.1,0.2,0.2,0.2,0.4c7.5,10.8,9.9,13.4,13,13.6
							c0.1,0,0.2,0,0.3,0c1.9,0,3.2,0,17.5-13.5c6.5-6.2,12.8-12.4,12.8-12.5c0.9-0.9,1.3-2.1,1.2-3.3l-3.7-34
							c-0.1-1.2-0.8-2.2-1.7-2.9l-18.8-13C151.7,248.8,150.9,248.6,150.1,248.6L150.1,248.6z"/>
					</g>
				</g>
				<g>
					<g>
						<path class="st19" d="M365.4,264.4c0,0-3.7,15,7.8,30.8H368c0,0,6.3,11.3,3.2,19c0,0-3.7-5.3-5.1-3.7s-9.9,15-12.3,15.1
							c-2.5,0.2-27.5-24.8-27.5-24.8l3.7-34l18.8-13h17.4L365.4,264.4z"/>
					</g>
				</g>
				<g>
					<g>
						<g>
							<path class="st19" d="M353.7,327.7c-1,0-3.6-0.1-28.9-25.4c-0.4-0.4-0.6-1-0.6-1.7l3.7-34c0.1-0.6,0.4-1.1,0.9-1.5l18.8-13
								c0.3-0.2,0.7-0.4,1.2-0.4h17.4c0.6,0,1.1,0.2,1.5,0.7s0.6,1,0.5,1.5l-0.9,10.6c0,0.1,0,0.2,0,0.3c0,0.1-3.3,14.3,7.4,29.1
								c0.5,0.6,0.5,1.4,0.2,2.1s-1,1.1-1.8,1.1h-1.9c1.8,4.1,4.3,11.7,1.8,17.8c-0.3,0.7-0.9,1.2-1.6,1.2c-0.1,0-0.1,0-0.2,0
								c-0.7,0-1.3-0.3-1.7-0.9c-0.8-1.1-1.8-2.2-2.5-2.8c-0.5,0.6-1.1,1.5-1.7,2.4c-6.8,9.8-9.3,12.5-11.5,12.7
								C353.9,327.7,353.7,327.7,353.7,327.7z"/>
						</g>
					</g>
					<g>
						<g>
							<path class="st18" d="M366.3,253.8l-0.9,10.6c0,0-3.7,15,7.8,30.8H368c0,0,6.3,11.3,3.2,19c0,0-2.8-4-4.5-4
								c-0.2,0-0.5,0.1-0.6,0.3c-1.4,1.6-9.9,15-12.3,15.1c0,0,0,0,0,0c-2.6,0-27.4-24.8-27.4-24.8l3.7-34l18.8-13L366.3,253.8
								 M366.3,249.8h-17.4c-0.8,0-1.6,0.2-2.3,0.7l-18.8,13c-1,0.7-1.6,1.7-1.7,2.9l-3.7,34c-0.1,1.2,0.3,2.4,1.2,3.3
								c0.1,0.1,6.3,6.3,12.8,12.5c14.2,13.5,15.6,13.5,17.5,13.5c0.1,0,0.2,0,0.3,0c3-0.2,5.5-2.8,13-13.6c0.1-0.1,0.2-0.2,0.2-0.4
								c0.2,0.3,0.4,0.5,0.6,0.8c0.8,1.1,2,1.7,3.3,1.7c0.1,0,0.3,0,0.5,0c1.5-0.2,2.7-1.1,3.3-2.5c2.3-5.5,0.9-12-0.8-16.6
								c1.1-0.3,2-1,2.5-2.1c0.7-1.4,0.6-3-0.3-4.2c-10.1-14-7.2-26.9-7.1-27.5c0-0.2,0.1-0.4,0.1-0.6l0.9-10.6
								c0.1-1.1-0.3-2.2-1.1-3.1C368.5,250.2,367.4,249.8,366.3,249.8L366.3,249.8z M366.3,257.9L366.3,257.9L366.3,257.9
								L366.3,257.9z"/>
						</g>
					</g>
				</g>
				<g>
					<g>
						<g>
							<path class="st20" d="M152.9,260.6c-11.3-4.8-57.1,11.3-58.6,11.9c0,0,0,0,0,0c0,0,0,0,0,0c8.8-48.9,40.1-44.1,40.1-44.1
								l13.4,23.4L152.9,260.6z"/>
						</g>
					</g>
					<g>
						<g>
							<g>
								<path class="st20" d="M94.2,274.5c-0.6,0-1.2-0.3-1.6-0.7c-0.4-0.5-0.6-1.1-0.4-1.7c3.2-18,9.8-31,19.6-38.7
									c8-6.3,16.1-7.2,20.2-7.2c1.6,0,2.5,0.1,2.6,0.2c0.6,0.1,1.1,0.5,1.4,1l18.5,32.2c0.4,0.8,0.3,1.7-0.2,2.4
									c-0.4,0.5-0.9,0.7-1.5,0.7c-0.3,0-0.5,0-0.8-0.2c-0.8-0.3-2.3-0.7-5.1-0.7c-15.4,0-47.7,11.1-51.9,12.6
									C94.8,274.5,94.5,274.5,94.2,274.5z"/>
							</g>
						</g>
						<g>
							<g>
								<path class="st18" d="M132,228.3c1.5,0,2.3,0.1,2.3,0.1l13.4,23.4l5.1,8.8c-1.4-0.6-3.5-0.9-5.9-0.9
									c-16.4,0-51.3,12.3-52.7,12.8c0,0,0,0,0,0c0,0,0,0,0,0C101.6,231.7,124.6,228.3,132,228.3 M132,224.2L132,224.2
									c-7.8,0-33.9,3.4-41.8,47.6c-0.2,1.2,0.1,2.4,0.9,3.3s1.9,1.5,3.1,1.5c0.5,0,1.1-0.1,1.6-0.3c13.3-4.7,38.9-12.5,51.2-12.5
									c2.6,0,3.8,0.4,4.3,0.6c0.5,0.2,1.1,0.3,1.6,0.3c1.1,0,2.2-0.5,3-1.4c1.2-1.3,1.4-3.2,0.5-4.7l-5.1-8.8l-13.4-23.4
									c-0.6-1.1-1.7-1.8-2.9-2C134.8,224.4,133.7,224.2,132,224.2L132,224.2z"/>
							</g>
						</g>
					</g>
					<g>
						<g>
							<path class="st21" d="M152.9,260.6c-11.3-4.8-57.1,11.3-58.6,11.9c6.7-7.4,16.5-16.5,26-18.6c7.9-1.8,18.5-2.2,27.6-2.1
								L152.9,260.6z"/>
						</g>
					</g>
				</g>
				<g>
					<g>
						<g>
							<path class="st20" d="M347.1,263.9c11.3-4.8,57.1,11.3,58.6,11.9c0,0,0,0,0,0c0,0,0,0,0,0c-8.8-48.9-40.1-44.1-40.1-44.1
								l-13.4,23.4L347.1,263.9z"/>
						</g>
					</g>
					<g>
						<g>
							<path class="st18" d="M368,231.6c7.4,0,30.5,3.4,37.8,44.2c0,0,0,0,0,0c0,0,0,0,0,0c-1.4-0.5-36.3-12.8-52.7-12.8
								c-2.4,0-4.5,0.3-5.9,0.9l5.1-8.8l13.4-23.4C365.7,231.7,366.5,231.6,368,231.6 M368,227.5c-1.7,0-2.8,0.1-3,0.2
								c-1.2,0.2-2.3,0.9-2.9,2l-13.4,23.4l-5.1,8.8c-0.9,1.5-0.7,3.4,0.5,4.7c0.8,0.9,1.9,1.4,3,1.4c0.5,0,1.1-0.1,1.6-0.3
								c0.5-0.2,1.7-0.6,4.3-0.6c12.3,0,37.9,7.8,51.2,12.5c0.5,0.2,1,0.3,1.6,0.3c1.2,0,2.3-0.5,3.1-1.5c0.8-0.9,1.1-2.1,0.9-3.3
								c-3.3-18.5-10.2-31.9-20.4-39.9C380.9,228.5,372.3,227.5,368,227.5L368,227.5z"/>
						</g>
					</g>
					<g>
						<g>
							<path class="st21" d="M347.1,263.9c11.3-4.8,57.1,11.3,58.6,11.9c-6.7-7.4-16.5-16.5-26-18.6c-7.9-1.8-18.5-2.2-27.6-2.1
								L347.1,263.9z"/>
						</g>
					</g>
				</g>
				<g>
					<g>
						<path class="st22" d="M361.3,315.6c-5.2-19.5-26-25.3-30.5-26.6c-2.5-0.7-18.6-5-32.3,1.2c-1.9-3.4-4.2-6.7-7-9.8
							c-19.8-22.2-55.2-26.8-77.6-10.7c-8.3,6-13.5,13.8-16.8,21.4c-12.9-4.3-26.9-0.6-29.1,0c-4.4,1.3-25.2,7.1-30.5,26.6
							c-4.1,15.4,3.9,30.1,13.3,38.2c14.3,12.3,37.6,14,53.3,1.1c16.1,18.3,40.4,17.9,49.2,17.8c7.8-0.1,20.7-0.5,32.6-9.4
							c4.2-3.2,7.3-6.7,9.6-9.8c15.7,12.2,38.4,10.3,52.5-1.8C357.4,345.7,365.5,331,361.3,315.6z"/>
					</g>
				</g>
				<g>
					<g>
						<path class="st18" d="M245.3,260.1c16.9,0,34.4,7,46.3,20.3c2.8,3.1,5.1,6.4,7,9.8c5.6-2.5,11.5-3.3,16.8-3.3
							c7.7,0,14,1.7,15.5,2.1c4.4,1.3,25.2,7.1,30.5,26.6c4.1,15.4-4,30.1-13.3,38.2c-7.5,6.5-17.6,10-27.7,10
							c-8.7,0-17.5-2.6-24.8-8.3c-2.2,3.1-5.3,6.6-9.6,9.8c-11.9,8.9-24.8,9.3-32.6,9.4c-0.9,0-1.9,0-3.1,0
							c-10.5,0-31.6-1.3-46.1-17.8c-7.4,6.1-16.6,9-25.6,9c-10.1,0-20.2-3.5-27.7-10c-9.4-8-17.4-22.8-13.3-38.2
							c5.2-19.5,26-25.3,30.5-26.6c1.5-0.4,7.8-2.1,15.5-2.1c4.3,0,9,0.5,13.6,2c3.3-7.6,8.4-15.4,16.8-21.4
							C222.9,263.2,234,260.1,245.3,260.1 M245.3,256v4.1V256c-12.6,0-24.3,3.6-33.8,10.3c-7,5-12.6,11.7-16.6,19.9
							c-3.6-0.8-7.4-1.3-11.4-1.3c-7.8,0-14.2,1.6-16.6,2.3c-17.7,5-29.5,15.5-33.3,29.5c-4.8,17.9,4.9,34,14.6,42.3
							c8.1,7,19.2,11,30.4,11c9.1,0,17.9-2.7,25.1-7.6c11.1,10.9,26.8,16.5,46.6,16.5c1.2,0,2.2,0,3.1,0c7.6-0.1,21.8-0.3,35-10.2
							c2.9-2.2,5.6-4.7,7.9-7.5c7,4.5,15.2,6.8,23.9,6.8c11.2,0,22.2-4,30.4-11c9.7-8.4,19.4-24.4,14.6-42.3
							c-3.8-14-15.6-24.5-33.3-29.5c-2.4-0.7-8.8-2.3-16.6-2.3c-5.5,0-10.6,0.8-15.1,2.3c-1.7-2.6-3.6-5.1-5.6-7.5
							C282.5,264.1,264.1,256,245.3,256L245.3,256z"/>
					</g>
				</g>
				<g>
					<g>
						<path class="st23" d="M341.7,242.5c1.6,1.6,17.6,17.7,15.4,37.9c-1.1,9.6-6.5,21.4-15.4,30c-7.1,6.9-17.4,13.1-91.1,16.8
							c-25.7,1.3-53.2,1.8-77.3-9.2c-20.6-9.4-43.7-36.2-28.3-59.6c8.5-13,24.9-19.7,37.1-23.3c17.2-5,31.4-4.1,38.2-3.6
							C302.1,236.6,322.1,223.4,341.7,242.5z"/>
					</g>
				</g>
				<g>
					<g>
						<path class="st18" d="M210.4,231.1c4.1,0,7.4,0.2,9.8,0.4c15.5,1,28.8,1.3,40.3,1.3c20.9,0,35.8-1,47.3-1
							c15.5,0,24.7,1.9,33.8,10.8c1.6,1.6,17.6,17.6,15.4,37.9c-1.1,9.6-6.5,21.4-15.4,30c-7.1,6.9-17.4,13.1-91.1,16.8
							c-7.2,0.4-14.6,0.7-22.1,0.7c-18.9,0-37.9-2-55.3-9.8c-20.6-9.4-43.7-36.2-28.3-59.6c8.5-13,24.9-19.7,37.1-23.3
							C193.1,231.9,203,231.1,210.4,231.1 M210.4,228.1c-10.1,0-19.9,1.4-29.3,4.1c-18.6,5.4-31.6,13.7-38.8,24.5
							c-5.5,8.4-6.9,18-4.1,27.8c4.8,16.7,20.4,30.3,33.7,36.3c9.6,4.3,25.8,10.1,56.5,10.1c7.8,0,15.6-0.3,22.2-0.7
							c73.1-3.7,85.1-9.9,93.1-17.6c8.9-8.6,15.1-20.8,16.3-31.9c2.4-21.5-14.4-38.6-16.3-40.4c-10-9.8-20.4-11.6-36-11.6
							c-4.9,0-10.5,0.2-16.8,0.4c-8.7,0.3-18.5,0.6-30.5,0.6c-13.3,0-26.4-0.4-40.1-1.3l-0.3,0C217.6,228.3,214.4,228.1,210.4,228.1
							L210.4,228.1z"/>
					</g>
				</g>
				<g>
					<g>
						<g>
							<path class="st24" d="M340.6,278.6c3.5,4.2,2.4,10.5,1.7,14c-0.5,2.6-1.3,6.9-5,10.7c-3.6,3.6-7.8,4.6-9.1,4.9
								c-1.7,0.4-8.6,1.9-14.1-2.5c-5.7-4.6-6.8-13-4.2-19c1.8-4.3,5.2-6.6,6.9-7.7C323.7,274.4,335.5,272.6,340.6,278.6z"/>
						</g>
					</g>
					<g>
						<g>
							<g>
								<path class="st24" d="M323.4,309.7c-3.9,0-7.3-1.1-10-3.3c-6.4-5.1-7.1-14.2-4.5-20.2c2-4.7,5.7-7.1,7.3-8.1
									c4.1-2.7,9.6-4.3,14.5-4.3c4.7,0,8.4,1.5,10.7,4.2c3.8,4.5,2.6,11.2,2,14.8c-0.5,2.5-1.3,7.2-5.3,11.2
									c-2.6,2.6-5.8,4.3-9.6,5.1C327.6,309.3,325.7,309.7,323.4,309.7z"/>
							</g>
						</g>
						<g>
							<g>
								<path class="st18" d="M330.6,274.8c4,0,7.6,1.1,9.9,3.8c3.5,4.2,2.4,10.5,1.7,14c-0.5,2.6-1.3,6.9-5,10.7
									c-3.6,3.6-7.8,4.6-9.1,4.9c-0.8,0.2-2.5,0.5-4.7,0.5c-2.8,0-6.3-0.6-9.4-3c-5.7-4.6-6.8-13-4.2-19c1.8-4.3,5.2-6.6,6.9-7.7
									C320.5,276.5,325.8,274.8,330.6,274.8 M330.6,272.8L330.6,272.8c-5.1,0-10.8,1.7-15.1,4.5c-1.7,1.1-5.6,3.6-7.7,8.6
									c-2.7,6.4-1.9,16,4.9,21.4c2.9,2.3,6.5,3.5,10.7,3.5c2.4,0,4.3-0.4,5.2-0.6c4-0.9,7.4-2.7,10.1-5.4
									c4.2-4.3,5.1-9.3,5.6-11.7c0.7-3.8,1.9-10.7-2.2-15.6C339.6,274.4,335.6,272.8,330.6,272.8L330.6,272.8z"/>
							</g>
						</g>
					</g>
					<g>
						<g>
							<circle class="st25" cx="326.9" cy="295.1" r="10.5"/>
						</g>
					</g>
					<g>
						<g>
							<path class="st18" d="M326.9,284.6c5.8,0,10.5,4.7,10.5,10.5s-4.7,10.5-10.5,10.5s-10.5-4.7-10.5-10.5
								S321.1,284.6,326.9,284.6 M326.9,283.6c-6.4,0-11.5,5.2-11.5,11.5s5.2,11.5,11.5,11.5c6.4,0,11.5-5.2,11.5-11.5
								S333.3,283.6,326.9,283.6L326.9,283.6z"/>
						</g>
					</g>
					<g>
						<g>
							
								<ellipse transform="matrix(0.368 -0.9298 0.9298 0.368 -65.1953 494.231)" class="st26" cx="331" cy="295.1" rx="3.3" ry="2"/>
						</g>
					</g>
				</g>
				<g>
					<g>
						<g>
							<path class="st24" d="M156.4,278.6c-3.5,4.2-2.4,10.5-1.7,14c0.5,2.6,1.3,6.9,5,10.7c3.6,3.6,7.8,4.6,9.1,4.9
								c1.7,0.4,8.6,1.9,14.1-2.5c5.7-4.6,6.8-13,4.2-19c-1.8-4.3-5.2-6.6-6.9-7.7C173.3,274.4,161.5,272.6,156.4,278.6z"/>
						</g>
					</g>
					<g>
						<g>
							<g>
								<path class="st24" d="M173.6,309.7c-2.3,0-4.2-0.4-4.9-0.6c-3.8-0.8-7.1-2.5-9.6-5.1c-4-4.1-4.9-8.7-5.3-11.2
									c-0.6-3.6-1.9-10.3,1.9-14.8c2.3-2.8,6-4.2,10.7-4.2c4.9,0,10.4,1.6,14.5,4.3c1.6,1,5.3,3.4,7.3,8.1
									c2.6,6,1.8,15.1-4.5,20.2C180.9,308.6,177.5,309.7,173.6,309.7L173.6,309.7z"/>
							</g>
						</g>
						<g>
							<g>
								<path class="st18" d="M166.4,274.8c4.8,0,10.1,1.7,14,4.1c1.7,1.1,5.1,3.4,6.9,7.7c2.5,6,1.5,14.4-4.2,19
									c-3.1,2.4-6.6,3-9.4,3c-2.2,0-4-0.4-4.7-0.5c-1.4-0.3-5.5-1.2-9.1-4.9c-3.7-3.8-4.6-8.1-5-10.7c-0.6-3.5-1.8-9.8,1.7-14
									C158.7,275.9,162.4,274.8,166.4,274.8 M166.4,272.8c-5,0-9,1.6-11.5,4.6c-4.1,4.9-2.9,11.9-2.2,15.6
									c0.4,2.4,1.4,7.5,5.6,11.7c2.7,2.7,6.1,4.6,10.1,5.4c0.8,0.2,2.7,0.6,5.2,0.6c4.2,0,7.7-1.2,10.7-3.5
									c6.8-5.4,7.5-15,4.9-21.4c-2.1-5-6-7.5-7.7-8.6C177.1,274.4,171.5,272.8,166.4,272.8L166.4,272.8z"/>
							</g>
						</g>
					</g>
					<g>
						<g>
							<circle class="st25" cx="170.1" cy="295.1" r="10.5"/>
						</g>
					</g>
					<g>
						<g>
							<path class="st18" d="M170.1,284.6c5.8,0,10.5,4.7,10.5,10.5s-4.7,10.5-10.5,10.5s-10.5-4.7-10.5-10.5
								C159.6,289.3,164.3,284.6,170.1,284.6 M170.1,283.6c-6.4,0-11.5,5.2-11.5,11.5c0,6.4,5.2,11.5,11.5,11.5s11.5-5.2,11.5-11.5
								C181.6,288.8,176.5,283.6,170.1,283.6L170.1,283.6z"/>
						</g>
					</g>
					<g>
						<g>
							
								<ellipse transform="matrix(0.9298 -0.368 0.368 0.9298 -96.9468 81.8048)" class="st26" cx="166" cy="295.1" rx="2" ry="3.3"/>
						</g>
					</g>
				</g>
				<g>
					<g>
						<path class="st27" d="M377.8,205.5c-1.8,31.8-3.5,21.2-4.5,10.6c1,18.3,1.1,54.8-12.3,62.6l-4-10.1l-6.6,10.1h-4.9l-7.9,11.9
							l-4.9-4.8l-10.1,15.4l-6.6-12.4c0,0-5.3,10.1-12.4,12.4l-5.5-5.5l-12.1,15.2l-9.3-9.3l-8.8,3.5c0,0-6.2-3.5-10.1,10.1
							l-9.7-7.5l-9.7,7.5c-4-13.7-10.1-10.1-10.1-10.1l-8.8-3.5l-9.3,9.3l-12.1-15.2l-5.5,5.5c-7.1-2.2-12.4-12.4-12.4-12.4
							l-6.6,12.4l-10.1-15.4l-4.8,4.8l-7.9-11.9h-4.9l-6.6-10.1l-4,10.1c-13.4-7.9-13.2-44.3-12.2-62.6c-1,10.6-2.8,21.2-4.5-10.6
							c-1.9-33.8,15.7-47.6,26.2-52.8c-3,0.7-5.6,0.5-5-2.8c0.9-4.6,13-8.9,21.4-11.5c-1.8,0-2-1.2,2.8-5.3
							c11.5-9.7,52.3-12.6,52.3-12.6s-15.2,0.7-4.2-4.2c2.8-1.2,6.6-1.8,10.6-2.1c11.7-0.6,25.6,2.1,25.6,2.1s13.6-2.6,25.1-2.1
							c4.2,0.2,8.1,0.8,11,2.1c11,4.8-4.2,4.2-4.2,4.2s40.8,2.9,52.3,12.6c4.8,4.1,4.6,5.3,2.8,5.3c8.5,2.5,20.6,6.9,21.4,11.5
							c0.6,3.3-2,3.5-5,2.8C362.1,157.9,379.7,171.7,377.8,205.5z"/>
					</g>
				</g>
				<g>
					<g>
						<path class="st18" d="M270,114.2c1.1,0,2.2,0,3.3,0.1c4.2,0.2,8.1,0.8,11,2.1c8.7,3.8,1.1,4.2-2.5,4.2c-1,0-1.7,0-1.7,0
							s40.8,2.9,52.3,12.6c4.8,4.1,4.6,5.3,2.8,5.3c8.5,2.5,20.6,6.9,21.4,11.5c0.4,2.4-0.8,3.1-2.6,3.1c-0.7,0-1.5-0.1-2.4-0.3
							c10.4,5.2,28,19,26.2,52.8c-0.9,15.9-1.8,21.2-2.5,21.2s-1.5-5.3-2-10.6c1,18.3,1.1,54.8-12.3,62.6l-4-10.1l-6.6,10.1h-4.9
							l-7.9,11.9l-4.9-4.8l-10.1,15.4l-6.6-12.4c0,0-5.3,10.1-12.4,12.4l-5.5-5.5l-12.1,15.2l-9.3-9.3l-8.8,3.5c0,0-0.7-0.4-1.8-0.4
							c-2.1,0-5.7,1.5-8.3,10.5l-9.7-7.5l-9.7,7.5c-2.6-9-6.2-10.5-8.3-10.5c-1.1,0-1.8,0.4-1.8,0.4l-8.8-3.5l-9.3,9.3l-12.1-15.2
							l-5.5,5.5c-7.1-2.2-12.4-12.4-12.4-12.4l-6.6,12.4l-10.1-15.4l-4.8,4.8l-7.9-11.9h-4.9l-6.6-10.1l-4,10.1
							c-13.4-7.9-13.2-44.3-12.2-62.6c-0.5,5.3-1.2,10.6-2,10.6s-1.7-5.3-2.5-21.2c-1.9-33.8,15.7-47.6,26.1-52.8
							c-0.8,0.2-1.6,0.3-2.4,0.3c-1.8,0-3.1-0.8-2.6-3.1c0.9-4.6,13-8.9,21.4-11.5c-1.8,0-2-1.2,2.8-5.3
							c11.5-9.7,52.3-12.6,52.3-12.6s-0.7,0-1.7,0c-3.6,0-11.2-0.4-2.5-4.2c2.8-1.2,6.6-1.8,10.6-2.1c1.2-0.1,2.4-0.1,3.7-0.1
							c10.7,0,21.9,2.2,21.9,2.2S259.3,114.2,270,114.2 M270,111.2c-9.6,0-19.4,1.7-21.9,2.1c-2.5-0.4-12.3-2.1-21.9-2.1
							c-1.3,0-2.6,0-3.8,0.1c-4.8,0.3-8.8,1-11.7,2.3c-2,0.9-5.4,2.4-5.8,5c-13.3,1.6-34.7,5.2-43,12.2c-2.6,2.2-4.3,3.9-4.9,5.7
							c-17.1,5.5-19.9,9.9-20.4,12.9c-0.4,1.9,0,3.3,0.6,4.2c-10.8,7.4-23.4,22.6-21.8,52.1c0.4,7.5,0.9,13.2,1.3,16.8
							c0.4,2.8,0.8,6,2.8,7c0,7.1,0.2,14.9,1.1,22.3c1.9,16,6.2,25.7,13,29.6c0.5,0.3,1,0.4,1.5,0.4c0.3,0,0.7-0.1,1-0.2
							c0.8-0.3,1.5-0.9,1.8-1.8l1.8-4.6l3.4,5.2c0.6,0.9,1.5,1.4,2.6,1.4h3.2l7,10.5c0.5,0.8,1.3,1.2,2.2,1.3c0.1,0,0.2,0,0.3,0
							c0.8,0,1.6-0.3,2.1-0.9l2.2-2.2l8.1,12.3c0.6,0.9,1.5,1.4,2.5,1.4c0.1,0,0.1,0,0.1,0c1.1,0,2-0.7,2.6-1.6l4.1-7.7
							c2.5,3.4,6.4,7.7,11.2,9.2c0.3,0.1,0.6,0.1,0.9,0.1c0.8,0,1.6-0.3,2.1-0.9l3.1-3.1l10,12.6c0.5,0.7,1.4,1.1,2.2,1.1
							c0.1,0,0.1,0,0.2,0c0.8,0,1.6-0.3,2.1-0.9l7.8-7.9l7,2.8c0.4,0.2,0.9,0.3,1.3,0.3c0.4,0,0.9-0.1,1.3-0.4c0.1,0,0.2,0,0.4,0
							c1.4,0,3.6,2.2,5.4,8.4c0.3,1,1,1.7,2,2c0.3,0.1,0.6,0.1,0.9,0.1c0.7,0,1.3-0.2,1.9-0.6l7.8-6.1l7.8,6.1
							c0.5,0.4,1.2,0.6,1.9,0.6c0.3,0,0.6,0,0.9-0.1c1-0.3,1.7-1.1,2-2c1.8-6.2,4-8.4,5.4-8.4c0.2,0,0.3,0,0.4,0
							c0.4,0.3,0.9,0.4,1.3,0.4c0.4,0,0.8-0.1,1.3-0.3l7-2.8l7.8,7.9c0.6,0.6,1.4,0.9,2.2,0.9c0.1,0,0.1,0,0.2,0
							c0.9,0,1.7-0.5,2.2-1.1l10-12.6l3.1,3.1c0.6,0.6,1.4,0.9,2.1,0.9c0.3,0,0.6,0,0.9-0.1c4.8-1.5,8.7-5.8,11.2-9.2l4.1,7.7
							c0.5,1,1.5,1.6,2.5,1.6c0,0,0.1,0,0.1,0c1,0,2-0.5,2.5-1.4l8.1-12.3l2.2,2.2c0.6,0.6,1.4,0.9,2.1,0.9c0.1,0,0.2,0,0.3,0
							c0.9-0.1,1.7-0.6,2.2-1.3l7-10.5h3.2c1,0,2-0.5,2.5-1.4l3.4-5.2l1.8,4.6c0.3,0.8,1,1.5,1.8,1.8c0.3,0.1,0.7,0.2,1,0.2
							c0.5,0,1.1-0.1,1.5-0.4c6.8-4,11.1-13.7,13-29.6c0.9-7.4,1.2-15.2,1.1-22.3c2-1,2.4-4.1,2.8-7c0.5-3.6,0.9-9.2,1.3-16.8
							c1.6-29.6-11-44.6-21.8-52.1c0.5-0.9,0.9-2.3,0.6-4.2c-0.5-2.9-3.3-7.4-20.4-12.9c-0.6-1.7-2.3-3.5-4.9-5.7
							c-8.3-7-29.8-10.6-43-12.2c-0.4-2.7-3.8-4.2-5.8-5c-3-1.3-7-2.1-12.1-2.3C272.3,111.2,271.2,111.2,270,111.2L270,111.2z"/>
					</g>
				</g>
				<g>
					<g>
						<path class="st28" d="M353.5,201.5c0.2,1,14.5-2.2,15.4-2.5c24.2-7.3,23.6-35.4,21.6-56.6c0,0-3.5-30.4,11-40.6
							c0,0-3.5,13.2-2.2,25.6c3.2,29.8,16,82.2-19.2,98.7c-1.7,0.8-20.2,8.1-20.1,8.9C360.2,235,353.5,201.5,353.5,201.5z"/>
					</g>
				</g>
				<g>
					<g>
						<path class="st18" d="M360.2,237.1c-1,0-1.8-0.7-2-1.6v0c-0.1-0.4-2.2-11.3-4.1-20.6c-1.7-8.8-2.3-11.7-2.5-12.7
							c0-0.1,0-0.1,0-0.2h0c0-0.3,0-0.3,0-0.4c0-1,0.8-1.9,1.8-2c0.4,0,0.8,0,1.1,0.2c2.4,0,12.5-2.2,13.9-2.6
							c21.5-6.5,22.4-30,20.2-54.5c-0.1-1.2-3.5-31.7,11.9-42.4c0.7-0.5,1.6-0.5,2.3,0c0.7,0.5,1,1.4,0.8,2.2c0,0.1-3.4,13-2.1,24.8
							c0.4,3.9,1,8.2,1.6,12.8c4.2,30.8,9.9,73.1-22,88c-0.5,0.2-1.7,0.7-4,1.6c-4.1,1.7-13.6,5.6-15.4,6.7
							c-0.3,0.4-0.7,0.6-1.2,0.7C360.4,237,360.3,237.1,360.2,237.1z M362.2,234.7C362.2,234.7,362.2,234.7,362.2,234.7
							C362.2,234.7,362.2,234.7,362.2,234.7z M362.2,234.7L362.2,234.7L362.2,234.7z M362.2,234.6
							C362.2,234.7,362.2,234.7,362.2,234.6C362.2,234.7,362.2,234.7,362.2,234.6C362.2,234.7,362.2,234.7,362.2,234.6L362.2,234.6z
							 M356,203.6l2.1,10.4c2,10,3,15.1,3.5,17.8c1-0.4,2.1-1,3.6-1.6c3.3-1.4,7.4-3.1,10.4-4.4c1.8-0.8,3.4-1.4,3.8-1.6
							c29.2-13.6,23.7-54.2,19.7-83.8c-0.6-4.6-1.2-8.9-1.6-12.9c-0.8-7.1,0-14.3,0.8-19.4c-8,11.9-5.7,33.7-5.6,34
							c1.5,16.4,4.6,50.5-23.1,58.8C369.5,201,361.1,203.1,356,203.6z M355.5,201.1L355.5,201.1L355.5,201.1z M355.5,201.1
							L355.5,201.1L355.5,201.1z M355.5,201.1L355.5,201.1L355.5,201.1z M355.5,201.1L355.5,201.1L355.5,201.1z M355.5,201.1
							L355.5,201.1L355.5,201.1z M355.5,201.1L355.5,201.1L355.5,201.1z M355.5,201.1L355.5,201.1L355.5,201.1z"/>
					</g>
				</g>
				<g>
					<g>
						<path class="st29" d="M325.7,205.9L248.1,280h-0.4l-77.6-74.1h52.5v-91.6c11.7-0.6,25.6,2.1,25.6,2.1s13.6-2.6,25.1-2.1v91.6
							L325.7,205.9L325.7,205.9z"/>
					</g>
				</g>
				<g>
					<g>
						<path class="st30" d="M248,354.5c-9.2,0-18.1-6-24.2-12.5c0,0-3.9-3.9-12.5-3.5c-5.8,0.2-11.6-2-15.4-6.4
							c-3.7-4.2-6.8-13.9,0.6-16.2c4.9-1.5,11.4-0.5,16.1,1c10.9,3.5,35.6,4.5,35.6,4.5s24.7-1,35.6-4.5c4.8-1.6,11.4-2.5,16.3-0.9
							c4.1,1.4,4.5,6.5,3.8,10.1c-1.8,8.2-11.2,12.5-18.8,12.2c-8.4-0.3-13,4.6-19.1,9.4C261,351.9,254.2,354.5,248,354.5z"/>
					</g>
				</g>
				<g>
					<g>
						<path class="st18" d="M201.9,315.2c3.7,0,7.6,0.8,10.6,1.8c10.9,3.5,35.6,4.5,35.6,4.5s24.7-1,35.6-4.5
							c3.1-1,6.8-1.8,10.4-1.8c2.1,0,4.1,0.2,5.9,0.8c4.1,1.4,4.5,6.5,3.8,10.1c-1.7,8-10.6,12.3-18.1,12.3c-0.2,0-0.5,0-0.7,0
							c-0.3,0-0.5,0-0.8,0c-8,0-12.5,4.8-18.3,9.5c-4.9,3.9-11.6,6.6-17.9,6.6c-9.2,0-18.1-6-24.2-12.5c0,0-3.6-3.5-11.5-3.5
							c-0.3,0-0.7,0-1,0c-0.3,0-0.5,0-0.8,0c-5.5,0-10.9-2.2-14.6-6.4c-3.7-4.2-6.8-13.9,0.6-16.2
							C198.1,315.5,200,315.2,201.9,315.2 M201.9,312.2c-2.4,0-4.5,0.3-6.4,0.9c-3.2,1-5.4,3.2-6.2,6.2c-1.4,5,1.1,11.2,4.3,14.9
							c4.1,4.7,10.3,7.4,16.9,7.4c0.3,0,0.6,0,0.9,0c0.3,0,0.6,0,0.9,0c6.1,0,9,2.4,9.3,2.7c8,8.5,17.6,13.4,26.4,13.4
							c6.7,0,14.1-2.7,19.8-7.3c0.8-0.6,1.6-1.3,2.3-1.9c4.6-3.8,8.3-6.9,14.1-6.9c0.2,0,0.4,0,0.6,0c0.3,0,0.5,0,0.8,0
							c4.4,0,9.1-1.3,12.8-3.6c4.4-2.7,7.3-6.5,8.3-11.1c1.2-5.5-0.2-11.8-5.8-13.7c-2-0.7-4.3-1-6.9-1c-3.5,0-7.6,0.7-11.4,1.9
							c-10,3.2-32.8,4.3-34.6,4.3c-1.9-0.1-24.6-1.1-34.6-4.3C211.3,313.4,206.8,312.2,201.9,312.2L201.9,312.2z"/>
					</g>
				</g>
				<g>
					<g>
						<path class="st28" d="M145,204.1c-0.2,1-14.5-2.2-15.4-2.5c-24.2-7.3-23.6-35.4-21.6-56.6c0,0,3.5-30.4-11-40.6
							c0,0,3.5,13.2,2.2,25.6c-3.2,29.8-16,82.2,19.2,98.7c1.7,0.8,20.2,8.1,20.1,8.9C138.4,237.7,145,204.1,145,204.1z"/>
					</g>
				</g>
				<g>
					<g>
						<path class="st18" d="M138.4,239.7c-0.2,0-0.3,0-0.5-0.1c-0.4-0.1-0.8-0.4-1.1-0.7c-1.8-1.1-11.3-5-15.4-6.7
							c-2.3-0.9-3.5-1.4-3.9-1.6c-31.9-14.9-26.2-57.1-22-88c0.6-4.6,1.2-8.9,1.6-12.8C98.4,118,95,105.1,95,105
							c-0.2-0.8,0.1-1.7,0.8-2.2c0.7-0.5,1.6-0.5,2.3,0c15.4,10.7,12,41.2,11.9,42.5c-2.2,24.4-1.3,47.9,20.2,54.4
							c1.4,0.4,11.6,2.6,13.9,2.6c0.7-0.3,1.5-0.3,2.1,0.2c0.6,0.5,0.9,1.2,0.8,2c0,0,0,0,0,0c0,0.2-1.9,9.5-3.6,18.2
							c-2.2,11.2-2.8,14.3-3,15.2c0,0.1,0,0.1,0,0.2l0,0c0,0.2,0,0.2-0.1,0.2C140.1,239.1,139.3,239.7,138.4,239.7z M136.4,237.3
							L136.4,237.3L136.4,237.3z M136.4,237.3L136.4,237.3L136.4,237.3z M136.4,237.3L136.4,237.3L136.4,237.3z M136.4,237.3
							C136.4,237.3,136.4,237.3,136.4,237.3C136.4,237.3,136.4,237.3,136.4,237.3z M100.3,110.8c0.8,5.1,1.6,12.4,0.8,19.4
							c-0.4,4-1,8.3-1.6,12.9c-4,29.6-9.5,70.1,19.7,83.8c0.4,0.2,1.9,0.8,3.8,1.6c3,1.2,7.1,2.9,10.4,4.4c1.5,0.6,2.6,1.1,3.6,1.6
							c0.6-2.9,1.5-7.6,2.5-12.5l2.4-12.4c0.3-1.4,0.5-2.4,0.7-3.3c-5.1-0.4-13.4-2.6-13.5-2.6c-27.7-8.3-24.6-42.4-23.1-58.7
							C106,144.6,108.4,122.7,100.3,110.8z M143.4,202.9c-0.2,0.2-0.3,0.5-0.4,0.9l0.1,0C143.2,203.4,143.3,203.1,143.4,202.9z"/>
					</g>
				</g>
				<g>
					<g>
						<g>
							<polygon class="st31" points="344.3,198.4 362.8,198.4 358,203.3 362.8,205 359.1,208.8 364.6,214.3 360,218.9 366.8,218.9 
								363.7,224.4 368.5,224.4 366.3,231.1 373.4,231.1 371.2,238.6 358.9,246.5 337.7,228 							"/>
						</g>
					</g>
					<g>
						<g>
							<path class="st18" d="M371.2,240.1c-0.1,0-0.3,0-0.4-0.1c-0.8-0.2-1.3-1.1-1-1.9l1.6-5.6h-5c-0.5,0-1-0.2-1.2-0.6
								c-0.3-0.4-0.4-0.9-0.2-1.4l1.5-4.6h-2.7c-0.5,0-1-0.3-1.3-0.8c-0.3-0.5-0.3-1,0-1.5l1.8-3.2H360c-0.6,0-1.2-0.4-1.4-0.9
								s-0.1-1.2,0.3-1.7l3.5-3.6l-4.4-4.4c-0.3-0.3-0.5-0.7-0.5-1.1s0.2-0.8,0.5-1.1l2.1-2.1l-2.6-0.9c-0.5-0.2-0.9-0.6-1-1.1
								c-0.1-0.5,0-1,0.4-1.4l2.2-2.2h-8.3c-0.8,0-1.5-0.7-1.5-1.5c0-0.8,0.7-1.5,1.5-1.5h11.9c0.6,0,1.2,0.4,1.4,0.9
								s0.1,1.2-0.3,1.7l-3.2,3.2l2.6,0.9c0.5,0.2,0.9,0.6,1,1.1c0.1,0.5,0,1-0.4,1.4l-2.7,2.7l4.4,4.4c0.3,0.3,0.5,0.7,0.5,1.1
								s-0.2,0.8-0.5,1.1l-2,2h3.2c0.5,0,1,0.3,1.3,0.8c0.3,0.5,0.3,1,0,1.5l-1.8,3.2h2.2c0.5,0,1,0.2,1.2,0.6
								c0.3,0.4,0.4,0.9,0.2,1.4l-1.5,4.6h4.9c0.5,0,0.9,0.2,1.2,0.6s0.4,0.9,0.2,1.3l-2.2,7.5C372.5,239.6,371.9,240.1,371.2,240.1
								z"/>
						</g>
					</g>
				</g>
				<g>
					<g>
						<g>
							<polygon class="st31" points="151.8,198.4 133.2,198.4 138.1,203.3 133.2,205 137,208.8 131.5,214.3 136.1,218.9 
								129.3,218.9 132.4,224.4 127.5,224.4 129.7,231.1 122.6,231.1 124.8,238.6 137.2,246.5 158.4,228 							"/>
						</g>
					</g>
					<g>
						<g>
							<path class="st18" d="M124.8,240.1c-0.7,0-1.3-0.4-1.5-1.1l-2.2-7.5c-0.1-0.5-0.1-1,0.2-1.3c0.3-0.4,0.7-0.6,1.2-0.6h4.9
								l-1.5-4.6c-0.2-0.5-0.1-1,0.2-1.4s0.8-0.6,1.2-0.6h2.2l-1.8-3.2c-0.3-0.5-0.3-1.1,0-1.5c0.3-0.5,0.8-0.8,1.3-0.8h3.2l-2-2
								c-0.6-0.6-0.6-1.6,0-2.1l4.4-4.4l-2.7-2.7c-0.4-0.4-0.5-0.9-0.4-1.4c0.1-0.5,0.5-0.9,1-1.1l2.6-0.9l-3.2-3.2
								c-0.4-0.4-0.6-1.1-0.3-1.7s0.8-0.9,1.4-0.9h11.9c0.8,0,1.5,0.7,1.5,1.5c0,0.8-0.7,1.5-1.5,1.5h-8.3l2.2,2.2
								c0.4,0.4,0.5,0.9,0.4,1.4c-0.1,0.5-0.5,0.9-1,1.1l-2.6,0.9l2.1,2.1c0.6,0.6,0.6,1.6,0,2.1l-4.4,4.4l3.6,3.6
								c0.4,0.4,0.6,1.1,0.3,1.7s-0.8,0.9-1.4,0.9h-4.2l1.8,3.2c0.3,0.5,0.3,1.1,0,1.5c-0.3,0.5-0.8,0.8-1.3,0.8h-2.7l1.5,4.6
								c0.1,0.5,0.1,1-0.2,1.4c-0.3,0.4-0.8,0.6-1.2,0.6h-5l1.6,5.6c0.2,0.8-0.2,1.6-1,1.9C125.1,240.1,125,240.1,124.8,240.1z"/>
						</g>
					</g>
				</g>
			</g>
		</g>
	</g>
</g>
</svg>
