<?xml version="1.0" encoding="utf-8"?>
<!-- Generator: Adobe Illustrator 24.0.3, SVG Export Plug-In . SVG Version: 6.00 Build 0)  -->
<svg version="1.1" id="Air_x5F_Coin" xmlns="http://www.w3.org/2000/svg" xmlns:xlink="http://www.w3.org/1999/xlink" x="0px"
	 y="0px" viewBox="0 0 500 500" style="enable-background:new 0 0 500 500;" xml:space="preserve">
<style type="text/css">
	.st0{fill:#FF841F;}
	.st1{fill:#FFB401;}
	.st2{fill:#7D0200;}
</style>
<g>
	<circle class="st0" cx="250" cy="248.25" r="241.33"/>
	<g>
		<ellipse class="st1" cx="249.99" cy="248.39" rx="218.66" ry="218.53"/>
		<path class="st2" d="M468.67,248.21c0,83.28-54.7,181.57-139.74,202.59c-59.89,14.81-133.84-12.64-175.62-56.92
			c-41.79-44.29-57.69-117.38-40.56-175.58c17.31-58.88,100.33-110.04,151.7-56.46c49.38,51.5,2.67,92.82,2.67,92.82
			c-0.17-22.02-6.24-49.38-31.56-53.75c-35-6.02-55.66,31.52-49.85,61.68c5.6,28.93,30.76,52.35,58.88,59.35
			c35.93,8.87,78.31-1.74,104.65-28.08c58.03-58.16,29.1-154.12-23.84-204.94c-54.6-52.43-129.81-43.57-199.89-20.45
			c35.34-24.52,78.23-38.9,124.46-38.9C370.76,29.57,468.67,127.44,468.67,248.21z"/>
	</g>
</g>
</svg>
