<?xml version="1.0" encoding="utf-8"?>
<!-- Generator: Adobe Illustrator 24.0.3, SVG Export Plug-In . SVG Version: 6.00 Build 0)  -->
<svg version="1.1" id="Earth_x5F_Coin" xmlns="http://www.w3.org/2000/svg" xmlns:xlink="http://www.w3.org/1999/xlink" x="0px"
	 y="0px" viewBox="0 0 500 500" style="enable-background:new 0 0 500 500;" xml:space="preserve">
<style type="text/css">
	.st0{fill:#056839;}
</style>
<g>
	<g>
		<path class="st0" d="M250,38.55c-116.8,0-211.46,94.67-211.46,211.44c0,116.8,94.67,211.46,211.46,211.46
			c116.77,0,211.44-94.67,211.44-211.46C461.44,133.22,366.77,38.55,250,38.55z M324.96,324.94H175.04V175.03h149.91V324.94z"/>
	</g>
	<g>
		<path class="st0" d="M316.27,316.27H183.72V183.72h132.55V316.27z M205,295H295V205H205V295z"/>
	</g>
	<g>
		<path class="st0" d="M250,25.78c123.83,0,224.22,100.39,224.22,224.22S373.83,474.22,250,474.22S25.78,373.83,25.78,250
			S126.17,25.78,250,25.78 M250,4.5C114.63,4.5,4.5,114.63,4.5,250S114.63,495.5,250,495.5S495.5,385.37,495.5,250
			S385.37,4.5,250,4.5L250,4.5z"/>
	</g>
</g>
</svg>
