<?xml version="1.0" encoding="utf-8"?>
<!-- Generator: Adobe Illustrator 24.0.3, SVG Export Plug-In . SVG Version: 6.00 Build 0)  -->
<svg version="1.1" id="Earth" xmlns="http://www.w3.org/2000/svg" xmlns:xlink="http://www.w3.org/1999/xlink" x="0px" y="0px"
	 viewBox="0 0 500 500" style="enable-background:new 0 0 500 500;" xml:space="preserve">
<style type="text/css">
	.st0{fill:#FFFFFF;}
</style>
<g>
	<path class="st0" d="M482.7,348.4L369,32.2c-5-14-18.5-23.5-33.4-23.5H165.2c-14.9,0-28.3,9.4-33.3,23.4L17.4,348.2
		c-3.5,9.5-5.2,19.5-5.2,29.6v82.2c0,17.2,14,31.1,31.1,31.1h173.4c15.8,0,28.7-12.9,28.7-28.7v-77.6c0-17-13.9-30.9-30.9-30.9H81.7
		c-5.8,0-10.4,4.7-10.4,10.4c0,5.8,4.7,10.4,10.4,10.4h132.8c5.5,0,10.1,4.5,10.1,10v23.4H83.4c-5.8,0-10.4,4.7-10.4,10.4
		c0,5.8,4.7,10.4,10.4,10.4h141.2v33.4c0,4.3-3.5,7.9-7.9,7.9H43.3c-5.7,0-10.3-4.6-10.3-10.3v-82.2c0-7.7,1.3-15.3,4-22.5
		L151.5,39.2c2.1-5.8,7.6-9.6,13.7-9.6h170.5c6.1,0,11.7,3.9,13.8,9.7l113.7,316.2c2.6,7.2,3.9,14.7,3.9,22.4v82.3
		c0,5.7-4.6,10.3-10.3,10.3H298.8c-4.3,0-7.9-3.5-7.9-7.9v-33.4h138c5.8,0,10.4-4.7,10.4-10.4c0-5.8-4.7-10.4-10.4-10.4H291v-23.4
		c0-5.5,4.5-10,10-10h127.9c5.8,0,10.4-4.7,10.4-10.4c0-5.8-4.7-10.4-10.4-10.4H301c-17,0-30.9,13.9-30.9,30.9v77.6
		c0,15.8,12.9,28.7,28.7,28.7h157.9c17.2,0,31.1-14,31.1-31.1v-82.3C487.9,367.7,486.1,357.8,482.7,348.4z"/>
	<path class="st0" d="M290.6,199.1c-0.6,0.8-1.1,1.6-1.7,2.3l-1,1.1c-0.3,0.4-0.7,0.7-1.1,1c-1.5,1.3-3.3,2.4-5.1,3.3
		c-1.8,0.9-3.6,1.4-5.5,1.6c-1.9,0.3-3.8,0.2-5.8-0.2c-2-0.4-4-1-5.9-1.9c-2-0.9-3.9-2.1-5.7-3.5c-1.8-1.4-3.6-2.9-5.3-4.6l-0.1-0.1
		c-0.7-0.7-1.9-0.9-2.9-0.5c-1.3,0.6-1.8,2.1-1.2,3.4c2.3,4.9,5.9,9.4,10.6,12.8c4.7,3.3,10.8,5.6,17.2,5.2c3.1-0.2,6.3-0.9,9.1-2.2
		c2.8-1.3,5.3-2.8,7.7-4.7c0.6-0.4,1.2-1,1.7-1.5l1.6-1.6c1-1.1,1.9-2.4,2.9-3.7c0.7-1.4,1.6-2.7,2.2-4.1c0.6-1.4,1.2-2.9,1.5-4.4
		c1.6-6,1.4-12.1,0.1-17.7c-1.3-5.7-3.6-10.9-6.7-15.8c-3.1-4.8-7.1-9.1-11.8-12.6c-4.7-3.4-10-6-15.7-7.4
		c-11.3-2.9-23.6-1.4-33.9,3.8c-10.3,5.2-18.8,13.8-23.9,23.9c-5.3,10.1-7.4,21.5-7.2,32.6c0.3,11.1,3,22.1,8.1,32.2
		c2.6,5,5.7,9.7,9.5,14c3.8,4.3,8.2,8,13.1,11c9.8,6.2,21.1,9.1,32.2,9.8c5.5,0.3,11,0.1,16.5-0.5c5.5-0.7,10.7-1.7,16.2-3.4
		c1.5-0.5,2.8-1,4.1-1.5s2.6-1,3.9-1.6c1.3-0.6,2.5-1.2,3.8-1.8l3.7-2.1c4.8-2.9,9.3-6.3,13.4-10.1c4.1-3.8,7.7-8.1,10.9-12.6
		c3.2-4.5,6-9.3,8.2-14.4c2.3-5,4.1-10.2,5.6-15.5c1.4-5.3,2.4-10.7,3-16.1c0.6-5.4,0.7-10.9,0.5-16.3c-0.2-5.4-0.9-10.9-2-16.2
		c-2.2-10.7-6.2-21.2-12-30.6c-5.7-9.4-13.3-17.7-21.9-24.6c-8.6-6.8-18.4-12.1-28.7-15.8c-20.6-7.4-43.1-8.3-64.2-3.2
		c-5.3,1.2-10.4,3.1-15.5,5l-7.4,3.4c-1.3,0.5-2.4,1.3-3.6,1.9l-3.5,2c-9.3,5.6-17.8,12.7-25,20.8c-14.4,16.4-23.4,37-26.6,58.2
		c-1.5,10.6-1.6,21.4-0.4,32.1l1.1,7.9l1.8,7.8l0.4,1.9l0.6,1.9l1.2,3.8c0.4,1.3,0.8,2.6,1.2,3.8l1.5,3.7
		c7.7,19.9,21.2,37.7,38.7,50.1c17.4,12.5,39,18.8,60.1,18.5c10.6-0.2,21.1-1.9,31.1-5c10-3.1,19.5-7.6,28.3-13.1
		c1.5-1,2.1-3,1.2-4.6c-0.9-1.7-3.1-2.3-4.8-1.4l0,0c-17.1,9.5-36.5,14.8-55.7,14.3c-2.4,0-4.8-0.2-7.2-0.5l-7.1-1.1l-1.8-0.3
		l-1.7-0.4l-3.5-0.9c-1.1-0.3-2.3-0.6-3.5-0.9l-3.4-1.2c-9-3.1-17.5-7.4-25-13.3c-15-11.5-26.7-27.4-33.1-45.2l-1.2-3.3
		c-0.4-1.1-0.7-2.3-1-3.4l-1-3.4l-0.5-1.7l-0.4-1.7l-1.4-7l-0.9-7.1c-0.9-9.4-0.6-18.9,0.8-28.3c1.5-9.3,4.4-18.4,8.4-26.8
		c4-8.4,9-16.4,15.3-23.3c12.5-13.8,29-23.8,47.2-27.9c18.1-4.4,37.5-3.5,55,2.8c17.4,6.2,32.7,18,42.2,33.7c2.4,3.9,4.4,8,6.1,12.2
		c1.7,4.3,2.9,8.7,3.9,13.2c1,4.5,1.6,9.1,1.8,13.7c0.2,4.6,0.2,9.3-0.3,13.9c-1.8,18.4-9.5,36.4-22.6,48.8
		c-3.3,3.1-6.8,5.8-10.6,8.2l-2.9,1.7c-1,0.5-2,1-3,1.5c-1,0.5-2,0.9-3.1,1.3c-1,0.4-2.1,0.9-3,1.1c-4.2,1.3-8.9,2.3-13.4,2.9
		c-4.6,0.6-9.2,0.8-13.7,0.6c-9.1-0.4-17.9-2.7-25.3-7.2c-3.7-2.2-7.1-5-10.1-8.2c-2.9-3.2-5.5-6.9-7.6-10.9
		c-4.2-7.9-6.5-16.9-6.9-26c-0.3-9,1.4-18.1,5.3-26c1.9-3.9,4.4-7.6,7.5-10.7c3-3.1,6.6-5.8,10.4-7.8c7.6-4,16.6-5.3,24.9-3.3
		c8.4,2,15.7,7.2,20.5,14.5c2.4,3.6,4.3,7.7,5.3,11.8c1,4.2,1.1,8.4,0.2,12.2C292.4,195.6,291.5,197.4,290.6,199.1z"/>
</g>
</svg>
