<?xml version="1.0" encoding="utf-8"?>
<!-- Generator: Adobe Illustrator 24.0.3, SVG Export Plug-In . SVG Version: 6.00 Build 0)  -->
<svg version="1.1" id="Fire" xmlns="http://www.w3.org/2000/svg" xmlns:xlink="http://www.w3.org/1999/xlink" x="0px" y="0px"
	 viewBox="0 0 500 500" style="enable-background:new 0 0 500 500;" xml:space="preserve">
<style type="text/css">
	.st0{fill:#FFFFFF;}
</style>
<path class="st0" d="M460.6,345.1l-0.2-3.6l-0.4-3.6c-0.2-2.4-0.7-4.8-1-7.1c-0.5-2.4-0.9-4.7-1.6-7c-0.3-1.2-0.6-2.3-0.9-3.5
	l-1.1-3.4c-1.3-4.6-3.1-8.9-4.9-13.3c-1.9-4.3-3.8-8.6-5.9-12.6c-4.2-8.3-8.8-16.2-13.4-24c-4.6-7.8-9.4-15.5-13.8-23.3
	c-4.4-7.8-8.6-15.6-12-23.8c-0.4-1-0.9-2-1.3-3l-1.1-3.1c-0.7-2.1-1.6-4.1-2.2-6.2l-1.9-6.3l-1.4-6.4c-2-8.4-1.6-17-0.2-25.6
	c1.5-8.6,3.9-17.1,6.8-25.6c2.9-8.5,6-17,9-25.6c0.3-1,0.3-2.1-0.3-3.1c-1-1.7-3.3-2.3-5-1.3l-0.1,0c-7.5,4.4-14.8,9.2-21.9,14.2
	c-7.2,4.9-14.2,10.2-21,15.8c-13.6,11.2-26,23.8-36.4,38.3c-10.5,15-16.7,32.7-19,50.6c-1.2,8.9-1.5,18-1,26.9
	c0.1,1.9,0.3,3.8,0.5,5.8c-4-5.3-7.9-10.6-11.4-16c-3.2-4.9-6.2-10-8.6-15.1c-2.4-5.1-4.3-10.4-5.2-15.6c-0.9-5.2-1-10.3-0.1-15.7
	c0.9-5.4,2.6-10.9,4.6-16.4c2-5.6,4.4-11.2,6.7-17.1c2.3-5.9,4.6-12.1,6.1-18.7c3-12.5,5-25.3,5.4-38.3c0.4-13-0.7-26.2-4-38.9
	c-3.3-12.7-8.4-24.7-14.7-35.8c-3.2-5.5-6.6-11-10.2-16.2c-3.8-5.1-7.5-10.2-11.8-14.9l-0.4-0.4c-0.7-0.7-1.6-1.2-2.7-1.3
	c-2.2-0.1-4,1.5-4.2,3.7v0c-1,6.3-1.8,12.5-2.8,18.7c-0.9,6.2-2,12.4-3.2,18.5c-1.2,6.1-2.5,12.2-4,18.2c-0.8,3-1.6,6-2.5,8.9
	c-0.9,2.9-1.7,5.5-3,8.2c-4.7,10.6-12.2,20.3-20.8,29.3c-4.3,4.5-8.8,8.9-13.5,13.1l-7.1,6.4c-2.4,2.2-4.8,4.3-7.2,6.4
	c-4.8,4.3-9.6,8.6-14.3,13.1c-4.8,4.4-9.4,9.1-13.7,14.2c-8.7,10-16.1,21.9-19.8,35.3c-1.8,6.7-2.8,13.6-3,20.4
	c0,6.8,0.5,13.6,2,20.2c2.8,13.1,8.4,25.5,16.5,35.6l0.1,0.1c0.2,0.3,0.6,0.4,0.9,0.2c0.4-0.2,0.6-0.6,0.4-1
	c-2.7-5.7-4.8-11.7-6.4-17.7c-1.7-6-2.8-12.1-3.3-18.3c-1.1-12.3,0.4-24.7,4.5-35.9c4-11.3,10.6-21.5,18.5-30.7
	c3.9-4.6,8.1-9.1,12.5-13.4c4.4-4.3,8.9-8.6,13.6-12.8l14.1-12.6c4.8-4.2,9.5-8.8,14.1-13.5c4.6-4.7,8.9-9.8,12.9-15.3
	c3.9-5.5,7.4-11.4,10.1-17.9c0.6-1.6,1.3-3.2,1.8-4.9c0.5-1.6,1.1-3.4,1.5-4.9c0.8-3.2,1.6-6.3,2.3-9.5c1.4-6.4,2.5-12.8,3.4-19.2
	c1.2-8.4,2-16.8,2.7-25.1c0.9,1.6,1.7,3.2,2.5,4.8c2.9,5.4,5.5,10.8,8,16.2c2.4,5.5,4.8,11,6.8,16.6c2,5.6,3.8,11.2,5.1,16.9
	c2.8,11.3,3.7,23,3.2,34.8c-0.5,11.8-2.4,23.6-5.3,35.2c-2.7,11-8.1,21.9-12.6,34c-2.3,6-4.3,12.4-5.5,19.2
	c-0.2,1.7-0.5,3.4-0.7,5.2c-0.1,1.8-0.3,3.5-0.3,5.3c0,3.6,0.3,7.2,0.9,10.7c1.2,7,3.5,13.5,6.3,19.6c2.8,6.1,6.1,11.8,9.6,17.2
	c7,10.9,14.8,20.8,22.2,30.6c0.9,1.2,1.9,2.5,2.7,3.6l2.5,3.6c0.9,1.2,1.6,2.4,2.4,3.6l2.3,3.7l2.1,3.8l1,1.9l0.9,2l1.8,3.9l1.6,4
	l0.8,2l0.6,2l1.3,4.1l1,4.1c0.2,0.7,0.4,1.4,0.5,2.1l0.4,2.1c1.1,5.5,1.3,11.2,1.3,16.7c-0.4,11.2-2.9,22.3-7.8,32.5l-1.8,3.8
	l-2.1,3.7c-0.6,1.3-1.5,2.4-2.2,3.6l-1.1,1.8l-1.2,1.7c-3.3,4.6-7,8.9-11.1,12.7c-16.3,15.5-39.3,23.2-62,22.4
	c-11.3-0.4-22.5-3.1-32.8-7.7c-10.2-4.6-19.6-11.3-26.8-19.6c-7.3-8.4-12.4-18.4-14.7-29.1c-1.2-5.4-1.6-10.9-1.5-16.4
	c0.2-5.5,1.1-11.1,2.4-16.5c5.4-21.5,21.2-40.6,41.1-50.9c10-5,21-7.9,32-7.5c1.4,0.1,2.7,0.1,4.1,0.3l2.1,0.2l2,0.4
	c2.7,0.4,5.4,1.1,7.9,2c5.1,1.7,9.8,4.3,14,7.6c8.3,6.7,14.4,16.3,17.7,26.9c3.3,10.6,3.9,22.1,1.9,33.1c-1.9,11-6.5,21.7-13.6,29.5
	c-3.5,3.9-7.7,7-12.4,9c-4.7,2-9.7,3-15.2,3.1c-5.4,0.2-10.8-0.6-15.9-2.1c-5.1-1.5-9.7-4.2-13.7-7.6c-3.8-3.5-7-7.8-9-12.7
	c-1.9-5-2.8-10.4-2.7-15.8c0.1-10.8,5-21.3,13.2-27.3c1.1-0.7,2.1-1.4,3.2-2c1.1-0.6,2.3-1.1,3.4-1.6c2.4-0.9,4.9-1.4,7.4-1.7
	c2.5-0.2,5,0,7.5,0.4c2.4,0.5,4.7,1.4,6.8,2.6c4.2,2.4,7.7,6.2,9.3,10.7c1.7,4.5,1.5,9.5-0.4,13.9c-1.9,4.6-5.3,7.5-10.1,8.5
	c-4.8,1.1-10.5,0.2-15.9-1.6c-1.7-0.6-3.6,0.2-4.4,1.9c-0.8,1.8,0,3.9,1.8,4.7l0,0c3,1.4,6.1,2.5,9.5,3.2c3.3,0.7,6.9,1,10.5,0.6
	c3.6-0.4,7.4-1.8,10.5-4.1c3.2-2.3,5.6-5.5,7.3-8.8c1.7-3.3,2.8-7,3.1-10.8c0.3-3.8-0.2-7.7-1.3-11.3c-2.3-7.3-7.4-13.5-13.8-17.5
	c-3.2-2-6.8-3.5-10.4-4.4c-3.7-0.8-7.4-1.1-11.2-0.9c-3.7,0.2-7.4,1-10.9,2.2c-1.8,0.6-3.5,1.3-5.1,2.2c-1.7,0.9-3.2,1.9-4.8,2.9
	c-6.1,4.3-11,10.2-14.2,16.8c-3.2,6.6-4.9,13.8-5.1,20.9c-0.2,7.2,0.9,14.4,3.4,21.3c2.6,6.8,6.9,13.1,12.2,18.2
	c5.4,5,11.9,8.8,18.7,11.1c6.8,2.4,13.9,3.5,21,3.4c6.9,0,14.5-1.3,21.3-4.2c6.8-2.9,12.9-7.4,17.8-12.8c4.9-5.3,8.7-11.4,11.6-17.7
	c2.9-6.3,4.9-12.9,6.1-19.7c2.5-13.4,1.8-27.6-2.2-40.9c-4.1-13.2-11.7-25.8-23-34.9c-5.6-4.5-12.1-8-18.9-10.4
	c-3.4-1.2-6.8-2.1-10.3-2.8l-2.6-0.5l-2.6-0.3c-1.7-0.2-3.5-0.3-5.3-0.4c-3.3-0.2-6.5-0.1-9.8,0.1c-0.1-0.1-0.2-0.3-0.3-0.5
	c-1.9-2.8-5-5.5-6.9-9.1c-0.4-0.9-0.9-1.8-1.1-2.8c-0.3-1-0.4-1.9-0.7-2.9c-0.3-2-0.8-3.9-0.9-6c-0.2-2-0.3-4.1-0.3-6.1
	c0.1-2.1,0.1-4.1,0.3-6.2c0.3-4.1,0.8-8.2,1.7-12.3c0.4-2,0.9-4,1.4-6c0.6-2,1-4,1.7-5.9c2.5-7.9,5.9-15.5,9.9-23.1
	c3.9-7.6,8.2-15.1,12.1-23c4-7.9,7.8-16,11.2-24.3c1.7-4.2,3.3-8.4,4.6-12.7c1.4-4.3,2.5-8.7,3.5-13.1c0.5-2.2,0.9-4.4,1.3-6.7
	c0.3-2.2,0.6-4.5,0.8-6.7c0.4-4.5,0.6-9,0.3-13.5v-0.1c0-0.9-0.7-1.6-1.6-1.7c-1-0.1-1.9,0.6-2.1,1.6c-2,17.2-8.5,33.2-16.3,48.4
	c-3.9,7.7-8.4,15-12.8,22.6c-4.5,7.5-8.8,15.2-12.9,23.2c-1,2-2,4-3,6.1c-1,2-2,4.1-2.9,6.1c-0.9,2.1-1.9,4.2-2.7,6.3
	c-0.9,2.1-1.8,4.3-2.6,6.5c-0.8,2.2-1.6,4.4-2.3,6.6c-0.7,2.2-1.4,4.6-2,6.8c-1.2,4.5-2.2,9.2-2.9,13.9c-0.4,2.4-0.5,4.8-0.7,7.2
	c-0.1,2.4-0.1,4.9,0.1,7.3c0,1.2,0.1,2.5,0.3,3.7c0.2,1.2,0.3,2.5,0.5,3.7c0.4,2.5,1,5,1.9,7.4c1.1,3.1,2.9,6,5,8.7
	c-4.3,1.4-8.4,3-12.4,5c-12.3,6.1-23.2,14.9-31.9,25.4c-2.9,3.5-5.5,7.2-7.9,11.1c-1.1-7.1-2.3-14.3-3.7-21.4
	c-1.6-7.7-3.4-15.3-5.9-22.9c-1.2-3.8-2.6-7.6-4.1-11.3c-0.8-1.9-1.6-3.7-2.5-5.6c-0.4-0.9-0.9-1.8-1.4-2.8
	c-0.5-0.9-1.1-1.9-1.6-2.8c-4.6-7.3-10.8-13.1-17.2-18c-6.5-4.8-13.5-8.7-20.6-12.1c-7.1-3.4-14.4-6.3-21.7-8.9
	c-7.3-2.7-14.7-5-22.2-7.1c-0.9-0.2-1.8-0.2-2.7,0.2c-2,0.9-2.8,3.2-1.9,5.2v0c2.4,5,4.7,10.1,6.8,15.1c2.2,5.1,4.2,10.2,5.8,15.4
	c1.6,5.2,3,10.4,4,15.7c0.9,5.3,1.5,10.6,1.5,15.8c0.1,10.5-1.8,20.8-5.9,30.2c-4.2,9.6-10.2,18.8-15.6,29.2
	c-2.7,5.2-5.2,10.7-7.1,16.5c-1.9,5.8-3.1,11.9-3.8,18c-0.5,6.1-0.6,12.3,0.2,18.4c0.7,6.1,2.1,12.1,4.2,17.9c1,2.9,2.2,5.7,3.6,8.5
	c1.4,2.8,2.9,5.4,4.6,8c3.3,5.2,7.3,9.8,11.7,13.9c4.5,4.1,9.3,7.6,14.6,10.4c5.2,2.8,10.8,4.9,16.5,6l0.2,0c0.3,0,0.6-0.1,0.8-0.4
	c0.2-0.4,0.1-0.8-0.3-1c-4.9-2.6-9.4-5.8-13.6-9.4c-4.2-3.5-8-7.4-11.4-11.6c-6.9-8.3-12-18-15-28.2c-1.5-5.1-2.5-10.3-2.9-15.6
	c-0.4-5.3-0.3-10.6,0.3-15.8c0.6-5.2,1.8-10.3,3.4-15.3c1.5-4.9,3.7-9.7,6.2-14.5c4.8-9.6,10.9-19.2,15.4-30.2
	c4.5-11.2,6.4-23.5,5.3-35.4c-0.9-11.9-4.1-23.2-8.2-33.9c-3.1-7.8-6.5-15.4-10.1-22.9c4.3,1.4,8.7,3,12.9,4.6
	c7,2.8,13.8,6,20.3,9.6c6.5,3.6,12.6,7.7,18.1,12.4c5.5,4.6,10.3,9.8,13.6,15.7c0.8,1.4,1.6,3,2.3,4.6c0.8,1.6,1.5,3.2,2.1,4.9
	c1.3,3.4,2.5,6.8,3.6,10.3c2.1,7,3.7,14.3,5.1,21.7c1.4,7.4,2.5,14.8,3.4,22.3c1,7.1,1.8,14.2,2.5,21.3c-0.1,0.2-0.1,0.3-0.1,0.5
	c-1.7,6.7-2.8,13.5-3,20.4c-0.2,6.9,0.4,13.9,1.9,20.8c2.9,13.7,9.6,26.5,18.7,37c9.1,10.5,20.6,18.6,33,24.2
	c12.4,5.6,25.9,8.7,39.4,9.2c13.6,0.5,27.1-1.5,40-6.1c6.4-2.3,12.6-5.2,18.5-8.7c5.8-3.6,11.3-7.7,16.3-12.4
	c5-4.6,9.5-9.8,13.4-15.3l1.5-2.1l1.4-2.1c0.9-1.4,1.9-2.8,2.6-4.3l2.5-4.4l2.2-4.6c1.5-3,2.6-6.2,3.9-9.4c0.6-1.6,1-3.2,1.5-4.9
	c0.5-1.6,1-3.2,1.4-4.9l1.1-5c0.4-1.7,0.5-3.4,0.8-5.1c0.5-3.4,0.6-6.8,0.8-10.2c0-6.8-0.4-13.7-1.7-20.3l-0.5-2.5
	c-0.2-0.8-0.4-1.6-0.6-2.5l-1.2-4.9l-1.6-4.8l-0.8-2.4l-0.9-2.3l-1.9-4.7l-2.2-4.5l-1.1-2.2l-1.2-2.2l-2.4-4.4l-2.6-4.2
	c-0.9-1.4-1.8-2.8-2.7-4.1l-0.5-0.7c0.1-0.8,0.1-1.6,0-2.4v0c-1.7-8.1-2.8-16.4-3.2-24.6c-0.5-8.2-0.3-16.5,0.6-24.6
	c1.9-16.2,7.2-32.1,16.3-45.4c4.6-6.8,9.8-13.5,15.3-19.8c5.6-6.3,11.3-12.4,17.5-18.2c6.2-5.8,12.7-11.2,19.4-16.4
	c4-3,8-5.8,12.1-8.5c-5,13.6-10.4,27.3-13,42.2c-0.7,4.6-1.4,9.3-1.4,14.1l0,1.8l0.1,1.8c0,1.2,0.1,2.4,0.2,3.6
	c0.3,2.4,0.5,4.9,1,7.1l1.4,6.9l1.9,6.8c0.6,2.3,1.4,4.4,2.2,6.6l1.1,3.3c0.4,1.1,0.9,2.1,1.3,3.2c6.9,17.3,16.2,33.2,24.9,48.9
	c4.4,7.9,8.6,15.8,12.3,23.8c1.9,4,3.5,8.1,5.2,12.1c1.5,4.1,3,8.2,4.1,12.4c2.4,8.3,3.8,16.6,3.7,25.1c0,1.1,0,2.1,0,3.2
	c-0.1,1,0,2.1-0.1,3.2c-0.2,2.1-0.4,4.2-0.8,6.3c-0.3,2.1-0.8,4.1-1.1,6.2c-0.5,2-0.9,4.1-1.5,6.1c-2.2,8.1-4.9,16.1-8.6,23.7
	c-3.8,7.6-8.4,14.8-13.8,21.5c-10.8,13.3-24.4,24.6-40.2,32.4c-6.1,3.1-12.4,5.8-18.8,8.4c2.4-2.5,4.7-5.2,6.8-7.9
	c5-6.4,9.2-13.3,12.8-20.5c3.5-7.2,6.3-14.8,8.5-22.4c2.2-7.6,3.6-15.5,4.5-23.3c0.9-7.8,1.3-15.7,1-23.5c-0.2-7.8-1-15.6-2.2-23.3
	c-1.2-7.7-2.9-15.3-5.3-22.7c-0.6-1.8-1.2-3.7-1.8-5.5l-1.9-5.3l-3.8-10.5c-2.5-6.9-5.2-13.7-7.4-20.5c-2.3-6.8-4.1-13.7-5.5-20.6
	c-0.7-3.5-1.2-7-1.5-10.5c-0.2-1.8-0.3-3.5-0.4-5.3c-0.1-1.8-0.2-3.6-0.2-5.4c-0.2-7.3-0.1-14.6,0.2-22c0.1-3.7,0.4-7.4,0.6-11
	c0.2-3.7,0.5-7.4,0.8-11.1l-1.5-0.3c-0.9,3.6-1.8,7.2-2.6,10.8c-0.8,3.6-1.5,7.3-2.2,10.9c-1.3,7.3-2.4,14.7-3.2,22.2
	c-0.8,7.5-0.8,15.3-0.1,22.9c0.7,7.6,2,15.2,3.7,22.5c1.7,7.4,3.6,14.6,5.7,21.7l3.1,10.6c1,3.5,2,7,2.8,10.4
	c3.2,13.8,4.9,27.9,4.6,42c-0.3,14-2.1,28-6.1,41.3c-2,6.6-4.5,13-7.6,19.1c-3,6.1-6.5,12-10.6,17.3c-4.1,5.4-8.7,10.2-13.9,14.6
	c-5.1,4.4-10.6,8.1-16.6,11.2c-11.9,6.3-25.5,10-39.4,12.3c-13.9,2.3-28.4,3.2-42.8,3.3c-14.3,0-28.6-1.1-42.2-4.1
	c-13.6-3-26.7-7.8-37.9-15.4c-11.4-7.5-21.2-17.4-28.7-28.8c-7.6-11.3-12.7-24.3-14.5-37.8c-0.4-3.4-0.7-6.8-0.8-10.2
	c-0.1-3.5,0-7,0.2-10.5c0.4-7.1,1.2-14.3,2-21.6c0.8-7.3,1.8-14.8,2.1-22.4c0.2-3.8,0.2-7.6,0.2-11.4c0-3.8-0.2-7.5-0.4-11.3
	c-0.2-3.8-0.6-7.5-1-11.3c-0.5-3.7-1.2-7.5-2-11.1c-0.8-3.7-1.8-7.3-2.8-10.9c-1.1-3.6-2.5-7.1-3.9-10.5l-1.4,0.5
	c1.7,7.2,2.9,14.4,3.4,21.6c0.2,3.6,0.4,7.3,0.4,10.9c0.1,3.6,0,7.2-0.2,10.9c-0.2,3.6-0.4,7.2-0.8,10.9c-0.3,3.6-0.8,7.2-1.3,10.8
	c-1.1,7.1-2.4,14.3-3.9,21.6c-1.4,7.3-2.7,14.7-3.6,22.3c-0.8,7.6-1.3,15.5-0.5,23.5c1.4,15.9,6.9,31.4,15.2,44.9
	c8.5,13.5,19.8,25.1,32.9,34.1c13.3,9,28.5,14.6,43.6,18c15.2,3.4,30.6,4.6,45.8,4.6c15.1,0.1,30.3-0.4,45.6-2.7
	c7.6-1.1,15.3-2.7,22.9-4.8c7.6-2.1,15.1-4.8,22.4-8.4c6.1-3,12-6.7,17.5-10.9c3.3-0.6,6.6-1.2,10-1.9c8.9-2,17.7-5,26.5-8.5
	c4.4-1.8,8.8-3.8,13-6c4.2-2.4,8.3-4.9,12.2-7.7c7.9-5.5,15-12.1,21.3-19.4c3.2-3.6,6.1-7.5,8.9-11.4c2.7-4,5.2-8.1,7.5-12.4
	c4.5-8.6,8-17.7,10.1-27.2C460.5,364.5,461.1,354.8,460.6,345.1z"/>
</svg>
