<?xml version="1.0" encoding="utf-8"?>
<!-- Generator: Adobe Illustrator 24.0.3, SVG Export Plug-In . SVG Version: 6.00 Build 0)  -->
<svg version="1.1" id="Lotus" xmlns="http://www.w3.org/2000/svg" xmlns:xlink="http://www.w3.org/1999/xlink" x="0px" y="0px"
	 viewBox="0 0 500 500" style="enable-background:new 0 0 500 500;" xml:space="preserve">
<style type="text/css">
	.st0{fill:#FFFFFC;}
	.st1{fill:#FFFFFE;}
</style>
<g>
	<path class="st0" d="M249.65,235.78c-8.22,0-14.89,6.66-14.89,14.88c0,8.22,6.67,14.88,14.89,14.88c8.21,0,14.88-6.66,14.88-14.88
		C264.53,242.44,257.86,235.78,249.65,235.78z M249.65,235.78c-8.22,0-14.89,6.66-14.89,14.88c0,8.22,6.67,14.88,14.89,14.88
		c8.21,0,14.88-6.66,14.88-14.88C264.53,242.44,257.86,235.78,249.65,235.78z M300.23,250.66c0-8.15-6.55-14.77-14.67-14.87
		c5.66-5.82,5.61-15.14-0.15-20.9c-5.76-5.76-15.07-5.81-20.89-0.15c-0.11-8.12-6.73-14.66-14.87-14.66
		c-8.15,0-14.77,6.54-14.88,14.66c-5.82-5.66-15.13-5.61-20.89,0.15c-5.76,5.76-5.81,15.08-0.15,20.9
		c-8.11,0.11-14.67,6.72-14.67,14.87c0,8.15,6.56,14.76,14.67,14.87c-5.66,5.82-5.61,15.13,0.15,20.9
		c5.76,5.76,15.07,5.81,20.89,0.15c0.11,8.12,6.73,14.66,14.88,14.66c8.14,0,14.76-6.54,14.87-14.66
		c5.82,5.66,15.13,5.61,20.89-0.15c5.76-5.77,5.81-15.08,0.15-20.9C293.68,265.43,300.23,258.81,300.23,250.66z M264.37,265.38
		c-2.86,2.85-4.31,6.57-4.35,10.31c-2.67-2.61-6.33-4.21-10.37-4.21c-4.04,0-7.7,1.6-10.38,4.21c-0.04-3.74-1.5-7.46-4.35-10.31
		c-2.84-2.84-6.56-4.3-10.3-4.35c2.6-2.67,4.21-6.33,4.21-10.37c0-4.04-1.61-7.7-4.21-10.37c3.74-0.05,7.46-1.51,10.3-4.35
		c2.85-2.85,4.31-6.58,4.35-10.31c2.68,2.61,6.34,4.21,10.38,4.21c4.04,0,7.7-1.6,10.37-4.21c0.04,3.73,1.49,7.46,4.35,10.31
		c2.86,2.85,6.57,4.31,10.31,4.35c-2.6,2.67-4.21,6.33-4.21,10.37c0,4.04,1.61,7.7,4.21,10.37
		C270.94,261.07,267.23,262.53,264.37,265.38z M249.65,235.78c-8.22,0-14.89,6.66-14.89,14.88c0,8.22,6.67,14.88,14.89,14.88
		c8.21,0,14.88-6.66,14.88-14.88C264.53,242.44,257.86,235.78,249.65,235.78z M249.65,235.78c-8.22,0-14.89,6.66-14.89,14.88
		c0,8.22,6.67,14.88,14.89,14.88c8.21,0,14.88-6.66,14.88-14.88C264.53,242.44,257.86,235.78,249.65,235.78z M249.65,235.78
		c-8.22,0-14.89,6.66-14.89,14.88c0,8.22,6.67,14.88,14.89,14.88c8.21,0,14.88-6.66,14.88-14.88
		C264.53,242.44,257.86,235.78,249.65,235.78z M249.65,235.78c-8.22,0-14.89,6.66-14.89,14.88c0,8.22,6.67,14.88,14.89,14.88
		c8.21,0,14.88-6.66,14.88-14.88C264.53,242.44,257.86,235.78,249.65,235.78z M249.65,235.78c-8.22,0-14.89,6.66-14.89,14.88
		c0,8.22,6.67,14.88,14.89,14.88c8.21,0,14.88-6.66,14.88-14.88C264.53,242.44,257.86,235.78,249.65,235.78z M300.23,250.66
		c0-8.15-6.55-14.77-14.67-14.87c5.66-5.82,5.61-15.14-0.15-20.9c-5.76-5.76-15.07-5.81-20.89-0.15
		c-0.11-8.12-6.73-14.66-14.87-14.66c-8.15,0-14.77,6.54-14.88,14.66c-5.82-5.66-15.13-5.61-20.89,0.15
		c-5.76,5.76-5.81,15.08-0.15,20.9c-8.11,0.11-14.67,6.72-14.67,14.87c0,8.15,6.56,14.76,14.67,14.87
		c-5.66,5.82-5.61,15.13,0.15,20.9c5.76,5.76,15.07,5.81,20.89,0.15c0.11,8.12,6.73,14.66,14.88,14.66
		c8.14,0,14.76-6.54,14.87-14.66c5.82,5.66,15.13,5.61,20.89-0.15c5.76-5.77,5.81-15.08,0.15-20.9
		C293.68,265.43,300.23,258.81,300.23,250.66z M264.37,265.38c-2.86,2.85-4.31,6.57-4.35,10.31c-2.67-2.61-6.33-4.21-10.37-4.21
		c-4.04,0-7.7,1.6-10.38,4.21c-0.04-3.74-1.5-7.46-4.35-10.31c-2.84-2.84-6.56-4.3-10.3-4.35c2.6-2.67,4.21-6.33,4.21-10.37
		c0-4.04-1.61-7.7-4.21-10.37c3.74-0.05,7.46-1.51,10.3-4.35c2.85-2.85,4.31-6.58,4.35-10.31c2.68,2.61,6.34,4.21,10.38,4.21
		c4.04,0,7.7-1.6,10.37-4.21c0.04,3.73,1.49,7.46,4.35,10.31c2.86,2.85,6.57,4.31,10.31,4.35c-2.6,2.67-4.21,6.33-4.21,10.37
		c0,4.04,1.61,7.7,4.21,10.37C270.94,261.07,267.23,262.53,264.37,265.38z M249.65,235.78c-8.22,0-14.89,6.66-14.89,14.88
		c0,8.22,6.67,14.88,14.89,14.88c8.21,0,14.88-6.66,14.88-14.88C264.53,242.44,257.86,235.78,249.65,235.78z M249.65,235.78
		c-8.22,0-14.89,6.66-14.89,14.88c0,8.22,6.67,14.88,14.89,14.88c8.21,0,14.88-6.66,14.88-14.88
		C264.53,242.44,257.86,235.78,249.65,235.78z M249.65,235.78c-8.22,0-14.89,6.66-14.89,14.88c0,8.22,6.67,14.88,14.89,14.88
		c8.21,0,14.88-6.66,14.88-14.88C264.53,242.44,257.86,235.78,249.65,235.78z M249.65,235.78c-8.22,0-14.89,6.66-14.89,14.88
		c0,8.22,6.67,14.88,14.89,14.88c8.21,0,14.88-6.66,14.88-14.88C264.53,242.44,257.86,235.78,249.65,235.78z M249.65,235.78
		c-8.22,0-14.89,6.66-14.89,14.88c0,8.22,6.67,14.88,14.89,14.88c8.21,0,14.88-6.66,14.88-14.88
		C264.53,242.44,257.86,235.78,249.65,235.78z M300.23,250.66c0-8.15-6.55-14.77-14.67-14.87c5.66-5.82,5.61-15.14-0.15-20.9
		c-5.76-5.76-15.07-5.81-20.89-0.15c-0.11-8.12-6.73-14.66-14.87-14.66c-8.15,0-14.77,6.54-14.88,14.66
		c-5.82-5.66-15.13-5.61-20.89,0.15c-5.76,5.76-5.81,15.08-0.15,20.9c-8.11,0.11-14.67,6.72-14.67,14.87
		c0,8.15,6.56,14.76,14.67,14.87c-5.66,5.82-5.61,15.13,0.15,20.9c5.76,5.76,15.07,5.81,20.89,0.15
		c0.11,8.12,6.73,14.66,14.88,14.66c8.14,0,14.76-6.54,14.87-14.66c5.82,5.66,15.13,5.61,20.89-0.15c5.76-5.77,5.81-15.08,0.15-20.9
		C293.68,265.43,300.23,258.81,300.23,250.66z M264.37,265.38c-2.86,2.85-4.31,6.57-4.35,10.31c-2.67-2.61-6.33-4.21-10.37-4.21
		c-4.04,0-7.7,1.6-10.38,4.21c-0.04-3.74-1.5-7.46-4.35-10.31c-2.84-2.84-6.56-4.3-10.3-4.35c2.6-2.67,4.21-6.33,4.21-10.37
		c0-4.04-1.61-7.7-4.21-10.37c3.74-0.05,7.46-1.51,10.3-4.35c2.85-2.85,4.31-6.58,4.35-10.31c2.68,2.61,6.34,4.21,10.38,4.21
		c4.04,0,7.7-1.6,10.37-4.21c0.04,3.73,1.49,7.46,4.35,10.31c2.86,2.85,6.57,4.31,10.31,4.35c-2.6,2.67-4.21,6.33-4.21,10.37
		c0,4.04,1.61,7.7,4.21,10.37C270.94,261.07,267.23,262.53,264.37,265.38z M249.65,235.78c-8.22,0-14.89,6.66-14.89,14.88
		c0,8.22,6.67,14.88,14.89,14.88c8.21,0,14.88-6.66,14.88-14.88C264.53,242.44,257.86,235.78,249.65,235.78z M436.21,290.31
		c-2.87-15-7.13-28.32-6.56-43.56c0.6-16.08,15.63-51.32,1.35-64.45c-2.5-2.3-5.5-3.31-8.79-3.43c0.02-0.02,0.03-0.03,0.05-0.05
		c1.09-1.17,1.98-2.51,2.58-4.03c4.62-11.69-6.69-22.43-14.92-28c-12.63-8.58-25.06-14.99-35.44-26.17
		c-10.94-11.8-25.23-47.34-44.62-46.53c-3.39,0.14-6.22,1.56-8.63,3.79v-0.07c-0.06-1.59-0.38-3.17-1.03-4.67
		c-5-11.54-20.59-11.13-30.35-9.26c-14.99,2.87-28.32,7.13-43.56,6.56c-16.08-0.6-51.32-15.63-64.45-1.35
		c-2.3,2.5-3.31,5.5-3.43,8.79c-0.02-0.02-0.03-0.03-0.05-0.05c-1.16-1.09-2.5-1.98-4.03-2.58c-11.69-4.62-22.43,6.69-28,14.92
		c-8.58,12.63-14.99,25.06-26.16,35.44c-11.81,10.94-47.35,25.23-46.54,44.62c0.15,3.39,1.56,6.22,3.79,8.63h-0.07
		c-1.59,0.06-3.17,0.38-4.67,1.03c-11.53,5-11.13,20.59-9.26,30.35c2.87,14.99,7.13,28.32,6.57,43.56
		c-0.61,16.08-15.64,51.32-1.36,64.45c2.5,2.3,5.51,3.31,8.79,3.43c-0.02,0.02-0.03,0.03-0.05,0.05c-1.09,1.16-1.98,2.5-2.58,4.03
		c-4.62,11.69,6.69,22.43,14.92,28c12.63,8.58,25.06,14.99,35.44,26.16c10.94,11.81,25.23,47.35,44.62,46.54
		c3.39-0.15,6.23-1.56,8.63-3.79c0.01,0.02,0,0.04,0,0.06c0.06,1.6,0.38,3.18,1.03,4.68c5,11.53,20.59,11.13,30.35,9.26
		c15-2.87,28.32-7.13,43.56-6.57c16.08,0.61,51.32,15.64,64.45,1.36c2.3-2.5,3.31-5.51,3.43-8.79c0.02,0.02,0.03,0.03,0.05,0.05
		c1.17,1.09,2.51,1.98,4.03,2.58c11.69,4.62,22.43-6.69,28-14.92c8.58-12.63,14.99-25.06,26.17-35.44
		c11.8-10.94,47.34-25.23,46.53-44.62c-0.14-3.39-1.56-6.23-3.79-8.64c0.02,0,0.05,0.01,0.07,0.01c1.59-0.06,3.17-0.38,4.67-1.03
		C438.49,315.66,438.08,300.07,436.21,290.31z M313.87,117.91c3.11-3.71,7.51-8.45,12.62-8.93c9.13-0.86,15.11,10.66,17.62,17.75
		c3.16,8.91,4.34,17.04,4.59,26.43c0,0,38.88,0.82,43.88,17.67c1.33,4.5-3.15,9.08-6.04,11.86c-5.69,5.47-12.52,9.8-19.31,13.75
		c-9.71,5.65-19.87,10.14-30.13,14.65c-5.14,2.26-10.33,4.48-15.79,5.8c-4.76,1.15-12.39,3.28-15.89-1.45
		c-3.32-4.49-2.89-12.74-1.2-17.76c0,0.03-5.14,0.81-5.66,0.89c-3.33,0.54-6.98,0.21-9.97-1.43c-2.96-1.63-5.14-4.66-5.32-8.09
		c-0.43-8.29,2.65-16.29,5.55-23.9C295,148.9,302.61,131.32,313.87,117.91z M307.83,250c0,31.94-25.89,57.83-57.83,57.83
		s-57.83-25.89-57.83-57.83s25.89-57.83,57.83-57.83S307.83,218.06,307.83,250z M203.76,96.15c5.85-7.06,18.22-3.15,25.02,0.09
		c8.53,4.07,15.11,8.98,21.93,15.44c0,0,28.07-26.91,43.52-18.53c4.12,2.23,4.19,8.64,4.12,12.66c-0.16,7.88-1.93,15.77-3.94,23.37
		c-2.87,10.86-6.87,21.22-10.94,31.67c-2.04,5.22-4.14,10.47-7.07,15.27c-2.55,4.17-6.43,11.08-12.26,10.2
		c-5.53-0.83-11.04-6.96-13.4-11.71c0,0.04-3.07,4.21-3.38,4.64c-1.97,2.73-4.79,5.08-8.06,6.03c-3.24,0.95-6.93,0.34-9.48-1.96
		c-6.16-5.55-9.64-13.39-12.98-20.82c-7.12-15.86-14.17-33.67-15.69-51.12C200.73,106.56,200.49,100.1,203.76,96.15z M125.66,156.23
		c8.91-3.15,17.04-4.34,26.42-4.59c0,0,0.82-38.88,17.68-43.88c4.49-1.33,9.07,3.15,11.86,6.04c5.47,5.69,9.79,12.52,13.74,19.31
		c5.65,9.71,10.15,19.87,14.66,30.14c2.25,5.13,4.48,10.32,5.8,15.79c1.14,4.75,3.28,12.38-1.45,15.88
		c-4.5,3.33-12.74,2.89-17.76,1.2c0.02,0.01,0.8,5.14,0.89,5.66c0.53,3.33,0.2,6.98-1.44,9.97c-1.62,2.97-4.66,5.14-8.08,5.32
		c-8.29,0.43-16.29-2.65-23.9-5.54c-16.26-6.18-33.83-13.8-47.25-25.05c-3.7-3.11-8.44-7.51-8.92-12.63
		C107.05,164.72,118.56,158.74,125.66,156.23z M95.07,296.58c-7.06-5.85-3.15-18.22,0.09-25.01c4.07-8.53,8.99-15.12,15.44-21.94
		c0,0-26.91-28.06-18.53-43.52c2.24-4.12,8.65-4.19,12.66-4.11c7.89,0.15,15.78,1.92,23.37,3.93c10.87,2.87,21.23,6.87,31.68,10.94
		c5.22,2.04,10.46,4.14,15.26,7.07c4.18,2.55,11.08,6.44,10.21,12.26c-0.83,5.53-6.96,11.05-11.71,13.4c0.03,0,4.2,3.07,4.63,3.38
		c2.73,1.97,5.08,4.79,6.04,8.06c0.95,3.25,0.34,6.93-1.96,9.48c-5.56,6.17-13.39,9.64-20.82,12.98
		c-15.86,7.12-33.68,14.17-51.12,15.69C105.49,299.62,99.03,299.85,95.07,296.58z M185.4,383.51c-3.11,3.71-7.51,8.44-12.62,8.92
		c-9.13,0.86-15.11-10.65-17.62-17.75c-3.16-8.9-4.34-17.04-4.59-26.42c0,0-38.88-0.82-43.88-17.67c-1.34-4.5,3.15-9.08,6.04-11.87
		c5.68-5.47,12.52-9.79,19.31-13.74c9.71-5.65,19.86-10.15,30.13-14.66c5.13-2.25,10.33-4.47,15.79-5.79
		c4.76-1.15,12.39-3.29,15.89,1.45c3.32,4.49,2.89,12.73,1.19,17.75c0.01-0.02,5.15-0.8,5.67-0.89c3.32-0.53,6.98-0.2,9.97,1.44
		c2.96,1.62,5.13,4.66,5.31,8.08c0.44,8.29-2.64,16.29-5.54,23.91C204.27,352.52,196.66,370.1,185.4,383.51z M295.51,405.27
		c-5.86,7.06-18.23,3.15-25.02-0.09c-8.53-4.07-15.11-8.98-21.93-15.44c0,0-28.07,26.91-43.52,18.53
		c-4.13-2.24-4.19-8.65-4.12-12.66c0.15-7.89,1.93-15.78,3.94-23.37c2.87-10.86,6.87-21.23,10.94-31.68
		c2.04-5.22,4.14-10.46,7.07-15.26c2.55-4.17,6.43-11.08,12.26-10.21c5.52,0.83,11.04,6.97,13.4,11.71c0-0.03,3.06-4.2,3.37-4.63
		c1.98-2.73,4.8-5.08,8.07-6.04c3.24-0.94,6.92-0.33,9.47,1.96c6.17,5.56,9.65,13.39,12.99,20.82
		c7.12,15.86,14.17,33.68,15.69,51.12C298.54,394.85,298.78,401.31,295.51,405.27z M373.61,345.19c-8.91,3.15-17.04,4.33-26.43,4.59
		c0,0-0.81,38.87-17.67,43.87c-4.5,1.34-9.08-3.15-11.86-6.04c-5.47-5.68-9.79-12.51-13.74-19.3c-5.65-9.72-10.15-19.87-14.66-30.14
		c-2.26-5.13-4.48-10.33-5.8-15.79c-1.15-4.76-3.28-12.39,1.45-15.89c4.5-3.32,12.74-2.88,17.76-1.19
		c-0.03-0.01-0.81-5.14-0.89-5.67c-0.54-3.32-0.21-6.98,1.43-9.97c1.63-2.96,4.66-5.13,8.09-5.31c8.29-0.44,16.29,2.65,23.9,5.54
		c16.25,6.18,33.83,13.79,47.25,25.05c3.7,3.11,8.44,7.51,8.92,12.62C392.22,336.69,380.7,342.67,373.61,345.19z M407.19,295.3
		c-2.23,4.13-8.64,4.2-12.65,4.12c-7.89-0.15-15.78-1.93-23.37-3.93c-10.87-2.88-21.23-6.88-31.68-10.95
		c-5.22-2.03-10.47-4.13-15.26-7.07c-4.18-2.55-11.08-6.43-10.21-12.25c0.83-5.53,6.96-11.05,11.71-13.4
		c-0.03,0-4.21-3.07-4.64-3.38c-2.73-1.97-5.08-4.79-6.03-8.07c-0.95-3.24-0.34-6.92,1.96-9.47c5.55-6.17,13.39-9.65,20.82-12.98
		c15.86-7.13,33.67-14.17,51.12-15.7c4.82-0.42,11.28-0.66,15.23,2.62c7.07,5.85,3.15,18.22-0.09,25.01
		c-4.06,8.53-8.98,15.11-15.44,21.93C388.66,251.78,415.58,279.85,407.19,295.3z M285.41,214.89c-5.76-5.76-15.07-5.81-20.89-0.15
		c-0.11-8.12-6.73-14.66-14.87-14.66c-8.15,0-14.77,6.54-14.88,14.66c-5.82-5.66-15.13-5.61-20.89,0.15
		c-5.76,5.76-5.81,15.08-0.15,20.9c-8.11,0.11-14.67,6.72-14.67,14.87c0,8.15,6.56,14.76,14.67,14.87
		c-5.66,5.82-5.61,15.13,0.15,20.9c5.76,5.76,15.07,5.81,20.89,0.15c0.11,8.12,6.73,14.66,14.88,14.66
		c8.14,0,14.76-6.54,14.87-14.66c5.82,5.66,15.13,5.61,20.89-0.15c5.76-5.77,5.81-15.08,0.15-20.9c8.12-0.1,14.67-6.72,14.67-14.87
		c0-8.15-6.55-14.77-14.67-14.87C291.22,229.97,291.17,220.65,285.41,214.89z M264.37,265.38c-2.86,2.85-4.31,6.57-4.35,10.31
		c-2.67-2.61-6.33-4.21-10.37-4.21c-4.04,0-7.7,1.6-10.38,4.21c-0.04-3.74-1.5-7.46-4.35-10.31c-2.84-2.84-6.56-4.3-10.3-4.35
		c2.6-2.67,4.21-6.33,4.21-10.37c0-4.04-1.61-7.7-4.21-10.37c3.74-0.05,7.46-1.51,10.3-4.35c2.85-2.85,4.31-6.58,4.35-10.31
		c2.68,2.61,6.34,4.21,10.38,4.21c4.04,0,7.7-1.6,10.37-4.21c0.04,3.73,1.49,7.46,4.35,10.31c2.86,2.85,6.57,4.31,10.31,4.35
		c-2.6,2.67-4.21,6.33-4.21,10.37c0,4.04,1.61,7.7,4.21,10.37C270.94,261.07,267.23,262.53,264.37,265.38z M249.65,235.78
		c-8.22,0-14.89,6.66-14.89,14.88c0,8.22,6.67,14.88,14.89,14.88c8.21,0,14.88-6.66,14.88-14.88
		C264.53,242.44,257.86,235.78,249.65,235.78z M436.21,290.31c-2.87-15-7.13-28.32-6.56-43.56c0.6-16.08,15.63-51.32,1.35-64.45
		c-2.5-2.3-5.5-3.31-8.79-3.43c0.02-0.02,0.03-0.03,0.05-0.05c1.09-1.17,1.98-2.51,2.58-4.03c4.62-11.69-6.69-22.43-14.92-28
		c-12.63-8.58-25.06-14.99-35.44-26.17c-10.94-11.8-25.23-47.34-44.62-46.53c-3.39,0.14-6.22,1.56-8.63,3.79v-0.07
		c-0.06-1.59-0.38-3.17-1.03-4.67c-5-11.54-20.59-11.13-30.35-9.26c-14.99,2.87-28.32,7.13-43.56,6.56
		c-16.08-0.6-51.32-15.63-64.45-1.35c-2.3,2.5-3.31,5.5-3.43,8.79c-0.02-0.02-0.03-0.03-0.05-0.05c-1.16-1.09-2.5-1.98-4.03-2.58
		c-11.69-4.62-22.43,6.69-28,14.92c-8.58,12.63-14.99,25.06-26.16,35.44c-11.81,10.94-47.35,25.23-46.54,44.62
		c0.15,3.39,1.56,6.22,3.79,8.63h-0.07c-1.59,0.06-3.17,0.38-4.67,1.03c-11.53,5-11.13,20.59-9.26,30.35
		c2.87,14.99,7.13,28.32,6.57,43.56c-0.61,16.08-15.64,51.32-1.36,64.45c2.5,2.3,5.51,3.31,8.79,3.43
		c-0.02,0.02-0.03,0.03-0.05,0.05c-1.09,1.16-1.98,2.5-2.58,4.03c-4.62,11.69,6.69,22.43,14.92,28
		c12.63,8.58,25.06,14.99,35.44,26.16c10.94,11.81,25.23,47.35,44.62,46.54c3.39-0.15,6.23-1.56,8.63-3.79c0.01,0.02,0,0.04,0,0.06
		c0.06,1.6,0.38,3.18,1.03,4.68c5,11.53,20.59,11.13,30.35,9.26c15-2.87,28.32-7.13,43.56-6.57c16.08,0.61,51.32,15.64,64.45,1.36
		c2.3-2.5,3.31-5.51,3.43-8.79c0.02,0.02,0.03,0.03,0.05,0.05c1.17,1.09,2.51,1.98,4.03,2.58c11.69,4.62,22.43-6.69,28-14.92
		c8.58-12.63,14.99-25.06,26.17-35.44c11.8-10.94,47.34-25.23,46.53-44.62c-0.14-3.39-1.56-6.23-3.79-8.64
		c0.02,0,0.05,0.01,0.07,0.01c1.59-0.06,3.17-0.38,4.67-1.03C438.49,315.66,438.08,300.07,436.21,290.31z M313.87,117.91
		c3.11-3.71,7.51-8.45,12.62-8.93c9.13-0.86,15.11,10.66,17.62,17.75c3.16,8.91,4.34,17.04,4.59,26.43c0,0,38.88,0.82,43.88,17.67
		c1.33,4.5-3.15,9.08-6.04,11.86c-5.69,5.47-12.52,9.8-19.31,13.75c-9.71,5.65-19.87,10.14-30.13,14.65
		c-5.14,2.26-10.33,4.48-15.79,5.8c-4.76,1.15-12.39,3.28-15.89-1.45c-3.32-4.49-2.89-12.74-1.2-17.76c0,0.03-5.14,0.81-5.66,0.89
		c-3.33,0.54-6.98,0.21-9.97-1.43c-2.96-1.63-5.14-4.66-5.32-8.09c-0.43-8.29,2.65-16.29,5.55-23.9
		C295,148.9,302.61,131.32,313.87,117.91z M307.83,250c0,31.94-25.89,57.83-57.83,57.83s-57.83-25.89-57.83-57.83
		s25.89-57.83,57.83-57.83S307.83,218.06,307.83,250z M203.76,96.15c5.85-7.06,18.22-3.15,25.02,0.09
		c8.53,4.07,15.11,8.98,21.93,15.44c0,0,28.07-26.91,43.52-18.53c4.12,2.23,4.19,8.64,4.12,12.66c-0.16,7.88-1.93,15.77-3.94,23.37
		c-2.87,10.86-6.87,21.22-10.94,31.67c-2.04,5.22-4.14,10.47-7.07,15.27c-2.55,4.17-6.43,11.08-12.26,10.2
		c-5.53-0.83-11.04-6.96-13.4-11.71c0,0.04-3.07,4.21-3.38,4.64c-1.97,2.73-4.79,5.08-8.06,6.03c-3.24,0.95-6.93,0.34-9.48-1.96
		c-6.16-5.55-9.64-13.39-12.98-20.82c-7.12-15.86-14.17-33.67-15.69-51.12C200.73,106.56,200.49,100.1,203.76,96.15z M125.66,156.23
		c8.91-3.15,17.04-4.34,26.42-4.59c0,0,0.82-38.88,17.68-43.88c4.49-1.33,9.07,3.15,11.86,6.04c5.47,5.69,9.79,12.52,13.74,19.31
		c5.65,9.71,10.15,19.87,14.66,30.14c2.25,5.13,4.48,10.32,5.8,15.79c1.14,4.75,3.28,12.38-1.45,15.88
		c-4.5,3.33-12.74,2.89-17.76,1.2c0.02,0.01,0.8,5.14,0.89,5.66c0.53,3.33,0.2,6.98-1.44,9.97c-1.62,2.97-4.66,5.14-8.08,5.32
		c-8.29,0.43-16.29-2.65-23.9-5.54c-16.26-6.18-33.83-13.8-47.25-25.05c-3.7-3.11-8.44-7.51-8.92-12.63
		C107.05,164.72,118.56,158.74,125.66,156.23z M95.07,296.58c-7.06-5.85-3.15-18.22,0.09-25.01c4.07-8.53,8.99-15.12,15.44-21.94
		c0,0-26.91-28.06-18.53-43.52c2.24-4.12,8.65-4.19,12.66-4.11c7.89,0.15,15.78,1.92,23.37,3.93c10.87,2.87,21.23,6.87,31.68,10.94
		c5.22,2.04,10.46,4.14,15.26,7.07c4.18,2.55,11.08,6.44,10.21,12.26c-0.83,5.53-6.96,11.05-11.71,13.4c0.03,0,4.2,3.07,4.63,3.38
		c2.73,1.97,5.08,4.79,6.04,8.06c0.95,3.25,0.34,6.93-1.96,9.48c-5.56,6.17-13.39,9.64-20.82,12.98
		c-15.86,7.12-33.68,14.17-51.12,15.69C105.49,299.62,99.03,299.85,95.07,296.58z M185.4,383.51c-3.11,3.71-7.51,8.44-12.62,8.92
		c-9.13,0.86-15.11-10.65-17.62-17.75c-3.16-8.9-4.34-17.04-4.59-26.42c0,0-38.88-0.82-43.88-17.67c-1.34-4.5,3.15-9.08,6.04-11.87
		c5.68-5.47,12.52-9.79,19.31-13.74c9.71-5.65,19.86-10.15,30.13-14.66c5.13-2.25,10.33-4.47,15.79-5.79
		c4.76-1.15,12.39-3.29,15.89,1.45c3.32,4.49,2.89,12.73,1.19,17.75c0.01-0.02,5.15-0.8,5.67-0.89c3.32-0.53,6.98-0.2,9.97,1.44
		c2.96,1.62,5.13,4.66,5.31,8.08c0.44,8.29-2.64,16.29-5.54,23.91C204.27,352.52,196.66,370.1,185.4,383.51z M295.51,405.27
		c-5.86,7.06-18.23,3.15-25.02-0.09c-8.53-4.07-15.11-8.98-21.93-15.44c0,0-28.07,26.91-43.52,18.53
		c-4.13-2.24-4.19-8.65-4.12-12.66c0.15-7.89,1.93-15.78,3.94-23.37c2.87-10.86,6.87-21.23,10.94-31.68
		c2.04-5.22,4.14-10.46,7.07-15.26c2.55-4.17,6.43-11.08,12.26-10.21c5.52,0.83,11.04,6.97,13.4,11.71c0-0.03,3.06-4.2,3.37-4.63
		c1.98-2.73,4.8-5.08,8.07-6.04c3.24-0.94,6.92-0.33,9.47,1.96c6.17,5.56,9.65,13.39,12.99,20.82
		c7.12,15.86,14.17,33.68,15.69,51.12C298.54,394.85,298.78,401.31,295.51,405.27z M373.61,345.19c-8.91,3.15-17.04,4.33-26.43,4.59
		c0,0-0.81,38.87-17.67,43.87c-4.5,1.34-9.08-3.15-11.86-6.04c-5.47-5.68-9.79-12.51-13.74-19.3c-5.65-9.72-10.15-19.87-14.66-30.14
		c-2.26-5.13-4.48-10.33-5.8-15.79c-1.15-4.76-3.28-12.39,1.45-15.89c4.5-3.32,12.74-2.88,17.76-1.19
		c-0.03-0.01-0.81-5.14-0.89-5.67c-0.54-3.32-0.21-6.98,1.43-9.97c1.63-2.96,4.66-5.13,8.09-5.31c8.29-0.44,16.29,2.65,23.9,5.54
		c16.25,6.18,33.83,13.79,47.25,25.05c3.7,3.11,8.44,7.51,8.92,12.62C392.22,336.69,380.7,342.67,373.61,345.19z M407.19,295.3
		c-2.23,4.13-8.64,4.2-12.65,4.12c-7.89-0.15-15.78-1.93-23.37-3.93c-10.87-2.88-21.23-6.88-31.68-10.95
		c-5.22-2.03-10.47-4.13-15.26-7.07c-4.18-2.55-11.08-6.43-10.21-12.25c0.83-5.53,6.96-11.05,11.71-13.4
		c-0.03,0-4.21-3.07-4.64-3.38c-2.73-1.97-5.08-4.79-6.03-8.07c-0.95-3.24-0.34-6.92,1.96-9.47c5.55-6.17,13.39-9.65,20.82-12.98
		c15.86-7.13,33.67-14.17,51.12-15.7c4.82-0.42,11.28-0.66,15.23,2.62c7.07,5.85,3.15,18.22-0.09,25.01
		c-4.06,8.53-8.98,15.11-15.44,21.93C388.66,251.78,415.58,279.85,407.19,295.3z M250,4.56C114.45,4.56,4.56,114.45,4.56,250
		S114.45,495.44,250,495.44S495.44,385.55,495.44,250S385.55,4.56,250,4.56z M250,480.08C122.93,480.08,19.92,377.07,19.92,250
		S122.93,19.92,250,19.92S480.08,122.93,480.08,250S377.07,480.08,250,480.08z M250,27.92C127.35,27.92,27.92,127.35,27.92,250
		S127.35,472.08,250,472.08S472.08,372.65,472.08,250S372.65,27.92,250,27.92z M250,456.08c-113.81,0-206.08-92.27-206.08-206.08
		S136.19,43.92,250,43.92S456.08,136.19,456.08,250S363.81,456.08,250,456.08z M285.41,214.89c-5.76-5.76-15.07-5.81-20.89-0.15
		c-0.11-8.12-6.73-14.66-14.87-14.66c-8.15,0-14.77,6.54-14.88,14.66c-5.82-5.66-15.13-5.61-20.89,0.15
		c-5.76,5.76-5.81,15.08-0.15,20.9c-8.11,0.11-14.67,6.72-14.67,14.87c0,8.15,6.56,14.76,14.67,14.87
		c-5.66,5.82-5.61,15.13,0.15,20.9c5.76,5.76,15.07,5.81,20.89,0.15c0.11,8.12,6.73,14.66,14.88,14.66
		c8.14,0,14.76-6.54,14.87-14.66c5.82,5.66,15.13,5.61,20.89-0.15c5.76-5.77,5.81-15.08,0.15-20.9c8.12-0.1,14.67-6.72,14.67-14.87
		c0-8.15-6.55-14.77-14.67-14.87C291.22,229.97,291.17,220.65,285.41,214.89z M264.37,265.38c-2.86,2.85-4.31,6.57-4.35,10.31
		c-2.67-2.61-6.33-4.21-10.37-4.21c-4.04,0-7.7,1.6-10.38,4.21c-0.04-3.74-1.5-7.46-4.35-10.31c-2.84-2.84-6.56-4.3-10.3-4.35
		c2.6-2.67,4.21-6.33,4.21-10.37c0-4.04-1.61-7.7-4.21-10.37c3.74-0.05,7.46-1.51,10.3-4.35c2.85-2.85,4.31-6.58,4.35-10.31
		c2.68,2.61,6.34,4.21,10.38,4.21c4.04,0,7.7-1.6,10.37-4.21c0.04,3.73,1.49,7.46,4.35,10.31c2.86,2.85,6.57,4.31,10.31,4.35
		c-2.6,2.67-4.21,6.33-4.21,10.37c0,4.04,1.61,7.7,4.21,10.37C270.94,261.07,267.23,262.53,264.37,265.38z M249.65,235.78
		c-8.22,0-14.89,6.66-14.89,14.88c0,8.22,6.67,14.88,14.89,14.88c8.21,0,14.88-6.66,14.88-14.88
		C264.53,242.44,257.86,235.78,249.65,235.78z M300.23,250.66c0-8.15-6.55-14.77-14.67-14.87c5.66-5.82,5.61-15.14-0.15-20.9
		c-5.76-5.76-15.07-5.81-20.89-0.15c-0.11-8.12-6.73-14.66-14.87-14.66c-8.15,0-14.77,6.54-14.88,14.66
		c-5.82-5.66-15.13-5.61-20.89,0.15c-5.76,5.76-5.81,15.08-0.15,20.9c-8.11,0.11-14.67,6.72-14.67,14.87
		c0,8.15,6.56,14.76,14.67,14.87c-5.66,5.82-5.61,15.13,0.15,20.9c5.76,5.76,15.07,5.81,20.89,0.15
		c0.11,8.12,6.73,14.66,14.88,14.66c8.14,0,14.76-6.54,14.87-14.66c5.82,5.66,15.13,5.61,20.89-0.15c5.76-5.77,5.81-15.08,0.15-20.9
		C293.68,265.43,300.23,258.81,300.23,250.66z M264.37,265.38c-2.86,2.85-4.31,6.57-4.35,10.31c-2.67-2.61-6.33-4.21-10.37-4.21
		c-4.04,0-7.7,1.6-10.38,4.21c-0.04-3.74-1.5-7.46-4.35-10.31c-2.84-2.84-6.56-4.3-10.3-4.35c2.6-2.67,4.21-6.33,4.21-10.37
		c0-4.04-1.61-7.7-4.21-10.37c3.74-0.05,7.46-1.51,10.3-4.35c2.85-2.85,4.31-6.58,4.35-10.31c2.68,2.61,6.34,4.21,10.38,4.21
		c4.04,0,7.7-1.6,10.37-4.21c0.04,3.73,1.49,7.46,4.35,10.31c2.86,2.85,6.57,4.31,10.31,4.35c-2.6,2.67-4.21,6.33-4.21,10.37
		c0,4.04,1.61,7.7,4.21,10.37C270.94,261.07,267.23,262.53,264.37,265.38z M249.65,235.78c-8.22,0-14.89,6.66-14.89,14.88
		c0,8.22,6.67,14.88,14.89,14.88c8.21,0,14.88-6.66,14.88-14.88C264.53,242.44,257.86,235.78,249.65,235.78z M436.21,290.31
		c-2.87-15-7.13-28.32-6.56-43.56c0.6-16.08,15.63-51.32,1.35-64.45c-2.5-2.3-5.5-3.31-8.79-3.43c0.02-0.02,0.03-0.03,0.05-0.05
		c1.09-1.17,1.98-2.51,2.58-4.03c4.62-11.69-6.69-22.43-14.92-28c-12.63-8.58-25.06-14.99-35.44-26.17
		c-10.94-11.8-25.23-47.34-44.62-46.53c-3.39,0.14-6.22,1.56-8.63,3.79v-0.07c-0.06-1.59-0.38-3.17-1.03-4.67
		c-5-11.54-20.59-11.13-30.35-9.26c-14.99,2.87-28.32,7.13-43.56,6.56c-16.08-0.6-51.32-15.63-64.45-1.35
		c-2.3,2.5-3.31,5.5-3.43,8.79c-0.02-0.02-0.03-0.03-0.05-0.05c-1.16-1.09-2.5-1.98-4.03-2.58c-11.69-4.62-22.43,6.69-28,14.92
		c-8.58,12.63-14.99,25.06-26.16,35.44c-11.81,10.94-47.35,25.23-46.54,44.62c0.15,3.39,1.56,6.22,3.79,8.63h-0.07
		c-1.59,0.06-3.17,0.38-4.67,1.03c-11.53,5-11.13,20.59-9.26,30.35c2.87,14.99,7.13,28.32,6.57,43.56
		c-0.61,16.08-15.64,51.32-1.36,64.45c2.5,2.3,5.51,3.31,8.79,3.43c-0.02,0.02-0.03,0.03-0.05,0.05c-1.09,1.16-1.98,2.5-2.58,4.03
		c-4.62,11.69,6.69,22.43,14.92,28c12.63,8.58,25.06,14.99,35.44,26.16c10.94,11.81,25.23,47.35,44.62,46.54
		c3.39-0.15,6.23-1.56,8.63-3.79c0.01,0.02,0,0.04,0,0.06c0.06,1.6,0.38,3.18,1.03,4.68c5,11.53,20.59,11.13,30.35,9.26
		c15-2.87,28.32-7.13,43.56-6.57c16.08,0.61,51.32,15.64,64.45,1.36c2.3-2.5,3.31-5.51,3.43-8.79c0.02,0.02,0.03,0.03,0.05,0.05
		c1.17,1.09,2.51,1.98,4.03,2.58c11.69,4.62,22.43-6.69,28-14.92c8.58-12.63,14.99-25.06,26.17-35.44
		c11.8-10.94,47.34-25.23,46.53-44.62c-0.14-3.39-1.56-6.23-3.79-8.64c0.02,0,0.05,0.01,0.07,0.01c1.59-0.06,3.17-0.38,4.67-1.03
		C438.49,315.66,438.08,300.07,436.21,290.31z M313.87,117.91c3.11-3.71,7.51-8.45,12.62-8.93c9.13-0.86,15.11,10.66,17.62,17.75
		c3.16,8.91,4.34,17.04,4.59,26.43c0,0,38.88,0.82,43.88,17.67c1.33,4.5-3.15,9.08-6.04,11.86c-5.69,5.47-12.52,9.8-19.31,13.75
		c-9.71,5.65-19.87,10.14-30.13,14.65c-5.14,2.26-10.33,4.48-15.79,5.8c-4.76,1.15-12.39,3.28-15.89-1.45
		c-3.32-4.49-2.89-12.74-1.2-17.76c0,0.03-5.14,0.81-5.66,0.89c-3.33,0.54-6.98,0.21-9.97-1.43c-2.96-1.63-5.14-4.66-5.32-8.09
		c-0.43-8.29,2.65-16.29,5.55-23.9C295,148.9,302.61,131.32,313.87,117.91z M307.83,250c0,31.94-25.89,57.83-57.83,57.83
		s-57.83-25.89-57.83-57.83s25.89-57.83,57.83-57.83S307.83,218.06,307.83,250z M203.76,96.15c5.85-7.06,18.22-3.15,25.02,0.09
		c8.53,4.07,15.11,8.98,21.93,15.44c0,0,28.07-26.91,43.52-18.53c4.12,2.23,4.19,8.64,4.12,12.66c-0.16,7.88-1.93,15.77-3.94,23.37
		c-2.87,10.86-6.87,21.22-10.94,31.67c-2.04,5.22-4.14,10.47-7.07,15.27c-2.55,4.17-6.43,11.08-12.26,10.2
		c-5.53-0.83-11.04-6.96-13.4-11.71c0,0.04-3.07,4.21-3.38,4.64c-1.97,2.73-4.79,5.08-8.06,6.03c-3.24,0.95-6.93,0.34-9.48-1.96
		c-6.16-5.55-9.64-13.39-12.98-20.82c-7.12-15.86-14.17-33.67-15.69-51.12C200.73,106.56,200.49,100.1,203.76,96.15z M125.66,156.23
		c8.91-3.15,17.04-4.34,26.42-4.59c0,0,0.82-38.88,17.68-43.88c4.49-1.33,9.07,3.15,11.86,6.04c5.47,5.69,9.79,12.52,13.74,19.31
		c5.65,9.71,10.15,19.87,14.66,30.14c2.25,5.13,4.48,10.32,5.8,15.79c1.14,4.75,3.28,12.38-1.45,15.88
		c-4.5,3.33-12.74,2.89-17.76,1.2c0.02,0.01,0.8,5.14,0.89,5.66c0.53,3.33,0.2,6.98-1.44,9.97c-1.62,2.97-4.66,5.14-8.08,5.32
		c-8.29,0.43-16.29-2.65-23.9-5.54c-16.26-6.18-33.83-13.8-47.25-25.05c-3.7-3.11-8.44-7.51-8.92-12.63
		C107.05,164.72,118.56,158.74,125.66,156.23z M95.07,296.58c-7.06-5.85-3.15-18.22,0.09-25.01c4.07-8.53,8.99-15.12,15.44-21.94
		c0,0-26.91-28.06-18.53-43.52c2.24-4.12,8.65-4.19,12.66-4.11c7.89,0.15,15.78,1.92,23.37,3.93c10.87,2.87,21.23,6.87,31.68,10.94
		c5.22,2.04,10.46,4.14,15.26,7.07c4.18,2.55,11.08,6.44,10.21,12.26c-0.83,5.53-6.96,11.05-11.71,13.4c0.03,0,4.2,3.07,4.63,3.38
		c2.73,1.97,5.08,4.79,6.04,8.06c0.95,3.25,0.34,6.93-1.96,9.48c-5.56,6.17-13.39,9.64-20.82,12.98
		c-15.86,7.12-33.68,14.17-51.12,15.69C105.49,299.62,99.03,299.85,95.07,296.58z M185.4,383.51c-3.11,3.71-7.51,8.44-12.62,8.92
		c-9.13,0.86-15.11-10.65-17.62-17.75c-3.16-8.9-4.34-17.04-4.59-26.42c0,0-38.88-0.82-43.88-17.67c-1.34-4.5,3.15-9.08,6.04-11.87
		c5.68-5.47,12.52-9.79,19.31-13.74c9.71-5.65,19.86-10.15,30.13-14.66c5.13-2.25,10.33-4.47,15.79-5.79
		c4.76-1.15,12.39-3.29,15.89,1.45c3.32,4.49,2.89,12.73,1.19,17.75c0.01-0.02,5.15-0.8,5.67-0.89c3.32-0.53,6.98-0.2,9.97,1.44
		c2.96,1.62,5.13,4.66,5.31,8.08c0.44,8.29-2.64,16.29-5.54,23.91C204.27,352.52,196.66,370.1,185.4,383.51z M295.51,405.27
		c-5.86,7.06-18.23,3.15-25.02-0.09c-8.53-4.07-15.11-8.98-21.93-15.44c0,0-28.07,26.91-43.52,18.53
		c-4.13-2.24-4.19-8.65-4.12-12.66c0.15-7.89,1.93-15.78,3.94-23.37c2.87-10.86,6.87-21.23,10.94-31.68
		c2.04-5.22,4.14-10.46,7.07-15.26c2.55-4.17,6.43-11.08,12.26-10.21c5.52,0.83,11.04,6.97,13.4,11.71c0-0.03,3.06-4.2,3.37-4.63
		c1.98-2.73,4.8-5.08,8.07-6.04c3.24-0.94,6.92-0.33,9.47,1.96c6.17,5.56,9.65,13.39,12.99,20.82
		c7.12,15.86,14.17,33.68,15.69,51.12C298.54,394.85,298.78,401.31,295.51,405.27z M373.61,345.19c-8.91,3.15-17.04,4.33-26.43,4.59
		c0,0-0.81,38.87-17.67,43.87c-4.5,1.34-9.08-3.15-11.86-6.04c-5.47-5.68-9.79-12.51-13.74-19.3c-5.65-9.72-10.15-19.87-14.66-30.14
		c-2.26-5.13-4.48-10.33-5.8-15.79c-1.15-4.76-3.28-12.39,1.45-15.89c4.5-3.32,12.74-2.88,17.76-1.19
		c-0.03-0.01-0.81-5.14-0.89-5.67c-0.54-3.32-0.21-6.98,1.43-9.97c1.63-2.96,4.66-5.13,8.09-5.31c8.29-0.44,16.29,2.65,23.9,5.54
		c16.25,6.18,33.83,13.79,47.25,25.05c3.7,3.11,8.44,7.51,8.92,12.62C392.22,336.69,380.7,342.67,373.61,345.19z M407.19,295.3
		c-2.23,4.13-8.64,4.2-12.65,4.12c-7.89-0.15-15.78-1.93-23.37-3.93c-10.87-2.88-21.23-6.88-31.68-10.95
		c-5.22-2.03-10.47-4.13-15.26-7.07c-4.18-2.55-11.08-6.43-10.21-12.25c0.83-5.53,6.96-11.05,11.71-13.4
		c-0.03,0-4.21-3.07-4.64-3.38c-2.73-1.97-5.08-4.79-6.03-8.07c-0.95-3.24-0.34-6.92,1.96-9.47c5.55-6.17,13.39-9.65,20.82-12.98
		c15.86-7.13,33.67-14.17,51.12-15.7c4.82-0.42,11.28-0.66,15.23,2.62c7.07,5.85,3.15,18.22-0.09,25.01
		c-4.06,8.53-8.98,15.11-15.44,21.93C388.66,251.78,415.58,279.85,407.19,295.3z M285.41,214.89c-5.76-5.76-15.07-5.81-20.89-0.15
		c-0.11-8.12-6.73-14.66-14.87-14.66c-8.15,0-14.77,6.54-14.88,14.66c-5.82-5.66-15.13-5.61-20.89,0.15
		c-5.76,5.76-5.81,15.08-0.15,20.9c-8.11,0.11-14.67,6.72-14.67,14.87c0,8.15,6.56,14.76,14.67,14.87
		c-5.66,5.82-5.61,15.13,0.15,20.9c5.76,5.76,15.07,5.81,20.89,0.15c0.11,8.12,6.73,14.66,14.88,14.66
		c8.14,0,14.76-6.54,14.87-14.66c5.82,5.66,15.13,5.61,20.89-0.15c5.76-5.77,5.81-15.08,0.15-20.9c8.12-0.1,14.67-6.72,14.67-14.87
		c0-8.15-6.55-14.77-14.67-14.87C291.22,229.97,291.17,220.65,285.41,214.89z M264.37,265.38c-2.86,2.85-4.31,6.57-4.35,10.31
		c-2.67-2.61-6.33-4.21-10.37-4.21c-4.04,0-7.7,1.6-10.38,4.21c-0.04-3.74-1.5-7.46-4.35-10.31c-2.84-2.84-6.56-4.3-10.3-4.35
		c2.6-2.67,4.21-6.33,4.21-10.37c0-4.04-1.61-7.7-4.21-10.37c3.74-0.05,7.46-1.51,10.3-4.35c2.85-2.85,4.31-6.58,4.35-10.31
		c2.68,2.61,6.34,4.21,10.38,4.21c4.04,0,7.7-1.6,10.37-4.21c0.04,3.73,1.49,7.46,4.35,10.31c2.86,2.85,6.57,4.31,10.31,4.35
		c-2.6,2.67-4.21,6.33-4.21,10.37c0,4.04,1.61,7.7,4.21,10.37C270.94,261.07,267.23,262.53,264.37,265.38z M249.65,235.78
		c-8.22,0-14.89,6.66-14.89,14.88c0,8.22,6.67,14.88,14.89,14.88c8.21,0,14.88-6.66,14.88-14.88
		C264.53,242.44,257.86,235.78,249.65,235.78z M249.65,235.78c-8.22,0-14.89,6.66-14.89,14.88c0,8.22,6.67,14.88,14.89,14.88
		c8.21,0,14.88-6.66,14.88-14.88C264.53,242.44,257.86,235.78,249.65,235.78z M249.65,235.78c-8.22,0-14.89,6.66-14.89,14.88
		c0,8.22,6.67,14.88,14.89,14.88c8.21,0,14.88-6.66,14.88-14.88C264.53,242.44,257.86,235.78,249.65,235.78z M300.23,250.66
		c0-8.15-6.55-14.77-14.67-14.87c5.66-5.82,5.61-15.14-0.15-20.9c-5.76-5.76-15.07-5.81-20.89-0.15
		c-0.11-8.12-6.73-14.66-14.87-14.66c-8.15,0-14.77,6.54-14.88,14.66c-5.82-5.66-15.13-5.61-20.89,0.15
		c-5.76,5.76-5.81,15.08-0.15,20.9c-8.11,0.11-14.67,6.72-14.67,14.87c0,8.15,6.56,14.76,14.67,14.87
		c-5.66,5.82-5.61,15.13,0.15,20.9c5.76,5.76,15.07,5.81,20.89,0.15c0.11,8.12,6.73,14.66,14.88,14.66
		c8.14,0,14.76-6.54,14.87-14.66c5.82,5.66,15.13,5.61,20.89-0.15c5.76-5.77,5.81-15.08,0.15-20.9
		C293.68,265.43,300.23,258.81,300.23,250.66z M264.37,265.38c-2.86,2.85-4.31,6.57-4.35,10.31c-2.67-2.61-6.33-4.21-10.37-4.21
		c-4.04,0-7.7,1.6-10.38,4.21c-0.04-3.74-1.5-7.46-4.35-10.31c-2.84-2.84-6.56-4.3-10.3-4.35c2.6-2.67,4.21-6.33,4.21-10.37
		c0-4.04-1.61-7.7-4.21-10.37c3.74-0.05,7.46-1.51,10.3-4.35c2.85-2.85,4.31-6.58,4.35-10.31c2.68,2.61,6.34,4.21,10.38,4.21
		c4.04,0,7.7-1.6,10.37-4.21c0.04,3.73,1.49,7.46,4.35,10.31c2.86,2.85,6.57,4.31,10.31,4.35c-2.6,2.67-4.21,6.33-4.21,10.37
		c0,4.04,1.61,7.7,4.21,10.37C270.94,261.07,267.23,262.53,264.37,265.38z M249.65,235.78c-8.22,0-14.89,6.66-14.89,14.88
		c0,8.22,6.67,14.88,14.89,14.88c8.21,0,14.88-6.66,14.88-14.88C264.53,242.44,257.86,235.78,249.65,235.78z M249.65,235.78
		c-8.22,0-14.89,6.66-14.89,14.88c0,8.22,6.67,14.88,14.89,14.88c8.21,0,14.88-6.66,14.88-14.88
		C264.53,242.44,257.86,235.78,249.65,235.78z M249.65,235.78c-8.22,0-14.89,6.66-14.89,14.88c0,8.22,6.67,14.88,14.89,14.88
		c8.21,0,14.88-6.66,14.88-14.88C264.53,242.44,257.86,235.78,249.65,235.78z M300.23,250.66c0-8.15-6.55-14.77-14.67-14.87
		c5.66-5.82,5.61-15.14-0.15-20.9c-5.76-5.76-15.07-5.81-20.89-0.15c-0.11-8.12-6.73-14.66-14.87-14.66
		c-8.15,0-14.77,6.54-14.88,14.66c-5.82-5.66-15.13-5.61-20.89,0.15c-5.76,5.76-5.81,15.08-0.15,20.9
		c-8.11,0.11-14.67,6.72-14.67,14.87c0,8.15,6.56,14.76,14.67,14.87c-5.66,5.82-5.61,15.13,0.15,20.9
		c5.76,5.76,15.07,5.81,20.89,0.15c0.11,8.12,6.73,14.66,14.88,14.66c8.14,0,14.76-6.54,14.87-14.66
		c5.82,5.66,15.13,5.61,20.89-0.15c5.76-5.77,5.81-15.08,0.15-20.9C293.68,265.43,300.23,258.81,300.23,250.66z M264.37,265.38
		c-2.86,2.85-4.31,6.57-4.35,10.31c-2.67-2.61-6.33-4.21-10.37-4.21c-4.04,0-7.7,1.6-10.38,4.21c-0.04-3.74-1.5-7.46-4.35-10.31
		c-2.84-2.84-6.56-4.3-10.3-4.35c2.6-2.67,4.21-6.33,4.21-10.37c0-4.04-1.61-7.7-4.21-10.37c3.74-0.05,7.46-1.51,10.3-4.35
		c2.85-2.85,4.31-6.58,4.35-10.31c2.68,2.61,6.34,4.21,10.38,4.21c4.04,0,7.7-1.6,10.37-4.21c0.04,3.73,1.49,7.46,4.35,10.31
		c2.86,2.85,6.57,4.31,10.31,4.35c-2.6,2.67-4.21,6.33-4.21,10.37c0,4.04,1.61,7.7,4.21,10.37
		C270.94,261.07,267.23,262.53,264.37,265.38z M249.65,235.78c-8.22,0-14.89,6.66-14.89,14.88c0,8.22,6.67,14.88,14.89,14.88
		c8.21,0,14.88-6.66,14.88-14.88C264.53,242.44,257.86,235.78,249.65,235.78z M249.65,235.78c-8.22,0-14.89,6.66-14.89,14.88
		c0,8.22,6.67,14.88,14.89,14.88c8.21,0,14.88-6.66,14.88-14.88C264.53,242.44,257.86,235.78,249.65,235.78z M249.65,235.78
		c-8.22,0-14.89,6.66-14.89,14.88c0,8.22,6.67,14.88,14.89,14.88c8.21,0,14.88-6.66,14.88-14.88
		C264.53,242.44,257.86,235.78,249.65,235.78z"/>
	<path class="st0" d="M249.65,235.78c-8.22,0-14.89,6.66-14.89,14.88c0,8.22,6.67,14.88,14.89,14.88c8.21,0,14.88-6.66,14.88-14.88
		C264.53,242.44,257.86,235.78,249.65,235.78z M249.65,235.78c-8.22,0-14.89,6.66-14.89,14.88c0,8.22,6.67,14.88,14.89,14.88
		c8.21,0,14.88-6.66,14.88-14.88C264.53,242.44,257.86,235.78,249.65,235.78z M300.23,250.66c0-8.15-6.55-14.77-14.67-14.87
		c5.66-5.82,5.61-15.14-0.15-20.9c-5.76-5.76-15.07-5.81-20.89-0.15c-0.11-8.12-6.73-14.66-14.87-14.66
		c-8.15,0-14.77,6.54-14.88,14.66c-5.82-5.66-15.13-5.61-20.89,0.15c-5.76,5.76-5.81,15.08-0.15,20.9
		c-8.11,0.11-14.67,6.72-14.67,14.87c0,8.15,6.56,14.76,14.67,14.87c-5.66,5.82-5.61,15.13,0.15,20.9
		c5.76,5.76,15.07,5.81,20.89,0.15c0.11,8.12,6.73,14.66,14.88,14.66c8.14,0,14.76-6.54,14.87-14.66
		c5.82,5.66,15.13,5.61,20.89-0.15c5.76-5.77,5.81-15.08,0.15-20.9C293.68,265.43,300.23,258.81,300.23,250.66z M264.37,265.38
		c-2.86,2.85-4.31,6.57-4.35,10.31c-2.67-2.61-6.33-4.21-10.37-4.21c-4.04,0-7.7,1.6-10.38,4.21c-0.04-3.74-1.5-7.46-4.35-10.31
		c-2.84-2.84-6.56-4.3-10.3-4.35c2.6-2.67,4.21-6.33,4.21-10.37c0-4.04-1.61-7.7-4.21-10.37c3.74-0.05,7.46-1.51,10.3-4.35
		c2.85-2.85,4.31-6.58,4.35-10.31c2.68,2.61,6.34,4.21,10.38,4.21c4.04,0,7.7-1.6,10.37-4.21c0.04,3.73,1.49,7.46,4.35,10.31
		c2.86,2.85,6.57,4.31,10.31,4.35c-2.6,2.67-4.21,6.33-4.21,10.37c0,4.04,1.61,7.7,4.21,10.37
		C270.94,261.07,267.23,262.53,264.37,265.38z M249.65,235.78c-8.22,0-14.89,6.66-14.89,14.88c0,8.22,6.67,14.88,14.89,14.88
		c8.21,0,14.88-6.66,14.88-14.88C264.53,242.44,257.86,235.78,249.65,235.78z M249.65,235.78c-8.22,0-14.89,6.66-14.89,14.88
		c0,8.22,6.67,14.88,14.89,14.88c8.21,0,14.88-6.66,14.88-14.88C264.53,242.44,257.86,235.78,249.65,235.78z M249.65,235.78
		c-8.22,0-14.89,6.66-14.89,14.88c0,8.22,6.67,14.88,14.89,14.88c8.21,0,14.88-6.66,14.88-14.88
		C264.53,242.44,257.86,235.78,249.65,235.78z M249.65,235.78c-8.22,0-14.89,6.66-14.89,14.88c0,8.22,6.67,14.88,14.89,14.88
		c8.21,0,14.88-6.66,14.88-14.88C264.53,242.44,257.86,235.78,249.65,235.78z M249.65,235.78c-8.22,0-14.89,6.66-14.89,14.88
		c0,8.22,6.67,14.88,14.89,14.88c8.21,0,14.88-6.66,14.88-14.88C264.53,242.44,257.86,235.78,249.65,235.78z M300.23,250.66
		c0-8.15-6.55-14.77-14.67-14.87c5.66-5.82,5.61-15.14-0.15-20.9c-5.76-5.76-15.07-5.81-20.89-0.15
		c-0.11-8.12-6.73-14.66-14.87-14.66c-8.15,0-14.77,6.54-14.88,14.66c-5.82-5.66-15.13-5.61-20.89,0.15
		c-5.76,5.76-5.81,15.08-0.15,20.9c-8.11,0.11-14.67,6.72-14.67,14.87c0,8.15,6.56,14.76,14.67,14.87
		c-5.66,5.82-5.61,15.13,0.15,20.9c5.76,5.76,15.07,5.81,20.89,0.15c0.11,8.12,6.73,14.66,14.88,14.66
		c8.14,0,14.76-6.54,14.87-14.66c5.82,5.66,15.13,5.61,20.89-0.15c5.76-5.77,5.81-15.08,0.15-20.9
		C293.68,265.43,300.23,258.81,300.23,250.66z M264.37,265.38c-2.86,2.85-4.31,6.57-4.35,10.31c-2.67-2.61-6.33-4.21-10.37-4.21
		c-4.04,0-7.7,1.6-10.38,4.21c-0.04-3.74-1.5-7.46-4.35-10.31c-2.84-2.84-6.56-4.3-10.3-4.35c2.6-2.67,4.21-6.33,4.21-10.37
		c0-4.04-1.61-7.7-4.21-10.37c3.74-0.05,7.46-1.51,10.3-4.35c2.85-2.85,4.31-6.58,4.35-10.31c2.68,2.61,6.34,4.21,10.38,4.21
		c4.04,0,7.7-1.6,10.37-4.21c0.04,3.73,1.49,7.46,4.35,10.31c2.86,2.85,6.57,4.31,10.31,4.35c-2.6,2.67-4.21,6.33-4.21,10.37
		c0,4.04,1.61,7.7,4.21,10.37C270.94,261.07,267.23,262.53,264.37,265.38z M249.65,235.78c-8.22,0-14.89,6.66-14.89,14.88
		c0,8.22,6.67,14.88,14.89,14.88c8.21,0,14.88-6.66,14.88-14.88C264.53,242.44,257.86,235.78,249.65,235.78z M249.65,235.78
		c-8.22,0-14.89,6.66-14.89,14.88c0,8.22,6.67,14.88,14.89,14.88c8.21,0,14.88-6.66,14.88-14.88
		C264.53,242.44,257.86,235.78,249.65,235.78z M249.65,235.78c-8.22,0-14.89,6.66-14.89,14.88c0,8.22,6.67,14.88,14.89,14.88
		c8.21,0,14.88-6.66,14.88-14.88C264.53,242.44,257.86,235.78,249.65,235.78z M249.65,235.78c-8.22,0-14.89,6.66-14.89,14.88
		c0,8.22,6.67,14.88,14.89,14.88c8.21,0,14.88-6.66,14.88-14.88C264.53,242.44,257.86,235.78,249.65,235.78z M249.65,235.78
		c-8.22,0-14.89,6.66-14.89,14.88c0,8.22,6.67,14.88,14.89,14.88c8.21,0,14.88-6.66,14.88-14.88
		C264.53,242.44,257.86,235.78,249.65,235.78z M300.23,250.66c0-8.15-6.55-14.77-14.67-14.87c5.66-5.82,5.61-15.14-0.15-20.9
		c-5.76-5.76-15.07-5.81-20.89-0.15c-0.11-8.12-6.73-14.66-14.87-14.66c-8.15,0-14.77,6.54-14.88,14.66
		c-5.82-5.66-15.13-5.61-20.89,0.15c-5.76,5.76-5.81,15.08-0.15,20.9c-8.11,0.11-14.67,6.72-14.67,14.87
		c0,8.15,6.56,14.76,14.67,14.87c-5.66,5.82-5.61,15.13,0.15,20.9c5.76,5.76,15.07,5.81,20.89,0.15
		c0.11,8.12,6.73,14.66,14.88,14.66c8.14,0,14.76-6.54,14.87-14.66c5.82,5.66,15.13,5.61,20.89-0.15c5.76-5.77,5.81-15.08,0.15-20.9
		C293.68,265.43,300.23,258.81,300.23,250.66z M264.37,265.38c-2.86,2.85-4.31,6.57-4.35,10.31c-2.67-2.61-6.33-4.21-10.37-4.21
		c-4.04,0-7.7,1.6-10.38,4.21c-0.04-3.74-1.5-7.46-4.35-10.31c-2.84-2.84-6.56-4.3-10.3-4.35c2.6-2.67,4.21-6.33,4.21-10.37
		c0-4.04-1.61-7.7-4.21-10.37c3.74-0.05,7.46-1.51,10.3-4.35c2.85-2.85,4.31-6.58,4.35-10.31c2.68,2.61,6.34,4.21,10.38,4.21
		c4.04,0,7.7-1.6,10.37-4.21c0.04,3.73,1.49,7.46,4.35,10.31c2.86,2.85,6.57,4.31,10.31,4.35c-2.6,2.67-4.21,6.33-4.21,10.37
		c0,4.04,1.61,7.7,4.21,10.37C270.94,261.07,267.23,262.53,264.37,265.38z M249.65,235.78c-8.22,0-14.89,6.66-14.89,14.88
		c0,8.22,6.67,14.88,14.89,14.88c8.21,0,14.88-6.66,14.88-14.88C264.53,242.44,257.86,235.78,249.65,235.78z M436.21,290.31
		c-2.87-15-7.13-28.32-6.56-43.56c0.6-16.08,15.63-51.32,1.35-64.45c-2.5-2.3-5.5-3.31-8.79-3.43c0.02-0.02,0.03-0.03,0.05-0.05
		c1.09-1.17,1.98-2.51,2.58-4.03c4.62-11.69-6.69-22.43-14.92-28c-12.63-8.58-25.06-14.99-35.44-26.17
		c-10.94-11.8-25.23-47.34-44.62-46.53c-3.39,0.14-6.22,1.56-8.63,3.79v-0.07c-0.06-1.59-0.38-3.17-1.03-4.67
		c-5-11.54-20.59-11.13-30.35-9.26c-14.99,2.87-28.32,7.13-43.56,6.56c-16.08-0.6-51.32-15.63-64.45-1.35
		c-2.3,2.5-3.31,5.5-3.43,8.79c-0.02-0.02-0.03-0.03-0.05-0.05c-1.16-1.09-2.5-1.98-4.03-2.58c-11.69-4.62-22.43,6.69-28,14.92
		c-8.58,12.63-14.99,25.06-26.16,35.44c-11.81,10.94-47.35,25.23-46.54,44.62c0.15,3.39,1.56,6.22,3.79,8.63h-0.07
		c-1.59,0.06-3.17,0.38-4.67,1.03c-11.53,5-11.13,20.59-9.26,30.35c2.87,14.99,7.13,28.32,6.57,43.56
		c-0.61,16.08-15.64,51.32-1.36,64.45c2.5,2.3,5.51,3.31,8.79,3.43c-0.02,0.02-0.03,0.03-0.05,0.05c-1.09,1.16-1.98,2.5-2.58,4.03
		c-4.62,11.69,6.69,22.43,14.92,28c12.63,8.58,25.06,14.99,35.44,26.16c10.94,11.81,25.23,47.35,44.62,46.54
		c3.39-0.15,6.23-1.56,8.63-3.79c0.01,0.02,0,0.04,0,0.06c0.06,1.6,0.38,3.18,1.03,4.68c5,11.53,20.59,11.13,30.35,9.26
		c15-2.87,28.32-7.13,43.56-6.57c16.08,0.61,51.32,15.64,64.45,1.36c2.3-2.5,3.31-5.51,3.43-8.79c0.02,0.02,0.03,0.03,0.05,0.05
		c1.17,1.09,2.51,1.98,4.03,2.58c11.69,4.62,22.43-6.69,28-14.92c8.58-12.63,14.99-25.06,26.17-35.44
		c11.8-10.94,47.34-25.23,46.53-44.62c-0.14-3.39-1.56-6.23-3.79-8.64c0.02,0,0.05,0.01,0.07,0.01c1.59-0.06,3.17-0.38,4.67-1.03
		C438.49,315.66,438.08,300.07,436.21,290.31z M313.87,117.91c3.11-3.71,7.51-8.45,12.62-8.93c9.13-0.86,15.11,10.66,17.62,17.75
		c3.16,8.91,4.34,17.04,4.59,26.43c0,0,38.88,0.82,43.88,17.67c1.33,4.5-3.15,9.08-6.04,11.86c-5.69,5.47-12.52,9.8-19.31,13.75
		c-9.71,5.65-19.87,10.14-30.13,14.65c-5.14,2.26-10.33,4.48-15.79,5.8c-4.76,1.15-12.39,3.28-15.89-1.45
		c-3.32-4.49-2.89-12.74-1.2-17.76c0,0.03-5.14,0.81-5.66,0.89c-3.33,0.54-6.98,0.21-9.97-1.43c-2.96-1.63-5.14-4.66-5.32-8.09
		c-0.43-8.29,2.65-16.29,5.55-23.9C295,148.9,302.61,131.32,313.87,117.91z M307.83,250c0,31.94-25.89,57.83-57.83,57.83
		s-57.83-25.89-57.83-57.83s25.89-57.83,57.83-57.83S307.83,218.06,307.83,250z M203.76,96.15c5.85-7.06,18.22-3.15,25.02,0.09
		c8.53,4.07,15.11,8.98,21.93,15.44c0,0,28.07-26.91,43.52-18.53c4.12,2.23,4.19,8.64,4.12,12.66c-0.16,7.88-1.93,15.77-3.94,23.37
		c-2.87,10.86-6.87,21.22-10.94,31.67c-2.04,5.22-4.14,10.47-7.07,15.27c-2.55,4.17-6.43,11.08-12.26,10.2
		c-5.53-0.83-11.04-6.96-13.4-11.71c0,0.04-3.07,4.21-3.38,4.64c-1.97,2.73-4.79,5.08-8.06,6.03c-3.24,0.95-6.93,0.34-9.48-1.96
		c-6.16-5.55-9.64-13.39-12.98-20.82c-7.12-15.86-14.17-33.67-15.69-51.12C200.73,106.56,200.49,100.1,203.76,96.15z M125.66,156.23
		c8.91-3.15,17.04-4.34,26.42-4.59c0,0,0.82-38.88,17.68-43.88c4.49-1.33,9.07,3.15,11.86,6.04c5.47,5.69,9.79,12.52,13.74,19.31
		c5.65,9.71,10.15,19.87,14.66,30.14c2.25,5.13,4.48,10.32,5.8,15.79c1.14,4.75,3.28,12.38-1.45,15.88
		c-4.5,3.33-12.74,2.89-17.76,1.2c0.02,0.01,0.8,5.14,0.89,5.66c0.53,3.33,0.2,6.98-1.44,9.97c-1.62,2.97-4.66,5.14-8.08,5.32
		c-8.29,0.43-16.29-2.65-23.9-5.54c-16.26-6.18-33.83-13.8-47.25-25.05c-3.7-3.11-8.44-7.51-8.92-12.63
		C107.05,164.72,118.56,158.74,125.66,156.23z M95.07,296.58c-7.06-5.85-3.15-18.22,0.09-25.01c4.07-8.53,8.99-15.12,15.44-21.94
		c0,0-26.91-28.06-18.53-43.52c2.24-4.12,8.65-4.19,12.66-4.11c7.89,0.15,15.78,1.92,23.37,3.93c10.87,2.87,21.23,6.87,31.68,10.94
		c5.22,2.04,10.46,4.14,15.26,7.07c4.18,2.55,11.08,6.44,10.21,12.26c-0.83,5.53-6.96,11.05-11.71,13.4c0.03,0,4.2,3.07,4.63,3.38
		c2.73,1.97,5.08,4.79,6.04,8.06c0.95,3.25,0.34,6.93-1.96,9.48c-5.56,6.17-13.39,9.64-20.82,12.98
		c-15.86,7.12-33.68,14.17-51.12,15.69C105.49,299.62,99.03,299.85,95.07,296.58z M185.4,383.51c-3.11,3.71-7.51,8.44-12.62,8.92
		c-9.13,0.86-15.11-10.65-17.62-17.75c-3.16-8.9-4.34-17.04-4.59-26.42c0,0-38.88-0.82-43.88-17.67c-1.34-4.5,3.15-9.08,6.04-11.87
		c5.68-5.47,12.52-9.79,19.31-13.74c9.71-5.65,19.86-10.15,30.13-14.66c5.13-2.25,10.33-4.47,15.79-5.79
		c4.76-1.15,12.39-3.29,15.89,1.45c3.32,4.49,2.89,12.73,1.19,17.75c0.01-0.02,5.15-0.8,5.67-0.89c3.32-0.53,6.98-0.2,9.97,1.44
		c2.96,1.62,5.13,4.66,5.31,8.08c0.44,8.29-2.64,16.29-5.54,23.91C204.27,352.52,196.66,370.1,185.4,383.51z M295.51,405.27
		c-5.86,7.06-18.23,3.15-25.02-0.09c-8.53-4.07-15.11-8.98-21.93-15.44c0,0-28.07,26.91-43.52,18.53
		c-4.13-2.24-4.19-8.65-4.12-12.66c0.15-7.89,1.93-15.78,3.94-23.37c2.87-10.86,6.87-21.23,10.94-31.68
		c2.04-5.22,4.14-10.46,7.07-15.26c2.55-4.17,6.43-11.08,12.26-10.21c5.52,0.83,11.04,6.97,13.4,11.71c0-0.03,3.06-4.2,3.37-4.63
		c1.98-2.73,4.8-5.08,8.07-6.04c3.24-0.94,6.92-0.33,9.47,1.96c6.17,5.56,9.65,13.39,12.99,20.82
		c7.12,15.86,14.17,33.68,15.69,51.12C298.54,394.85,298.78,401.31,295.51,405.27z M373.61,345.19c-8.91,3.15-17.04,4.33-26.43,4.59
		c0,0-0.81,38.87-17.67,43.87c-4.5,1.34-9.08-3.15-11.86-6.04c-5.47-5.68-9.79-12.51-13.74-19.3c-5.65-9.72-10.15-19.87-14.66-30.14
		c-2.26-5.13-4.48-10.33-5.8-15.79c-1.15-4.76-3.28-12.39,1.45-15.89c4.5-3.32,12.74-2.88,17.76-1.19
		c-0.03-0.01-0.81-5.14-0.89-5.67c-0.54-3.32-0.21-6.98,1.43-9.97c1.63-2.96,4.66-5.13,8.09-5.31c8.29-0.44,16.29,2.65,23.9,5.54
		c16.25,6.18,33.83,13.79,47.25,25.05c3.7,3.11,8.44,7.51,8.92,12.62C392.22,336.69,380.7,342.67,373.61,345.19z M407.19,295.3
		c-2.23,4.13-8.64,4.2-12.65,4.12c-7.89-0.15-15.78-1.93-23.37-3.93c-10.87-2.88-21.23-6.88-31.68-10.95
		c-5.22-2.03-10.47-4.13-15.26-7.07c-4.18-2.55-11.08-6.43-10.21-12.25c0.83-5.53,6.96-11.05,11.71-13.4
		c-0.03,0-4.21-3.07-4.64-3.38c-2.73-1.97-5.08-4.79-6.03-8.07c-0.95-3.24-0.34-6.92,1.96-9.47c5.55-6.17,13.39-9.65,20.82-12.98
		c15.86-7.13,33.67-14.17,51.12-15.7c4.82-0.42,11.28-0.66,15.23,2.62c7.07,5.85,3.15,18.22-0.09,25.01
		c-4.06,8.53-8.98,15.11-15.44,21.93C388.66,251.78,415.58,279.85,407.19,295.3z M285.41,214.89c-5.76-5.76-15.07-5.81-20.89-0.15
		c-0.11-8.12-6.73-14.66-14.87-14.66c-8.15,0-14.77,6.54-14.88,14.66c-5.82-5.66-15.13-5.61-20.89,0.15
		c-5.76,5.76-5.81,15.08-0.15,20.9c-8.11,0.11-14.67,6.72-14.67,14.87c0,8.15,6.56,14.76,14.67,14.87
		c-5.66,5.82-5.61,15.13,0.15,20.9c5.76,5.76,15.07,5.81,20.89,0.15c0.11,8.12,6.73,14.66,14.88,14.66
		c8.14,0,14.76-6.54,14.87-14.66c5.82,5.66,15.13,5.61,20.89-0.15c5.76-5.77,5.81-15.08,0.15-20.9c8.12-0.1,14.67-6.72,14.67-14.87
		c0-8.15-6.55-14.77-14.67-14.87C291.22,229.97,291.17,220.65,285.41,214.89z M264.37,265.38c-2.86,2.85-4.31,6.57-4.35,10.31
		c-2.67-2.61-6.33-4.21-10.37-4.21c-4.04,0-7.7,1.6-10.38,4.21c-0.04-3.74-1.5-7.46-4.35-10.31c-2.84-2.84-6.56-4.3-10.3-4.35
		c2.6-2.67,4.21-6.33,4.21-10.37c0-4.04-1.61-7.7-4.21-10.37c3.74-0.05,7.46-1.51,10.3-4.35c2.85-2.85,4.31-6.58,4.35-10.31
		c2.68,2.61,6.34,4.21,10.38,4.21c4.04,0,7.7-1.6,10.37-4.21c0.04,3.73,1.49,7.46,4.35,10.31c2.86,2.85,6.57,4.31,10.31,4.35
		c-2.6,2.67-4.21,6.33-4.21,10.37c0,4.04,1.61,7.7,4.21,10.37C270.94,261.07,267.23,262.53,264.37,265.38z M249.65,235.78
		c-8.22,0-14.89,6.66-14.89,14.88c0,8.22,6.67,14.88,14.89,14.88c8.21,0,14.88-6.66,14.88-14.88
		C264.53,242.44,257.86,235.78,249.65,235.78z M436.21,290.31c-2.87-15-7.13-28.32-6.56-43.56c0.6-16.08,15.63-51.32,1.35-64.45
		c-2.5-2.3-5.5-3.31-8.79-3.43c0.02-0.02,0.03-0.03,0.05-0.05c1.09-1.17,1.98-2.51,2.58-4.03c4.62-11.69-6.69-22.43-14.92-28
		c-12.63-8.58-25.06-14.99-35.44-26.17c-10.94-11.8-25.23-47.34-44.62-46.53c-3.39,0.14-6.22,1.56-8.63,3.79v-0.07
		c-0.06-1.59-0.38-3.17-1.03-4.67c-5-11.54-20.59-11.13-30.35-9.26c-14.99,2.87-28.32,7.13-43.56,6.56
		c-16.08-0.6-51.32-15.63-64.45-1.35c-2.3,2.5-3.31,5.5-3.43,8.79c-0.02-0.02-0.03-0.03-0.05-0.05c-1.16-1.09-2.5-1.98-4.03-2.58
		c-11.69-4.62-22.43,6.69-28,14.92c-8.58,12.63-14.99,25.06-26.16,35.44c-11.81,10.94-47.35,25.23-46.54,44.62
		c0.15,3.39,1.56,6.22,3.79,8.63h-0.07c-1.59,0.06-3.17,0.38-4.67,1.03c-11.53,5-11.13,20.59-9.26,30.35
		c2.87,14.99,7.13,28.32,6.57,43.56c-0.61,16.08-15.64,51.32-1.36,64.45c2.5,2.3,5.51,3.31,8.79,3.43
		c-0.02,0.02-0.03,0.03-0.05,0.05c-1.09,1.16-1.98,2.5-2.58,4.03c-4.62,11.69,6.69,22.43,14.92,28
		c12.63,8.58,25.06,14.99,35.44,26.16c10.94,11.81,25.23,47.35,44.62,46.54c3.39-0.15,6.23-1.56,8.63-3.79c0.01,0.02,0,0.04,0,0.06
		c0.06,1.6,0.38,3.18,1.03,4.68c5,11.53,20.59,11.13,30.35,9.26c15-2.87,28.32-7.13,43.56-6.57c16.08,0.61,51.32,15.64,64.45,1.36
		c2.3-2.5,3.31-5.51,3.43-8.79c0.02,0.02,0.03,0.03,0.05,0.05c1.17,1.09,2.51,1.98,4.03,2.58c11.69,4.62,22.43-6.69,28-14.92
		c8.58-12.63,14.99-25.06,26.17-35.44c11.8-10.94,47.34-25.23,46.53-44.62c-0.14-3.39-1.56-6.23-3.79-8.64
		c0.02,0,0.05,0.01,0.07,0.01c1.59-0.06,3.17-0.38,4.67-1.03C438.49,315.66,438.08,300.07,436.21,290.31z M313.87,117.91
		c3.11-3.71,7.51-8.45,12.62-8.93c9.13-0.86,15.11,10.66,17.62,17.75c3.16,8.91,4.34,17.04,4.59,26.43c0,0,38.88,0.82,43.88,17.67
		c1.33,4.5-3.15,9.08-6.04,11.86c-5.69,5.47-12.52,9.8-19.31,13.75c-9.71,5.65-19.87,10.14-30.13,14.65
		c-5.14,2.26-10.33,4.48-15.79,5.8c-4.76,1.15-12.39,3.28-15.89-1.45c-3.32-4.49-2.89-12.74-1.2-17.76c0,0.03-5.14,0.81-5.66,0.89
		c-3.33,0.54-6.98,0.21-9.97-1.43c-2.96-1.63-5.14-4.66-5.32-8.09c-0.43-8.29,2.65-16.29,5.55-23.9
		C295,148.9,302.61,131.32,313.87,117.91z M307.83,250c0,31.94-25.89,57.83-57.83,57.83s-57.83-25.89-57.83-57.83
		s25.89-57.83,57.83-57.83S307.83,218.06,307.83,250z M203.76,96.15c5.85-7.06,18.22-3.15,25.02,0.09
		c8.53,4.07,15.11,8.98,21.93,15.44c0,0,28.07-26.91,43.52-18.53c4.12,2.23,4.19,8.64,4.12,12.66c-0.16,7.88-1.93,15.77-3.94,23.37
		c-2.87,10.86-6.87,21.22-10.94,31.67c-2.04,5.22-4.14,10.47-7.07,15.27c-2.55,4.17-6.43,11.08-12.26,10.2
		c-5.53-0.83-11.04-6.96-13.4-11.71c0,0.04-3.07,4.21-3.38,4.64c-1.97,2.73-4.79,5.08-8.06,6.03c-3.24,0.95-6.93,0.34-9.48-1.96
		c-6.16-5.55-9.64-13.39-12.98-20.82c-7.12-15.86-14.17-33.67-15.69-51.12C200.73,106.56,200.49,100.1,203.76,96.15z M125.66,156.23
		c8.91-3.15,17.04-4.34,26.42-4.59c0,0,0.82-38.88,17.68-43.88c4.49-1.33,9.07,3.15,11.86,6.04c5.47,5.69,9.79,12.52,13.74,19.31
		c5.65,9.71,10.15,19.87,14.66,30.14c2.25,5.13,4.48,10.32,5.8,15.79c1.14,4.75,3.28,12.38-1.45,15.88
		c-4.5,3.33-12.74,2.89-17.76,1.2c0.02,0.01,0.8,5.14,0.89,5.66c0.53,3.33,0.2,6.98-1.44,9.97c-1.62,2.97-4.66,5.14-8.08,5.32
		c-8.29,0.43-16.29-2.65-23.9-5.54c-16.26-6.18-33.83-13.8-47.25-25.05c-3.7-3.11-8.44-7.51-8.92-12.63
		C107.05,164.72,118.56,158.74,125.66,156.23z M95.07,296.58c-7.06-5.85-3.15-18.22,0.09-25.01c4.07-8.53,8.99-15.12,15.44-21.94
		c0,0-26.91-28.06-18.53-43.52c2.24-4.12,8.65-4.19,12.66-4.11c7.89,0.15,15.78,1.92,23.37,3.93c10.87,2.87,21.23,6.87,31.68,10.94
		c5.22,2.04,10.46,4.14,15.26,7.07c4.18,2.55,11.08,6.44,10.21,12.26c-0.83,5.53-6.96,11.05-11.71,13.4c0.03,0,4.2,3.07,4.63,3.38
		c2.73,1.97,5.08,4.79,6.04,8.06c0.95,3.25,0.34,6.93-1.96,9.48c-5.56,6.17-13.39,9.64-20.82,12.98
		c-15.86,7.12-33.68,14.17-51.12,15.69C105.49,299.62,99.03,299.85,95.07,296.58z M185.4,383.51c-3.11,3.71-7.51,8.44-12.62,8.92
		c-9.13,0.86-15.11-10.65-17.62-17.75c-3.16-8.9-4.34-17.04-4.59-26.42c0,0-38.88-0.82-43.88-17.67c-1.34-4.5,3.15-9.08,6.04-11.87
		c5.68-5.47,12.52-9.79,19.31-13.74c9.71-5.65,19.86-10.15,30.13-14.66c5.13-2.25,10.33-4.47,15.79-5.79
		c4.76-1.15,12.39-3.29,15.89,1.45c3.32,4.49,2.89,12.73,1.19,17.75c0.01-0.02,5.15-0.8,5.67-0.89c3.32-0.53,6.98-0.2,9.97,1.44
		c2.96,1.62,5.13,4.66,5.31,8.08c0.44,8.29-2.64,16.29-5.54,23.91C204.27,352.52,196.66,370.1,185.4,383.51z M295.51,405.27
		c-5.86,7.06-18.23,3.15-25.02-0.09c-8.53-4.07-15.11-8.98-21.93-15.44c0,0-28.07,26.91-43.52,18.53
		c-4.13-2.24-4.19-8.65-4.12-12.66c0.15-7.89,1.93-15.78,3.94-23.37c2.87-10.86,6.87-21.23,10.94-31.68
		c2.04-5.22,4.14-10.46,7.07-15.26c2.55-4.17,6.43-11.08,12.26-10.21c5.52,0.83,11.04,6.97,13.4,11.71c0-0.03,3.06-4.2,3.37-4.63
		c1.98-2.73,4.8-5.08,8.07-6.04c3.24-0.94,6.92-0.33,9.47,1.96c6.17,5.56,9.65,13.39,12.99,20.82
		c7.12,15.86,14.17,33.68,15.69,51.12C298.54,394.85,298.78,401.31,295.51,405.27z M373.61,345.19c-8.91,3.15-17.04,4.33-26.43,4.59
		c0,0-0.81,38.87-17.67,43.87c-4.5,1.34-9.08-3.15-11.86-6.04c-5.47-5.68-9.79-12.51-13.74-19.3c-5.65-9.72-10.15-19.87-14.66-30.14
		c-2.26-5.13-4.48-10.33-5.8-15.79c-1.15-4.76-3.28-12.39,1.45-15.89c4.5-3.32,12.74-2.88,17.76-1.19
		c-0.03-0.01-0.81-5.14-0.89-5.67c-0.54-3.32-0.21-6.98,1.43-9.97c1.63-2.96,4.66-5.13,8.09-5.31c8.29-0.44,16.29,2.65,23.9,5.54
		c16.25,6.18,33.83,13.79,47.25,25.05c3.7,3.11,8.44,7.51,8.92,12.62C392.22,336.69,380.7,342.67,373.61,345.19z M407.19,295.3
		c-2.23,4.13-8.64,4.2-12.65,4.12c-7.89-0.15-15.78-1.93-23.37-3.93c-10.87-2.88-21.23-6.88-31.68-10.95
		c-5.22-2.03-10.47-4.13-15.26-7.07c-4.18-2.55-11.08-6.43-10.21-12.25c0.83-5.53,6.96-11.05,11.71-13.4
		c-0.03,0-4.21-3.07-4.64-3.38c-2.73-1.97-5.08-4.79-6.03-8.07c-0.95-3.24-0.34-6.92,1.96-9.47c5.55-6.17,13.39-9.65,20.82-12.98
		c15.86-7.13,33.67-14.17,51.12-15.7c4.82-0.42,11.28-0.66,15.23,2.62c7.07,5.85,3.15,18.22-0.09,25.01
		c-4.06,8.53-8.98,15.11-15.44,21.93C388.66,251.78,415.58,279.85,407.19,295.3z M250,27.92C127.35,27.92,27.92,127.35,27.92,250
		S127.35,472.08,250,472.08S472.08,372.65,472.08,250S372.65,27.92,250,27.92z M250,456.08c-113.81,0-206.08-92.27-206.08-206.08
		S136.19,43.92,250,43.92S456.08,136.19,456.08,250S363.81,456.08,250,456.08z M285.41,214.89c-5.76-5.76-15.07-5.81-20.89-0.15
		c-0.11-8.12-6.73-14.66-14.87-14.66c-8.15,0-14.77,6.54-14.88,14.66c-5.82-5.66-15.13-5.61-20.89,0.15
		c-5.76,5.76-5.81,15.08-0.15,20.9c-8.11,0.11-14.67,6.72-14.67,14.87c0,8.15,6.56,14.76,14.67,14.87
		c-5.66,5.82-5.61,15.13,0.15,20.9c5.76,5.76,15.07,5.81,20.89,0.15c0.11,8.12,6.73,14.66,14.88,14.66
		c8.14,0,14.76-6.54,14.87-14.66c5.82,5.66,15.13,5.61,20.89-0.15c5.76-5.77,5.81-15.08,0.15-20.9c8.12-0.1,14.67-6.72,14.67-14.87
		c0-8.15-6.55-14.77-14.67-14.87C291.22,229.97,291.17,220.65,285.41,214.89z M264.37,265.38c-2.86,2.85-4.31,6.57-4.35,10.31
		c-2.67-2.61-6.33-4.21-10.37-4.21c-4.04,0-7.7,1.6-10.38,4.21c-0.04-3.74-1.5-7.46-4.35-10.31c-2.84-2.84-6.56-4.3-10.3-4.35
		c2.6-2.67,4.21-6.33,4.21-10.37c0-4.04-1.61-7.7-4.21-10.37c3.74-0.05,7.46-1.51,10.3-4.35c2.85-2.85,4.31-6.58,4.35-10.31
		c2.68,2.61,6.34,4.21,10.38,4.21c4.04,0,7.7-1.6,10.37-4.21c0.04,3.73,1.49,7.46,4.35,10.31c2.86,2.85,6.57,4.31,10.31,4.35
		c-2.6,2.67-4.21,6.33-4.21,10.37c0,4.04,1.61,7.7,4.21,10.37C270.94,261.07,267.23,262.53,264.37,265.38z M249.65,235.78
		c-8.22,0-14.89,6.66-14.89,14.88c0,8.22,6.67,14.88,14.89,14.88c8.21,0,14.88-6.66,14.88-14.88
		C264.53,242.44,257.86,235.78,249.65,235.78z M300.23,250.66c0-8.15-6.55-14.77-14.67-14.87c5.66-5.82,5.61-15.14-0.15-20.9
		c-5.76-5.76-15.07-5.81-20.89-0.15c-0.11-8.12-6.73-14.66-14.87-14.66c-8.15,0-14.77,6.54-14.88,14.66
		c-5.82-5.66-15.13-5.61-20.89,0.15c-5.76,5.76-5.81,15.08-0.15,20.9c-8.11,0.11-14.67,6.72-14.67,14.87
		c0,8.15,6.56,14.76,14.67,14.87c-5.66,5.82-5.61,15.13,0.15,20.9c5.76,5.76,15.07,5.81,20.89,0.15
		c0.11,8.12,6.73,14.66,14.88,14.66c8.14,0,14.76-6.54,14.87-14.66c5.82,5.66,15.13,5.61,20.89-0.15c5.76-5.77,5.81-15.08,0.15-20.9
		C293.68,265.43,300.23,258.81,300.23,250.66z M264.37,265.38c-2.86,2.85-4.31,6.57-4.35,10.31c-2.67-2.61-6.33-4.21-10.37-4.21
		c-4.04,0-7.7,1.6-10.38,4.21c-0.04-3.74-1.5-7.46-4.35-10.31c-2.84-2.84-6.56-4.3-10.3-4.35c2.6-2.67,4.21-6.33,4.21-10.37
		c0-4.04-1.61-7.7-4.21-10.37c3.74-0.05,7.46-1.51,10.3-4.35c2.85-2.85,4.31-6.58,4.35-10.31c2.68,2.61,6.34,4.21,10.38,4.21
		c4.04,0,7.7-1.6,10.37-4.21c0.04,3.73,1.49,7.46,4.35,10.31c2.86,2.85,6.57,4.31,10.31,4.35c-2.6,2.67-4.21,6.33-4.21,10.37
		c0,4.04,1.61,7.7,4.21,10.37C270.94,261.07,267.23,262.53,264.37,265.38z M249.65,235.78c-8.22,0-14.89,6.66-14.89,14.88
		c0,8.22,6.67,14.88,14.89,14.88c8.21,0,14.88-6.66,14.88-14.88C264.53,242.44,257.86,235.78,249.65,235.78z M436.21,290.31
		c-2.87-15-7.13-28.32-6.56-43.56c0.6-16.08,15.63-51.32,1.35-64.45c-2.5-2.3-5.5-3.31-8.79-3.43c0.02-0.02,0.03-0.03,0.05-0.05
		c1.09-1.17,1.98-2.51,2.58-4.03c4.62-11.69-6.69-22.43-14.92-28c-12.63-8.58-25.06-14.99-35.44-26.17
		c-10.94-11.8-25.23-47.34-44.62-46.53c-3.39,0.14-6.22,1.56-8.63,3.79v-0.07c-0.06-1.59-0.38-3.17-1.03-4.67
		c-5-11.54-20.59-11.13-30.35-9.26c-14.99,2.87-28.32,7.13-43.56,6.56c-16.08-0.6-51.32-15.63-64.45-1.35
		c-2.3,2.5-3.31,5.5-3.43,8.79c-0.02-0.02-0.03-0.03-0.05-0.05c-1.16-1.09-2.5-1.98-4.03-2.58c-11.69-4.62-22.43,6.69-28,14.92
		c-8.58,12.63-14.99,25.06-26.16,35.44c-11.81,10.94-47.35,25.23-46.54,44.62c0.15,3.39,1.56,6.22,3.79,8.63h-0.07
		c-1.59,0.06-3.17,0.38-4.67,1.03c-11.53,5-11.13,20.59-9.26,30.35c2.87,14.99,7.13,28.32,6.57,43.56
		c-0.61,16.08-15.64,51.32-1.36,64.45c2.5,2.3,5.51,3.31,8.79,3.43c-0.02,0.02-0.03,0.03-0.05,0.05c-1.09,1.16-1.98,2.5-2.58,4.03
		c-4.62,11.69,6.69,22.43,14.92,28c12.63,8.58,25.06,14.99,35.44,26.16c10.94,11.81,25.23,47.35,44.62,46.54
		c3.39-0.15,6.23-1.56,8.63-3.79c0.01,0.02,0,0.04,0,0.06c0.06,1.6,0.38,3.18,1.03,4.68c5,11.53,20.59,11.13,30.35,9.26
		c15-2.87,28.32-7.13,43.56-6.57c16.08,0.61,51.32,15.64,64.45,1.36c2.3-2.5,3.31-5.51,3.43-8.79c0.02,0.02,0.03,0.03,0.05,0.05
		c1.17,1.09,2.51,1.98,4.03,2.58c11.69,4.62,22.43-6.69,28-14.92c8.58-12.63,14.99-25.06,26.17-35.44
		c11.8-10.94,47.34-25.23,46.53-44.62c-0.14-3.39-1.56-6.23-3.79-8.64c0.02,0,0.05,0.01,0.07,0.01c1.59-0.06,3.17-0.38,4.67-1.03
		C438.49,315.66,438.08,300.07,436.21,290.31z M313.87,117.91c3.11-3.71,7.51-8.45,12.62-8.93c9.13-0.86,15.11,10.66,17.62,17.75
		c3.16,8.91,4.34,17.04,4.59,26.43c0,0,38.88,0.82,43.88,17.67c1.33,4.5-3.15,9.08-6.04,11.86c-5.69,5.47-12.52,9.8-19.31,13.75
		c-9.71,5.65-19.87,10.14-30.13,14.65c-5.14,2.26-10.33,4.48-15.79,5.8c-4.76,1.15-12.39,3.28-15.89-1.45
		c-3.32-4.49-2.89-12.74-1.2-17.76c0,0.03-5.14,0.81-5.66,0.89c-3.33,0.54-6.98,0.21-9.97-1.43c-2.96-1.63-5.14-4.66-5.32-8.09
		c-0.43-8.29,2.65-16.29,5.55-23.9C295,148.9,302.61,131.32,313.87,117.91z M307.83,250c0,31.94-25.89,57.83-57.83,57.83
		s-57.83-25.89-57.83-57.83s25.89-57.83,57.83-57.83S307.83,218.06,307.83,250z M203.76,96.15c5.85-7.06,18.22-3.15,25.02,0.09
		c8.53,4.07,15.11,8.98,21.93,15.44c0,0,28.07-26.91,43.52-18.53c4.12,2.23,4.19,8.64,4.12,12.66c-0.16,7.88-1.93,15.77-3.94,23.37
		c-2.87,10.86-6.87,21.22-10.94,31.67c-2.04,5.22-4.14,10.47-7.07,15.27c-2.55,4.17-6.43,11.08-12.26,10.2
		c-5.53-0.83-11.04-6.96-13.4-11.71c0,0.04-3.07,4.21-3.38,4.64c-1.97,2.73-4.79,5.08-8.06,6.03c-3.24,0.95-6.93,0.34-9.48-1.96
		c-6.16-5.55-9.64-13.39-12.98-20.82c-7.12-15.86-14.17-33.67-15.69-51.12C200.73,106.56,200.49,100.1,203.76,96.15z M125.66,156.23
		c8.91-3.15,17.04-4.34,26.42-4.59c0,0,0.82-38.88,17.68-43.88c4.49-1.33,9.07,3.15,11.86,6.04c5.47,5.69,9.79,12.52,13.74,19.31
		c5.65,9.71,10.15,19.87,14.66,30.14c2.25,5.13,4.48,10.32,5.8,15.79c1.14,4.75,3.28,12.38-1.45,15.88
		c-4.5,3.33-12.74,2.89-17.76,1.2c0.02,0.01,0.8,5.14,0.89,5.66c0.53,3.33,0.2,6.98-1.44,9.97c-1.62,2.97-4.66,5.14-8.08,5.32
		c-8.29,0.43-16.29-2.65-23.9-5.54c-16.26-6.18-33.83-13.8-47.25-25.05c-3.7-3.11-8.44-7.51-8.92-12.63
		C107.05,164.72,118.56,158.74,125.66,156.23z M95.07,296.58c-7.06-5.85-3.15-18.22,0.09-25.01c4.07-8.53,8.99-15.12,15.44-21.94
		c0,0-26.91-28.06-18.53-43.52c2.24-4.12,8.65-4.19,12.66-4.11c7.89,0.15,15.78,1.92,23.37,3.93c10.87,2.87,21.23,6.87,31.68,10.94
		c5.22,2.04,10.46,4.14,15.26,7.07c4.18,2.55,11.08,6.44,10.21,12.26c-0.83,5.53-6.96,11.05-11.71,13.4c0.03,0,4.2,3.07,4.63,3.38
		c2.73,1.97,5.08,4.79,6.04,8.06c0.95,3.25,0.34,6.93-1.96,9.48c-5.56,6.17-13.39,9.64-20.82,12.98
		c-15.86,7.12-33.68,14.17-51.12,15.69C105.49,299.62,99.03,299.85,95.07,296.58z M185.4,383.51c-3.11,3.71-7.51,8.44-12.62,8.92
		c-9.13,0.86-15.11-10.65-17.62-17.75c-3.16-8.9-4.34-17.04-4.59-26.42c0,0-38.88-0.82-43.88-17.67c-1.34-4.5,3.15-9.08,6.04-11.87
		c5.68-5.47,12.52-9.79,19.31-13.74c9.71-5.65,19.86-10.15,30.13-14.66c5.13-2.25,10.33-4.47,15.79-5.79
		c4.76-1.15,12.39-3.29,15.89,1.45c3.32,4.49,2.89,12.73,1.19,17.75c0.01-0.02,5.15-0.8,5.67-0.89c3.32-0.53,6.98-0.2,9.97,1.44
		c2.96,1.62,5.13,4.66,5.31,8.08c0.44,8.29-2.64,16.29-5.54,23.91C204.27,352.52,196.66,370.1,185.4,383.51z M295.51,405.27
		c-5.86,7.06-18.23,3.15-25.02-0.09c-8.53-4.07-15.11-8.98-21.93-15.44c0,0-28.07,26.91-43.52,18.53
		c-4.13-2.24-4.19-8.65-4.12-12.66c0.15-7.89,1.93-15.78,3.94-23.37c2.87-10.86,6.87-21.23,10.94-31.68
		c2.04-5.22,4.14-10.46,7.07-15.26c2.55-4.17,6.43-11.08,12.26-10.21c5.52,0.83,11.04,6.97,13.4,11.71c0-0.03,3.06-4.2,3.37-4.63
		c1.98-2.73,4.8-5.08,8.07-6.04c3.24-0.94,6.92-0.33,9.47,1.96c6.17,5.56,9.65,13.39,12.99,20.82
		c7.12,15.86,14.17,33.68,15.69,51.12C298.54,394.85,298.78,401.31,295.51,405.27z M373.61,345.19c-8.91,3.15-17.04,4.33-26.43,4.59
		c0,0-0.81,38.87-17.67,43.87c-4.5,1.34-9.08-3.15-11.86-6.04c-5.47-5.68-9.79-12.51-13.74-19.3c-5.65-9.72-10.15-19.87-14.66-30.14
		c-2.26-5.13-4.48-10.33-5.8-15.79c-1.15-4.76-3.28-12.39,1.45-15.89c4.5-3.32,12.74-2.88,17.76-1.19
		c-0.03-0.01-0.81-5.14-0.89-5.67c-0.54-3.32-0.21-6.98,1.43-9.97c1.63-2.96,4.66-5.13,8.09-5.31c8.29-0.44,16.29,2.65,23.9,5.54
		c16.25,6.18,33.83,13.79,47.25,25.05c3.7,3.11,8.44,7.51,8.92,12.62C392.22,336.69,380.7,342.67,373.61,345.19z M407.19,295.3
		c-2.23,4.13-8.64,4.2-12.65,4.12c-7.89-0.15-15.78-1.93-23.37-3.93c-10.87-2.88-21.23-6.88-31.68-10.95
		c-5.22-2.03-10.47-4.13-15.26-7.07c-4.18-2.55-11.08-6.43-10.21-12.25c0.83-5.53,6.96-11.05,11.71-13.4
		c-0.03,0-4.21-3.07-4.64-3.38c-2.73-1.97-5.08-4.79-6.03-8.07c-0.95-3.24-0.34-6.92,1.96-9.47c5.55-6.17,13.39-9.65,20.82-12.98
		c15.86-7.13,33.67-14.17,51.12-15.7c4.82-0.42,11.28-0.66,15.23,2.62c7.07,5.85,3.15,18.22-0.09,25.01
		c-4.06,8.53-8.98,15.11-15.44,21.93C388.66,251.78,415.58,279.85,407.19,295.3z M285.41,214.89c-5.76-5.76-15.07-5.81-20.89-0.15
		c-0.11-8.12-6.73-14.66-14.87-14.66c-8.15,0-14.77,6.54-14.88,14.66c-5.82-5.66-15.13-5.61-20.89,0.15
		c-5.76,5.76-5.81,15.08-0.15,20.9c-8.11,0.11-14.67,6.72-14.67,14.87c0,8.15,6.56,14.76,14.67,14.87
		c-5.66,5.82-5.61,15.13,0.15,20.9c5.76,5.76,15.07,5.81,20.89,0.15c0.11,8.12,6.73,14.66,14.88,14.66
		c8.14,0,14.76-6.54,14.87-14.66c5.82,5.66,15.13,5.61,20.89-0.15c5.76-5.77,5.81-15.08,0.15-20.9c8.12-0.1,14.67-6.72,14.67-14.87
		c0-8.15-6.55-14.77-14.67-14.87C291.22,229.97,291.17,220.65,285.41,214.89z M264.37,265.38c-2.86,2.85-4.31,6.57-4.35,10.31
		c-2.67-2.61-6.33-4.21-10.37-4.21c-4.04,0-7.7,1.6-10.38,4.21c-0.04-3.74-1.5-7.46-4.35-10.31c-2.84-2.84-6.56-4.3-10.3-4.35
		c2.6-2.67,4.21-6.33,4.21-10.37c0-4.04-1.61-7.7-4.21-10.37c3.74-0.05,7.46-1.51,10.3-4.35c2.85-2.85,4.31-6.58,4.35-10.31
		c2.68,2.61,6.34,4.21,10.38,4.21c4.04,0,7.7-1.6,10.37-4.21c0.04,3.73,1.49,7.46,4.35,10.31c2.86,2.85,6.57,4.31,10.31,4.35
		c-2.6,2.67-4.21,6.33-4.21,10.37c0,4.04,1.61,7.7,4.21,10.37C270.94,261.07,267.23,262.53,264.37,265.38z M249.65,235.78
		c-8.22,0-14.89,6.66-14.89,14.88c0,8.22,6.67,14.88,14.89,14.88c8.21,0,14.88-6.66,14.88-14.88
		C264.53,242.44,257.86,235.78,249.65,235.78z M249.65,235.78c-8.22,0-14.89,6.66-14.89,14.88c0,8.22,6.67,14.88,14.89,14.88
		c8.21,0,14.88-6.66,14.88-14.88C264.53,242.44,257.86,235.78,249.65,235.78z M249.65,235.78c-8.22,0-14.89,6.66-14.89,14.88
		c0,8.22,6.67,14.88,14.89,14.88c8.21,0,14.88-6.66,14.88-14.88C264.53,242.44,257.86,235.78,249.65,235.78z M300.23,250.66
		c0-8.15-6.55-14.77-14.67-14.87c5.66-5.82,5.61-15.14-0.15-20.9c-5.76-5.76-15.07-5.81-20.89-0.15
		c-0.11-8.12-6.73-14.66-14.87-14.66c-8.15,0-14.77,6.54-14.88,14.66c-5.82-5.66-15.13-5.61-20.89,0.15
		c-5.76,5.76-5.81,15.08-0.15,20.9c-8.11,0.11-14.67,6.72-14.67,14.87c0,8.15,6.56,14.76,14.67,14.87
		c-5.66,5.82-5.61,15.13,0.15,20.9c5.76,5.76,15.07,5.81,20.89,0.15c0.11,8.12,6.73,14.66,14.88,14.66
		c8.14,0,14.76-6.54,14.87-14.66c5.82,5.66,15.13,5.61,20.89-0.15c5.76-5.77,5.81-15.08,0.15-20.9
		C293.68,265.43,300.23,258.81,300.23,250.66z M264.37,265.38c-2.86,2.85-4.31,6.57-4.35,10.31c-2.67-2.61-6.33-4.21-10.37-4.21
		c-4.04,0-7.7,1.6-10.38,4.21c-0.04-3.74-1.5-7.46-4.35-10.31c-2.84-2.84-6.56-4.3-10.3-4.35c2.6-2.67,4.21-6.33,4.21-10.37
		c0-4.04-1.61-7.7-4.21-10.37c3.74-0.05,7.46-1.51,10.3-4.35c2.85-2.85,4.31-6.58,4.35-10.31c2.68,2.61,6.34,4.21,10.38,4.21
		c4.04,0,7.7-1.6,10.37-4.21c0.04,3.73,1.49,7.46,4.35,10.31c2.86,2.85,6.57,4.31,10.31,4.35c-2.6,2.67-4.21,6.33-4.21,10.37
		c0,4.04,1.61,7.7,4.21,10.37C270.94,261.07,267.23,262.53,264.37,265.38z M249.65,235.78c-8.22,0-14.89,6.66-14.89,14.88
		c0,8.22,6.67,14.88,14.89,14.88c8.21,0,14.88-6.66,14.88-14.88C264.53,242.44,257.86,235.78,249.65,235.78z M249.65,235.78
		c-8.22,0-14.89,6.66-14.89,14.88c0,8.22,6.67,14.88,14.89,14.88c8.21,0,14.88-6.66,14.88-14.88
		C264.53,242.44,257.86,235.78,249.65,235.78z M249.65,235.78c-8.22,0-14.89,6.66-14.89,14.88c0,8.22,6.67,14.88,14.89,14.88
		c8.21,0,14.88-6.66,14.88-14.88C264.53,242.44,257.86,235.78,249.65,235.78z M300.23,250.66c0-8.15-6.55-14.77-14.67-14.87
		c5.66-5.82,5.61-15.14-0.15-20.9c-5.76-5.76-15.07-5.81-20.89-0.15c-0.11-8.12-6.73-14.66-14.87-14.66
		c-8.15,0-14.77,6.54-14.88,14.66c-5.82-5.66-15.13-5.61-20.89,0.15c-5.76,5.76-5.81,15.08-0.15,20.9
		c-8.11,0.11-14.67,6.72-14.67,14.87c0,8.15,6.56,14.76,14.67,14.87c-5.66,5.82-5.61,15.13,0.15,20.9
		c5.76,5.76,15.07,5.81,20.89,0.15c0.11,8.12,6.73,14.66,14.88,14.66c8.14,0,14.76-6.54,14.87-14.66
		c5.82,5.66,15.13,5.61,20.89-0.15c5.76-5.77,5.81-15.08,0.15-20.9C293.68,265.43,300.23,258.81,300.23,250.66z M264.37,265.38
		c-2.86,2.85-4.31,6.57-4.35,10.31c-2.67-2.61-6.33-4.21-10.37-4.21c-4.04,0-7.7,1.6-10.38,4.21c-0.04-3.74-1.5-7.46-4.35-10.31
		c-2.84-2.84-6.56-4.3-10.3-4.35c2.6-2.67,4.21-6.33,4.21-10.37c0-4.04-1.61-7.7-4.21-10.37c3.74-0.05,7.46-1.51,10.3-4.35
		c2.85-2.85,4.31-6.58,4.35-10.31c2.68,2.61,6.34,4.21,10.38,4.21c4.04,0,7.7-1.6,10.37-4.21c0.04,3.73,1.49,7.46,4.35,10.31
		c2.86,2.85,6.57,4.31,10.31,4.35c-2.6,2.67-4.21,6.33-4.21,10.37c0,4.04,1.61,7.7,4.21,10.37
		C270.94,261.07,267.23,262.53,264.37,265.38z M249.65,235.78c-8.22,0-14.89,6.66-14.89,14.88c0,8.22,6.67,14.88,14.89,14.88
		c8.21,0,14.88-6.66,14.88-14.88C264.53,242.44,257.86,235.78,249.65,235.78z M249.65,235.78c-8.22,0-14.89,6.66-14.89,14.88
		c0,8.22,6.67,14.88,14.89,14.88c8.21,0,14.88-6.66,14.88-14.88C264.53,242.44,257.86,235.78,249.65,235.78z M249.65,235.78
		c-8.22,0-14.89,6.66-14.89,14.88c0,8.22,6.67,14.88,14.89,14.88c8.21,0,14.88-6.66,14.88-14.88
		C264.53,242.44,257.86,235.78,249.65,235.78z"/>
	<path class="st0" d="M300.23,250.66c0-8.15-6.55-14.77-14.67-14.87c5.66-5.82,5.61-15.14-0.15-20.9
		c-5.76-5.76-15.07-5.81-20.89-0.15c-0.11-8.12-6.73-14.66-14.87-14.66c-8.15,0-14.77,6.54-14.88,14.66
		c-5.82-5.66-15.13-5.61-20.89,0.15c-5.76,5.76-5.81,15.08-0.15,20.9c-8.11,0.11-14.67,6.72-14.67,14.87
		c0,8.15,6.56,14.76,14.67,14.87c-5.66,5.82-5.61,15.13,0.15,20.9c5.76,5.76,15.07,5.81,20.89,0.15
		c0.11,8.12,6.73,14.66,14.88,14.66c8.14,0,14.76-6.54,14.87-14.66c5.82,5.66,15.13,5.61,20.89-0.15c5.76-5.77,5.81-15.08,0.15-20.9
		C293.68,265.43,300.23,258.81,300.23,250.66z M282.01,265.42c-0.43-0.17-0.86-0.34-1.29-0.51l-16.9,16.89l-1.72,1.72l-0.23,0.23
		c-0.18-0.43-0.37-0.85-0.55-1.28h-26.65c0.17-0.43,0.34-0.86,0.51-1.3L217,262.99l-0.66-0.66c0.43-0.18,0.85-0.37,1.28-0.56v-26.64
		c0.43,0.17,0.86,0.34,1.3,0.51l18.84-18.84c0.18,0.42,0.37,0.85,0.56,1.28h26.64c-0.17,0.43-0.34,0.86-0.51,1.29l18.84,18.84
		c-0.42,0.19-0.85,0.38-1.28,0.56V265.42z M300.23,250.66c0-8.15-6.55-14.77-14.67-14.87c5.66-5.82,5.61-15.14-0.15-20.9
		c-5.76-5.76-15.07-5.81-20.89-0.15c-0.11-8.12-6.73-14.66-14.87-14.66c-8.15,0-14.77,6.54-14.88,14.66
		c-5.82-5.66-15.13-5.61-20.89,0.15c-5.76,5.76-5.81,15.08-0.15,20.9c-8.11,0.11-14.67,6.72-14.67,14.87
		c0,8.15,6.56,14.76,14.67,14.87c-5.66,5.82-5.61,15.13,0.15,20.9c5.76,5.76,15.07,5.81,20.89,0.15
		c0.11,8.12,6.73,14.66,14.88,14.66c8.14,0,14.76-6.54,14.87-14.66c5.82,5.66,15.13,5.61,20.89-0.15c5.76-5.77,5.81-15.08,0.15-20.9
		C293.68,265.43,300.23,258.81,300.23,250.66z M282.01,265.42c-0.43-0.17-0.86-0.34-1.29-0.51l-16.9,16.89l-1.72,1.72l-0.23,0.23
		c-0.18-0.43-0.37-0.85-0.55-1.28h-26.65c0.17-0.43,0.34-0.86,0.51-1.3L217,262.99l-0.66-0.66c0.43-0.18,0.85-0.37,1.28-0.56v-26.64
		c0.43,0.17,0.86,0.34,1.3,0.51l18.84-18.84c0.18,0.42,0.37,0.85,0.56,1.28h26.64c-0.17,0.43-0.34,0.86-0.51,1.29l18.84,18.84
		c-0.42,0.19-0.85,0.38-1.28,0.56V265.42z M300.23,250.66c0-8.15-6.55-14.77-14.67-14.87c5.66-5.82,5.61-15.14-0.15-20.9
		c-5.76-5.76-15.07-5.81-20.89-0.15c-0.11-8.12-6.73-14.66-14.87-14.66c-8.15,0-14.77,6.54-14.88,14.66
		c-5.82-5.66-15.13-5.61-20.89,0.15c-5.76,5.76-5.81,15.08-0.15,20.9c-8.11,0.11-14.67,6.72-14.67,14.87
		c0,8.15,6.56,14.76,14.67,14.87c-5.66,5.82-5.61,15.13,0.15,20.9c5.76,5.76,15.07,5.81,20.89,0.15
		c0.11,8.12,6.73,14.66,14.88,14.66c8.14,0,14.76-6.54,14.87-14.66c5.82,5.66,15.13,5.61,20.89-0.15c5.76-5.77,5.81-15.08,0.15-20.9
		C293.68,265.43,300.23,258.81,300.23,250.66z M282.01,265.42c-0.43-0.17-0.86-0.34-1.29-0.51l-16.9,16.89l-1.72,1.72l-0.23,0.23
		c-0.18-0.43-0.37-0.85-0.55-1.28h-26.65c0.17-0.43,0.34-0.86,0.51-1.3L217,262.99l-0.66-0.66c0.43-0.18,0.85-0.37,1.28-0.56v-26.64
		c0.43,0.17,0.86,0.34,1.3,0.51l18.84-18.84c0.18,0.42,0.37,0.85,0.56,1.28h26.64c-0.17,0.43-0.34,0.86-0.51,1.29l18.84,18.84
		c-0.42,0.19-0.85,0.38-1.28,0.56V265.42z M300.23,250.66c0-8.15-6.55-14.77-14.67-14.87c5.66-5.82,5.61-15.14-0.15-20.9
		c-5.76-5.76-15.07-5.81-20.89-0.15c-0.11-8.12-6.73-14.66-14.87-14.66c-8.15,0-14.77,6.54-14.88,14.66
		c-5.82-5.66-15.13-5.61-20.89,0.15c-5.76,5.76-5.81,15.08-0.15,20.9c-8.11,0.11-14.67,6.72-14.67,14.87
		c0,8.15,6.56,14.76,14.67,14.87c-5.66,5.82-5.61,15.13,0.15,20.9c5.76,5.76,15.07,5.81,20.89,0.15
		c0.11,8.12,6.73,14.66,14.88,14.66c8.14,0,14.76-6.54,14.87-14.66c5.82,5.66,15.13,5.61,20.89-0.15c5.76-5.77,5.81-15.08,0.15-20.9
		C293.68,265.43,300.23,258.81,300.23,250.66z M282.01,265.42c-0.43-0.17-0.86-0.34-1.29-0.51l-16.9,16.89l-1.72,1.72l-0.23,0.23
		c-0.18-0.43-0.37-0.85-0.55-1.28h-26.65c0.17-0.43,0.34-0.86,0.51-1.3L217,262.99l-0.66-0.66c0.43-0.18,0.85-0.37,1.28-0.56v-26.64
		c0.43,0.17,0.86,0.34,1.3,0.51l18.84-18.84c0.18,0.42,0.37,0.85,0.56,1.28h26.64c-0.17,0.43-0.34,0.86-0.51,1.29l18.84,18.84
		c-0.42,0.19-0.85,0.38-1.28,0.56V265.42z M436.21,290.31c-2.87-15-7.13-28.32-6.56-43.56c0.6-16.08,15.63-51.32,1.35-64.45
		c-2.5-2.3-5.5-3.31-8.79-3.43c0.02-0.02,0.03-0.03,0.05-0.05c1.09-1.17,1.98-2.51,2.58-4.03c4.62-11.69-6.69-22.43-14.92-28
		c-12.63-8.58-25.06-14.99-35.44-26.17c-10.94-11.8-25.23-47.34-44.62-46.53c-3.39,0.14-6.22,1.56-8.63,3.79v-0.07
		c-0.06-1.59-0.38-3.17-1.03-4.67c-5-11.54-20.59-11.13-30.35-9.26c-14.99,2.87-28.32,7.13-43.56,6.56
		c-16.08-0.6-51.32-15.63-64.45-1.35c-2.3,2.5-3.31,5.5-3.43,8.79c-0.02-0.02-0.03-0.03-0.05-0.05c-1.16-1.09-2.5-1.98-4.03-2.58
		c-11.69-4.62-22.43,6.69-28,14.92c-8.58,12.63-14.99,25.06-26.16,35.44c-11.81,10.94-47.35,25.23-46.54,44.62
		c0.15,3.39,1.56,6.22,3.79,8.63h-0.07c-1.59,0.06-3.17,0.38-4.67,1.03c-11.53,5-11.13,20.59-9.26,30.35
		c2.87,14.99,7.13,28.32,6.57,43.56c-0.61,16.08-15.64,51.32-1.36,64.45c2.5,2.3,5.51,3.31,8.79,3.43
		c-0.02,0.02-0.03,0.03-0.05,0.05c-1.09,1.16-1.98,2.5-2.58,4.03c-4.62,11.69,6.69,22.43,14.92,28
		c12.63,8.58,25.06,14.99,35.44,26.16c10.94,11.81,25.23,47.35,44.62,46.54c3.39-0.15,6.23-1.56,8.63-3.79c0.01,0.02,0,0.04,0,0.06
		c0.06,1.6,0.38,3.18,1.03,4.68c5,11.53,20.59,11.13,30.35,9.26c15-2.87,28.32-7.13,43.56-6.57c16.08,0.61,51.32,15.64,64.45,1.36
		c2.3-2.5,3.31-5.51,3.43-8.79c0.02,0.02,0.03,0.03,0.05,0.05c1.17,1.09,2.51,1.98,4.03,2.58c11.69,4.62,22.43-6.69,28-14.92
		c8.58-12.63,14.99-25.06,26.17-35.44c11.8-10.94,47.34-25.23,46.53-44.62c-0.14-3.39-1.56-6.23-3.79-8.64
		c0.02,0,0.05,0.01,0.07,0.01c1.59-0.06,3.17-0.38,4.67-1.03C438.49,315.66,438.08,300.07,436.21,290.31z M313.87,117.91
		c3.11-3.71,7.51-8.45,12.62-8.93c9.13-0.86,15.11,10.66,17.62,17.75c3.16,8.91,4.34,17.04,4.59,26.43c0,0,38.88,0.82,43.88,17.67
		c1.33,4.5-3.15,9.08-6.04,11.86c-5.69,5.47-12.52,9.8-19.31,13.75c-9.71,5.65-19.87,10.14-30.13,14.65
		c-5.14,2.26-10.33,4.48-15.79,5.8c-4.76,1.15-12.39,3.28-15.89-1.45c-3.32-4.49-2.89-12.74-1.2-17.76c0,0.03-5.14,0.81-5.66,0.89
		c-3.33,0.54-6.98,0.21-9.97-1.43c-2.96-1.63-5.14-4.66-5.32-8.09c-0.43-8.29,2.65-16.29,5.55-23.9
		C295,148.9,302.61,131.32,313.87,117.91z M307.83,250c0,31.94-25.89,57.83-57.83,57.83s-57.83-25.89-57.83-57.83
		s25.89-57.83,57.83-57.83S307.83,218.06,307.83,250z M203.76,96.15c5.85-7.06,18.22-3.15,25.02,0.09
		c8.53,4.07,15.11,8.98,21.93,15.44c0,0,28.07-26.91,43.52-18.53c4.12,2.23,4.19,8.64,4.12,12.66c-0.16,7.88-1.93,15.77-3.94,23.37
		c-2.87,10.86-6.87,21.22-10.94,31.67c-2.04,5.22-4.14,10.47-7.07,15.27c-2.55,4.17-6.43,11.08-12.26,10.2
		c-5.53-0.83-11.04-6.96-13.4-11.71c0,0.04-3.07,4.21-3.38,4.64c-1.97,2.73-4.79,5.08-8.06,6.03c-3.24,0.95-6.93,0.34-9.48-1.96
		c-6.16-5.55-9.64-13.39-12.98-20.82c-7.12-15.86-14.17-33.67-15.69-51.12C200.73,106.56,200.49,100.1,203.76,96.15z M125.66,156.23
		c8.91-3.15,17.04-4.34,26.42-4.59c0,0,0.82-38.88,17.68-43.88c4.49-1.33,9.07,3.15,11.86,6.04c5.47,5.69,9.79,12.52,13.74,19.31
		c5.65,9.71,10.15,19.87,14.66,30.14c2.25,5.13,4.48,10.32,5.8,15.79c1.14,4.75,3.28,12.38-1.45,15.88
		c-4.5,3.33-12.74,2.89-17.76,1.2c0.02,0.01,0.8,5.14,0.89,5.66c0.53,3.33,0.2,6.98-1.44,9.97c-1.62,2.97-4.66,5.14-8.08,5.32
		c-8.29,0.43-16.29-2.65-23.9-5.54c-16.26-6.18-33.83-13.8-47.25-25.05c-3.7-3.11-8.44-7.51-8.92-12.63
		C107.05,164.72,118.56,158.74,125.66,156.23z M95.07,296.58c-7.06-5.85-3.15-18.22,0.09-25.01c4.07-8.53,8.99-15.12,15.44-21.94
		c0,0-26.91-28.06-18.53-43.52c2.24-4.12,8.65-4.19,12.66-4.11c7.89,0.15,15.78,1.92,23.37,3.93c10.87,2.87,21.23,6.87,31.68,10.94
		c5.22,2.04,10.46,4.14,15.26,7.07c4.18,2.55,11.08,6.44,10.21,12.26c-0.83,5.53-6.96,11.05-11.71,13.4c0.03,0,4.2,3.07,4.63,3.38
		c2.73,1.97,5.08,4.79,6.04,8.06c0.95,3.25,0.34,6.93-1.96,9.48c-5.56,6.17-13.39,9.64-20.82,12.98
		c-15.86,7.12-33.68,14.17-51.12,15.69C105.49,299.62,99.03,299.85,95.07,296.58z M185.4,383.51c-3.11,3.71-7.51,8.44-12.62,8.92
		c-9.13,0.86-15.11-10.65-17.62-17.75c-3.16-8.9-4.34-17.04-4.59-26.42c0,0-38.88-0.82-43.88-17.67c-1.34-4.5,3.15-9.08,6.04-11.87
		c5.68-5.47,12.52-9.79,19.31-13.74c9.71-5.65,19.86-10.15,30.13-14.66c5.13-2.25,10.33-4.47,15.79-5.79
		c4.76-1.15,12.39-3.29,15.89,1.45c3.32,4.49,2.89,12.73,1.19,17.75c0.01-0.02,5.15-0.8,5.67-0.89c3.32-0.53,6.98-0.2,9.97,1.44
		c2.96,1.62,5.13,4.66,5.31,8.08c0.44,8.29-2.64,16.29-5.54,23.91C204.27,352.52,196.66,370.1,185.4,383.51z M295.51,405.27
		c-5.86,7.06-18.23,3.15-25.02-0.09c-8.53-4.07-15.11-8.98-21.93-15.44c0,0-28.07,26.91-43.52,18.53
		c-4.13-2.24-4.19-8.65-4.12-12.66c0.15-7.89,1.93-15.78,3.94-23.37c2.87-10.86,6.87-21.23,10.94-31.68
		c2.04-5.22,4.14-10.46,7.07-15.26c2.55-4.17,6.43-11.08,12.26-10.21c5.52,0.83,11.04,6.97,13.4,11.71c0-0.03,3.06-4.2,3.37-4.63
		c1.98-2.73,4.8-5.08,8.07-6.04c3.24-0.94,6.92-0.33,9.47,1.96c6.17,5.56,9.65,13.39,12.99,20.82
		c7.12,15.86,14.17,33.68,15.69,51.12C298.54,394.85,298.78,401.31,295.51,405.27z M373.61,345.19c-8.91,3.15-17.04,4.33-26.43,4.59
		c0,0-0.81,38.87-17.67,43.87c-4.5,1.34-9.08-3.15-11.86-6.04c-5.47-5.68-9.79-12.51-13.74-19.3c-5.65-9.72-10.15-19.87-14.66-30.14
		c-2.26-5.13-4.48-10.33-5.8-15.79c-1.15-4.76-3.28-12.39,1.45-15.89c4.5-3.32,12.74-2.88,17.76-1.19
		c-0.03-0.01-0.81-5.14-0.89-5.67c-0.54-3.32-0.21-6.98,1.43-9.97c1.63-2.96,4.66-5.13,8.09-5.31c8.29-0.44,16.29,2.65,23.9,5.54
		c16.25,6.18,33.83,13.79,47.25,25.05c3.7,3.11,8.44,7.51,8.92,12.62C392.22,336.69,380.7,342.67,373.61,345.19z M407.19,295.3
		c-2.23,4.13-8.64,4.2-12.65,4.12c-7.89-0.15-15.78-1.93-23.37-3.93c-10.87-2.88-21.23-6.88-31.68-10.95
		c-5.22-2.03-10.47-4.13-15.26-7.07c-4.18-2.55-11.08-6.43-10.21-12.25c0.83-5.53,6.96-11.05,11.71-13.4
		c-0.03,0-4.21-3.07-4.64-3.38c-2.73-1.97-5.08-4.79-6.03-8.07c-0.95-3.24-0.34-6.92,1.96-9.47c5.55-6.17,13.39-9.65,20.82-12.98
		c15.86-7.13,33.67-14.17,51.12-15.7c4.82-0.42,11.28-0.66,15.23,2.62c7.07,5.85,3.15,18.22-0.09,25.01
		c-4.06,8.53-8.98,15.11-15.44,21.93C388.66,251.78,415.58,279.85,407.19,295.3z M285.41,214.89c-5.76-5.76-15.07-5.81-20.89-0.15
		c-0.11-8.12-6.73-14.66-14.87-14.66c-8.15,0-14.77,6.54-14.88,14.66c-5.82-5.66-15.13-5.61-20.89,0.15
		c-5.76,5.76-5.81,15.08-0.15,20.9c-8.11,0.11-14.67,6.72-14.67,14.87c0,8.15,6.56,14.76,14.67,14.87
		c-5.66,5.82-5.61,15.13,0.15,20.9c5.76,5.76,15.07,5.81,20.89,0.15c0.11,8.12,6.73,14.66,14.88,14.66
		c8.14,0,14.76-6.54,14.87-14.66c5.82,5.66,15.13,5.61,20.89-0.15c5.76-5.77,5.81-15.08,0.15-20.9c8.12-0.1,14.67-6.72,14.67-14.87
		c0-8.15-6.55-14.77-14.67-14.87C291.22,229.97,291.17,220.65,285.41,214.89z M282.01,265.42c-0.43-0.17-0.86-0.34-1.29-0.51
		l-16.9,16.89l-1.72,1.72l-0.23,0.23c-0.18-0.43-0.37-0.85-0.55-1.28h-26.65c0.17-0.43,0.34-0.86,0.51-1.3L217,262.99l-0.66-0.66
		c0.43-0.18,0.85-0.37,1.28-0.56v-26.64c0.43,0.17,0.86,0.34,1.3,0.51l18.84-18.84c0.18,0.42,0.37,0.85,0.56,1.28h26.64
		c-0.17,0.43-0.34,0.86-0.51,1.29l18.84,18.84c-0.42,0.19-0.85,0.38-1.28,0.56V265.42z M300.23,250.66
		c0-8.15-6.55-14.77-14.67-14.87c5.66-5.82,5.61-15.14-0.15-20.9c-5.76-5.76-15.07-5.81-20.89-0.15
		c-0.11-8.12-6.73-14.66-14.87-14.66c-8.15,0-14.77,6.54-14.88,14.66c-5.82-5.66-15.13-5.61-20.89,0.15
		c-5.76,5.76-5.81,15.08-0.15,20.9c-8.11,0.11-14.67,6.72-14.67,14.87c0,8.15,6.56,14.76,14.67,14.87
		c-5.66,5.82-5.61,15.13,0.15,20.9c5.76,5.76,15.07,5.81,20.89,0.15c0.11,8.12,6.73,14.66,14.88,14.66
		c8.14,0,14.76-6.54,14.87-14.66c5.82,5.66,15.13,5.61,20.89-0.15c5.76-5.77,5.81-15.08,0.15-20.9
		C293.68,265.43,300.23,258.81,300.23,250.66z M282.01,265.42c-0.43-0.17-0.86-0.34-1.29-0.51l-16.9,16.89l-1.72,1.72l-0.23,0.23
		c-0.18-0.43-0.37-0.85-0.55-1.28h-26.65c0.17-0.43,0.34-0.86,0.51-1.3L217,262.99l-0.66-0.66c0.43-0.18,0.85-0.37,1.28-0.56v-26.64
		c0.43,0.17,0.86,0.34,1.3,0.51l18.84-18.84c0.18,0.42,0.37,0.85,0.56,1.28h26.64c-0.17,0.43-0.34,0.86-0.51,1.29l18.84,18.84
		c-0.42,0.19-0.85,0.38-1.28,0.56V265.42z M300.23,250.66c0-8.15-6.55-14.77-14.67-14.87c5.66-5.82,5.61-15.14-0.15-20.9
		c-5.76-5.76-15.07-5.81-20.89-0.15c-0.11-8.12-6.73-14.66-14.87-14.66c-8.15,0-14.77,6.54-14.88,14.66
		c-5.82-5.66-15.13-5.61-20.89,0.15c-5.76,5.76-5.81,15.08-0.15,20.9c-8.11,0.11-14.67,6.72-14.67,14.87
		c0,8.15,6.56,14.76,14.67,14.87c-5.66,5.82-5.61,15.13,0.15,20.9c5.76,5.76,15.07,5.81,20.89,0.15
		c0.11,8.12,6.73,14.66,14.88,14.66c8.14,0,14.76-6.54,14.87-14.66c5.82,5.66,15.13,5.61,20.89-0.15c5.76-5.77,5.81-15.08,0.15-20.9
		C293.68,265.43,300.23,258.81,300.23,250.66z M282.01,265.42c-0.43-0.17-0.86-0.34-1.29-0.51l-16.9,16.89l-1.72,1.72l-0.23,0.23
		c-0.18-0.43-0.37-0.85-0.55-1.28h-26.65c0.17-0.43,0.34-0.86,0.51-1.3L217,262.99l-0.66-0.66c0.43-0.18,0.85-0.37,1.28-0.56v-26.64
		c0.43,0.17,0.86,0.34,1.3,0.51l18.84-18.84c0.18,0.42,0.37,0.85,0.56,1.28h26.64c-0.17,0.43-0.34,0.86-0.51,1.29l18.84,18.84
		c-0.42,0.19-0.85,0.38-1.28,0.56V265.42z"/>
	<g>
		<path class="st1" d="M264.53,250.66c0,8.22-6.67,14.88-14.88,14.88c-8.22,0-14.89-6.66-14.89-14.88c0-8.22,6.67-14.88,14.89-14.88
			C257.86,235.78,264.53,242.44,264.53,250.66z"/>
		<path class="st1" d="M264.53,214.96c0,1.07-0.11,2.11-0.33,3.12c-0.62,2.93-2.11,5.54-4.18,7.55c-2.67,2.61-6.33,4.21-10.37,4.21
			c-4.04,0-7.7-1.6-10.38-4.21c-1.81-1.76-3.17-3.96-3.9-6.44c-0.4-1.34-0.61-2.76-0.61-4.23c0-0.07,0-0.15,0.01-0.22
			c0.11-8.12,6.73-14.66,14.88-14.66c8.14,0,14.76,6.54,14.87,14.66C264.53,214.81,264.53,214.89,264.53,214.96z"/>
		<path class="st1" d="M239.27,225.63c-0.04,3.73-1.5,7.46-4.35,10.31c-2.84,2.84-6.56,4.3-10.3,4.35c-2.4,0.04-4.81-0.5-7-1.63
			c-1.35-0.68-2.61-1.59-3.74-2.72c-0.05-0.05-0.1-0.1-0.15-0.15c-5.66-5.82-5.61-15.14,0.15-20.9c5.76-5.76,15.07-5.81,20.89-0.15
			c0.05,0.05,0.1,0.1,0.15,0.15c0.82,0.82,1.52,1.71,2.1,2.65C238.57,220,239.32,222.82,239.27,225.63z"/>
		<path class="st1" d="M228.83,250.66c0,4.04-1.61,7.7-4.21,10.37c-1.63,1.67-3.63,2.95-5.87,3.71c-1.51,0.52-3.13,0.8-4.81,0.8
			c-0.07,0-0.14,0-0.21-0.01c-8.11-0.11-14.67-6.72-14.67-14.87c0-8.15,6.56-14.76,14.67-14.87c0.07-0.01,0.14-0.01,0.21-0.01
			c1.27,0,2.5,0.16,3.68,0.46c2.7,0.68,5.11,2.11,7,4.05C227.22,242.96,228.83,246.62,228.83,250.66z"/>
		<path class="st1" d="M239.27,275.69c0.04,2.32-0.47,4.65-1.52,6.78c-0.7,1.43-1.64,2.77-2.83,3.96l-0.15,0.15
			c-5.82,5.66-15.13,5.61-20.89-0.15c-5.76-5.77-5.81-15.08-0.15-20.9c0.05-0.05,0.1-0.1,0.15-0.15c0.95-0.95,2-1.75,3.12-2.39
			c2.35-1.35,4.99-2,7.62-1.96c3.74,0.05,7.46,1.51,10.3,4.35C237.77,268.23,239.23,271.95,239.27,275.69z"/>
		<path class="st1" d="M264.53,286.36c0,0.07,0,0.15-0.01,0.22c-0.11,8.12-6.73,14.66-14.87,14.66c-8.15,0-14.77-6.54-14.88-14.66
			c-0.01-0.07-0.01-0.15-0.01-0.22c0-1.35,0.18-2.65,0.52-3.89c0.7-2.61,2.1-4.94,3.99-6.78c2.68-2.61,6.34-4.21,10.38-4.21
			c4.04,0,7.7,1.6,10.37,4.21c1.73,1.68,3.05,3.77,3.8,6.11C264.28,283.24,264.53,284.77,264.53,286.36z"/>
		<path class="st1" d="M285.41,286.43c-5.76,5.76-15.07,5.81-20.89,0.15c-0.05-0.05-0.1-0.1-0.15-0.15
			c-0.89-0.89-1.65-1.87-2.27-2.91c-1.43-2.41-2.12-5.12-2.08-7.83c0.04-3.74,1.49-7.46,4.35-10.31c2.86-2.85,6.57-4.31,10.31-4.35
			c2.52-0.04,5.05,0.56,7.33,1.81c1.22,0.66,2.37,1.51,3.4,2.54c0.05,0.05,0.1,0.1,0.15,0.15
			C291.22,271.35,291.17,280.66,285.41,286.43z"/>
		<path class="st1" d="M300.23,250.66c0,8.15-6.55,14.77-14.67,14.87c-0.07,0.01-0.14,0.01-0.21,0.01c-1.15,0-2.27-0.13-3.34-0.38
			c-2.84-0.65-5.37-2.11-7.33-4.13c-2.6-2.67-4.21-6.33-4.21-10.37c0-4.04,1.61-7.7,4.21-10.37c1.82-1.88,4.13-3.27,6.72-3.97
			c1.26-0.36,2.58-0.54,3.95-0.54c0.07,0,0.14,0,0.21,0.01C293.68,235.89,300.23,242.51,300.23,250.66z"/>
		<path class="st1" d="M285.56,235.79c-0.05,0.05-0.1,0.1-0.15,0.15c-0.75,0.75-1.57,1.41-2.43,1.96c-2.51,1.64-5.41,2.44-8.3,2.39
			c-3.74-0.04-7.45-1.5-10.31-4.35c-2.86-2.85-4.31-6.58-4.35-10.31c-0.04-2.61,0.6-5.22,1.92-7.55c0.64-1.14,1.46-2.22,2.43-3.19
			c0.05-0.05,0.1-0.1,0.15-0.15c5.82-5.66,15.13-5.61,20.89,0.15C291.17,220.65,291.22,229.97,285.56,235.79z"/>
	</g>
</g>
</svg>
