<?xml version="1.0" encoding="utf-8"?>
<!-- Generator: Adobe Illustrator 24.0.3, SVG Export Plug-In . SVG Version: 6.00 Build 0)  -->
<svg version="1.1" id="Water_x5F_Coin" xmlns="http://www.w3.org/2000/svg" xmlns:xlink="http://www.w3.org/1999/xlink" x="0px"
	 y="0px" viewBox="0 0 500 500" style="enable-background:new 0 0 500 500;" xml:space="preserve">
<style type="text/css">
	.st0{fill:#28A6D8;}
	.st1{fill:#020049;}
	.st2{fill:#F6F5F0;}
	.st3{fill:#174E98;}
	.st4{fill:#1DB7E4;}
</style>
<g>
	<circle class="st0" cx="250" cy="250" r="238.56"/>
	<circle class="st1" cx="250" cy="250" r="220.08"/>
	<g>
		<path class="st2" d="M447.12,250.01c0,50.96-19.33,97.41-51.07,132.39c-36.07,39.75-88.14,64.71-146.04,64.71
			c-108.88,0-197.13-88.25-197.13-197.11c0-108.88,88.25-197.13,197.13-197.13c54.25,0,103.37,21.91,139.01,57.39
			C424.91,145.96,447.12,195.38,447.12,250.01z"/>
		<path class="st3" d="M447.12,250.01c0,1.37-0.02,2.73-0.06,4.1c-0.26,13.16-1.79,26.01-4.53,38.42
			c-0.92,4.21-1.99,8.35-3.16,12.45c-4.4,15.18-10.59,29.6-18.3,43.03c-2.33,4.1-4.83,8.09-7.45,11.98h-0.02
			c-5.3,7.9-11.17,15.38-17.53,22.4c-25.2,16.57-55.38,26.21-87.78,26.21c-31.8,0-61.44-9.27-86.37-25.29
			c-4.12-2.65-8.14-5.49-12-8.5c-18.47-14.42-33.7-32.8-44.42-53.86c-3.29-6.49-6.15-13.24-8.54-20.2
			c-5.55-16.02-8.61-33.21-8.71-51.11c-0.02-0.36-0.02-0.75-0.02-1.13c0-4.1,0.15-8.16,0.47-12.17
			c6.19-82.74,75.31-147.92,159.6-147.92c29.45,0,57.05,7.94,80.75,21.85c33.51,33.34,55.1,78.66,57.79,129
			C447.01,242.83,447.12,246.4,447.12,250.01z"/>
		<g>
			<path class="st4" d="M447.12,250.01c0,1.37-0.02,2.73-0.06,4.1c-10.27-6.24-24.52-12.37-38.08-9.78
				c-9.59,1.84-18.13,6.24-27.17,10.89c-6.54,3.35-13.28,6.83-20.65,9.42c-18.82,6.56-37.08,5.04-54.31-4.55
				c-1.92-1.07-3.82-2.18-5.72-3.29c-10.59-6.13-20.61-11.9-32.23-11.28c-11.55,0.62-22.06,6.19-33.21,12.09
				c-12.52,6.64-25.39,13.46-40.41,13.46c-3.35,0-6.79-0.32-10.34-1.07c-10-2.09-17.19-7.43-24.16-12.6
				c-2.07-1.54-4.21-3.12-6.36-4.57c-1.92-1.3-4.02-2.37-6.19-3.18c-0.02-0.36-0.02-0.75-0.02-1.13c0-4.1,0.15-8.16,0.47-12.17
				c4.59,1.24,8.97,3.2,12.9,5.85c2.41,1.62,4.66,3.29,6.83,4.91c6.39,4.74,11.92,8.82,19.16,10.34
				c15.1,3.18,28.23-3.78,42.12-11.15c11.87-6.3,24.16-12.79,38.53-13.56c15.42-0.81,27.57,6.19,39.32,12.99
				c1.84,1.07,3.69,2.14,5.55,3.18c14.1,7.84,28.43,9.03,43.85,3.63c6.54-2.29,12.6-5.4,19.01-8.71
				c9.44-4.87,19.22-9.89,30.63-12.09c14.37-2.73,28.6,1.58,40.26,7.54C447.01,242.83,447.12,246.4,447.12,250.01z"/>
		</g>
		<g>
			<path class="st4" d="M442.53,292.53c-0.92,4.21-1.99,8.35-3.16,12.45c-7.54-2.5-15.18-4.19-22.81-4.49
				c-12.69-0.56-23.83,5.96-35.67,12.79c-3.76,2.2-7.67,4.44-11.62,6.45c-19.93,10.14-41.26,9.65-65.25-1.52
				c-3.93-1.82-7.88-4.29-11.68-6.68c-6.45-4.06-13.11-8.24-19.11-8.86c-12.56-1.28-24.03,5.47-36.2,12.64
				c-12.43,7.33-25.24,14.89-40.6,14.89c-0.75,0-1.49-0.02-2.26-0.06c-10.55-0.51-20.03-4.42-28.68-9.18
				c-3.29-6.49-6.15-13.24-8.54-20.2c0.96,0.6,1.9,1.2,2.86,1.79c11.04,6.98,22.45,14.2,34.98,14.8
				c12.56,0.6,23.81-6.04,35.75-13.07c13.39-7.9,27.27-16.08,44-14.35c8.99,0.92,17.3,6.15,24.65,10.76
				c3.63,2.29,7.05,4.44,10.25,5.92c20.46,9.53,37.63,10.08,54.03,1.73c3.63-1.86,7.22-3.93,11.02-6.13
				c12.88-7.45,26.21-15.12,42.59-14.52C425.72,288.05,434.22,289.84,442.53,292.53z"/>
		</g>
		<g>
			<path class="st4" d="M421.06,348.02c-2.33,4.1-4.83,8.09-7.45,11.98h-0.02c-1.58-0.09-3.12-0.04-4.63,0.09
				c-8.07,0.7-16.25,5.72-24.16,10.57c-3.93,2.41-8.01,4.89-12.11,6.9c-15.29,7.48-31.27,9.67-47.52,6.54
				c-9.63-1.86-18.28-6.04-26.68-10.1c-11.11-5.36-21.59-10.44-33.13-9.5c-9.61,0.77-18.6,3.27-25.29,7.05
				c-2.84,1.58-5.66,3.55-8.63,5.62c-2.97,2.05-6.13,4.25-9.55,6.17c-4.12-2.65-8.14-5.49-12-8.5c4.31-1.43,8.78-4.4,14.25-8.2
				c3.08-2.16,6.28-4.38,9.63-6.26c8.27-4.66,19.14-7.73,30.56-8.65c14.99-1.2,27.57,4.87,39.72,10.74
				c8.01,3.87,15.55,7.5,23.54,9.06c13.46,2.61,26.72,0.77,39.45-5.45c3.57-1.75,7.2-3.97,11.04-6.34
				c9.18-5.62,18.67-11.43,29.75-12.41C412.37,346.91,416.81,347.23,421.06,348.02z"/>
		</g>
	</g>
</g>
</svg>
