<?xml version="1.0" encoding="utf-8"?>
<!-- Generator: Adobe Illustrator 24.0.3, SVG Export Plug-In . SVG Version: 6.00 Build 0)  -->
<svg version="1.1" id="Water" xmlns="http://www.w3.org/2000/svg" xmlns:xlink="http://www.w3.org/1999/xlink" x="0px" y="0px"
	 viewBox="0 0 500 500" style="enable-background:new 0 0 500 500;" xml:space="preserve">
<style type="text/css">
	.st0{fill:#FFFFFF;}
</style>
<path class="st0" d="M485.1,189.2c-0.1-0.5-0.2-1-0.4-1.5C457.1,83.9,362.3,7.2,250,7.2C116.1,7.2,7.2,116.1,7.2,250
	c0,21.9,2.9,43,8.4,63.2c0.1,0.5,0.2,0.9,0.4,1.4c28.4,102.6,122.5,178.2,234,178.2c133.9,0,242.8-108.9,242.8-242.8
	C492.8,229,490.1,208.6,485.1,189.2z M45.1,331.4c22.1,8.5,48.6,15.2,77.6,15.2c13.3,0,27.1-1.4,41.1-4.7
	c55.7-13,94.8-49.4,132.6-84.6c10.4-9.6,21-19.6,31.9-28.9c21.1-18.1,61.9-37.2,136.6-27c2.7,11.9,4.4,24.3,5.1,36.9
	c-60.4-12.9-117,22.7-154.5,55.6c-2.6,2.3-5.3,4.7-8,7c-42.7,37.7-86.8,76.6-143,83.4c-33,4-67.4-0.1-97.5-11.3
	C58.4,360,51,346.1,45.1,331.4z M458.4,178.1c-46.3-4.9-103.8-1.5-144.5,33.3c-11.2,9.6-22.1,19.7-32.6,29.5
	c-37.3,34.7-72.6,67.6-122.5,79.2c-47.8,11.2-92.4-2.5-122.7-17c-4.2-17-6.5-34.9-6.5-53.2c0-28.8,5.6-56.3,15.7-81.6
	c2.4-1.7,4.9-3.4,7.4-5c5.3-3.3,10.9-6.2,16.5-8.9c5.7-2.6,11.6-4.8,17.5-6.6c6-1.8,12-3.1,18.2-4.1c6.1-0.8,12.3-1.2,18.4-1
	l4.6,0.3c1.5,0.1,2.9,0.3,4.4,0.5c2.9,0.5,5.8,1.1,8.6,2c11.2,3.5,21,10.5,28.6,19.8c2.8,3.4,5.2,6.9,7.4,10.8
	c3.9,6.7,6.8,14,8.9,21.5c1.3,4.6,2.3,9.3,3,14.1c0.2,1.3,0.4,2.7,0.5,4c0.6,5.9,0.4,11.8-0.7,17.6c-2,11.7-7.1,23-14.4,32.5
	c-7.3,9.5-16.8,17.2-27.6,21.6c-10.7,4.5-22.6,5.4-33.7,2.2c-2.8-0.8-5.5-1.8-8.2-3c-1.3-0.5-2.6-1.3-3.9-2l-1.9-1l-1.7-1.2
	c-4.6-3.1-8.6-7.2-11.6-12c-3.1-4.8-5.3-10.2-6.8-15.9c-1.4-5.7-1.9-11.6-1.5-17.4c0.7-11.6,5.6-23,14.4-29.4
	c4.4-3.2,9.7-5,15.3-5.6c2.8-0.3,5.7-0.2,8.7,0.1c2.9,0.2,5.6,0.8,8.3,1.7c5.4,1.9,10.3,5.1,14.4,9.1c4.1,4.1,7.1,9.2,8.8,14.6
	c1.7,5.5,1.9,11.5,0.2,16.8c-1.7,5.3-5,10.2-9.8,12.4c-4.7,2.3-10.7,1.9-15.7-0.9c-5.1-2.7-9-7.5-11.1-13c-0.5-1.3-2-2.1-3.4-1.7
	c-1.5,0.4-2.3,2-1.9,3.5l0,0c2,6.9,6.4,13.4,12.8,17.4c3.2,2,6.9,3.4,10.8,3.9c1.9,0.2,4,0.3,6,0c2-0.2,4-0.8,5.9-1.5
	c1.9-0.8,3.7-1.8,5.3-3c1.6-1.2,3.1-2.6,4.4-4.1c0.7-0.7,1.2-1.5,1.9-2.3c0.5-0.8,1.1-1.6,1.6-2.5c1-1.6,1.8-3.4,2.5-5.3
	c2.7-7.4,2.7-15.4,0.9-22.8c-1.9-7.4-5.6-14.3-10.7-19.9s-11.4-10.2-18.6-13.1c-3.6-1.4-7.4-2.5-11.2-2.9c-3.7-0.5-7.5-0.7-11.3-0.4
	c-7.7,0.5-15.7,2.9-22.4,7.5c-6.7,4.6-12,10.9-15.4,17.9c-3.5,6.9-5.5,14.4-6.2,21.9c-0.7,7.5-0.3,15,1.3,22.4
	c1.6,7.4,4.5,14.5,8.6,21c4.1,6.5,9.6,12.3,16.1,16.8l2.5,1.6l2.4,1.4c1.6,0.9,3.2,1.8,5,2.6c3.4,1.6,6.9,2.9,10.6,4
	c7.3,2,15,2.8,22.6,2.2c7.6-0.6,15-2.5,21.8-5.4c13.7-5.9,25.1-15.7,33.6-27.3c8.5-11.6,14.4-25,16.7-39.3c0.4-2.4,0.7-4.8,0.8-7.3
	c2.7,2.2,5.5,4.2,8.6,5.9c14.2,8.1,31.2,10.3,47.1,6.9c1-0.2,2-0.4,3-0.7c1-0.3,2-0.5,2.9-0.9l2.9-1l2.8-1.1
	c0.9-0.4,1.9-0.8,2.8-1.2l2.7-1.4c0.9-0.5,1.8-0.9,2.7-1.4l2.6-1.6c6.8-4.2,12.9-9.6,18-15.7c10.3-12.2,16.2-27.4,18.6-42.7
	c0-0.1,0-0.2,0-0.3c1.1,0.6,2.1,1.2,3.3,1.7c1.1,0.5,2.2,1.1,3.4,1.5l3.5,1.3c1.1,0.5,2.3,0.7,3.5,1.1c1.2,0.3,2.4,0.7,3.5,0.9
	c2.4,0.4,4.8,0.9,7.2,1.1c4.8,0.6,9.7,0.3,14.5-0.2l3.6-0.6c0.6-0.1,1.2-0.2,1.8-0.3l1.8-0.4l3.5-0.9l3.4-1.2l1.7-0.6l1.7-0.7
	l3.3-1.5c1.1-0.6,2.1-1.2,3.2-1.7c1.1-0.6,2.1-1.2,3.1-1.9c8.1-5.3,15.1-12.5,19.7-21c4.7-8.5,7-18.1,7.6-27.5
	c0.5-8.6-0.5-17-2.4-25.1C430.8,120.2,447.9,147.7,458.4,178.1z M389.4,79.3c2.8,6,5.1,12.3,6.6,18.7c1.8,7.8,2.8,15.8,2.1,23.5
	c-0.6,7.8-2.8,15.1-6.4,21.6c-3.5,6.6-9,12-15.2,16.1c-0.8,0.6-1.6,1-2.4,1.4l-2.5,1.4l-2.6,1.1l-1.3,0.6l-1.3,0.5l-2.7,0.9
	l-2.8,0.7l-1.4,0.4c-0.5,0.1-0.9,0.1-1.4,0.2l-2.8,0.5c-3.8,0.4-7.6,0.6-11.3,0.1c-1.9-0.1-3.7-0.5-5.6-0.8
	c-0.9-0.2-1.8-0.5-2.7-0.7c-0.9-0.3-1.8-0.4-2.7-0.8l-2.6-1c-0.9-0.3-1.7-0.8-2.5-1.2c-1.7-0.7-3.3-1.7-4.9-2.7
	c-1.3-0.8-2.5-1.7-3.7-2.6v0c0-0.2,0-0.3,0-0.5l-0.1-5.8c-0.7-7.6-1.7-15.3-4-22.7c-1.7-6.4-4.3-12.6-7.2-18.5
	c0.3-0.5,0.6-1.1,1-1.6c1.1-1.5,2.1-3,3.5-4.3c1.2-1.4,2.6-2.6,4-3.8c1.5-1.1,2.9-2.3,4.6-3.2c1.5-1.1,3.3-1.7,4.9-2.6l2.6-0.9
	c0.9-0.3,1.8-0.6,2.6-0.8c0.9-0.2,1.8-0.5,2.7-0.6l2.7-0.4c0.9-0.2,1.8-0.1,2.8-0.1c0.9,0,1.8-0.1,2.8,0c7.4,0.2,14.8,2.8,20.6,7.2
	c2.9,2.2,5.4,4.9,7.1,8c1.8,3.1,2.8,6.5,3.1,10.1c0.2,1.8,0.1,3.6,0.1,5.4c-0.1,1.7-0.5,3.5-1.1,5.2c-1.1,3.4-2.9,6.7-5.3,9.2
	c-2.4,2.5-5.3,3.9-8.7,4.2c-3.4,0.3-7-0.6-9.9-2.4c-1.5-0.9-2.7-2.1-3.7-3.5c-1-1.4-1.6-3-1.8-4.6c-0.5-3.3,0.8-6.7,3.7-8.9l0,0
	c0.9-0.7,1.2-2,0.6-3.1c-0.7-1.1-2.1-1.5-3.3-0.9c-2.2,1.3-4.2,3.2-5.5,5.5c-1.4,2.4-2,5.1-1.9,7.8c0.1,2.7,0.9,5.4,2.1,7.8
	c1.3,2.4,3.1,4.4,5.2,6.1c4.2,3.3,9.4,5.1,14.8,5c2.7,0,5.4-0.5,8-1.6c2.6-1.1,4.9-2.6,6.9-4.3c4-3.5,6.8-7.9,8.7-12.7
	c0.9-2.4,1.6-4.9,2-7.5c0.3-2.5,0.6-5.1,0.3-7.6c-0.3-5.1-1.6-10.3-4-14.9s-5.8-8.7-9.7-11.9c-3.9-3.2-8.4-5.8-13-7.6
	c-4.7-1.8-9.6-2.9-14.6-3.2c-1.2-0.1-2.5-0.1-3.8-0.1c-1.3,0.1-2.5,0-3.8,0.2l-3.7,0.5c-1.2,0.2-2.4,0.5-3.7,0.8
	c-1.2,0.3-2.4,0.6-3.6,1c-1.2,0.4-2.4,0.8-3.5,1.3c-2.3,1.1-4.6,2-6.7,3.4c-2.2,1.2-4.2,2.7-6.2,4.2c-1.9,1.7-3.8,3.2-5.5,5.1
	c-0.7,0.7-1.4,1.5-2.1,2.3l-3.1-4.4c-1.2-1.5-2.4-2.9-3.7-4.4c-9.9-11.6-22.1-21-35.5-27.8c-13.4-6.9-27.6-11.2-42-13.8
	c-14.9-2.7-29.9-3.5-44.8-2.5c24.4-9.4,51-14.5,78.7-14.5C302.8,29.5,351.3,48.2,389.4,79.3z M135.6,61.6c5.6-1.1,11.2-2,16.8-2.8
	c6.7-0.8,13.5-1.3,20.2-1.5c13.5-0.2,27.1,0.9,40.3,3.5c13.2,2.7,26.2,6.9,37.8,13c11.6,6.2,22.3,14.3,30.8,24.3l3.1,3.8l2.9,4
	l1.4,2l1.2,2.1l1.4,2.4l1,1.8c2.9,5.8,5.7,11.8,7.3,18.1c1.9,6.2,2.8,12.8,3.4,19.3l0.1,4.9c0,1.6,0.1,3.3-0.1,4.9
	c0,0.1,0,0.2,0,0.3c-0.2,3.2-0.4,6.4-0.9,9.5c-1.9,12.8-6.9,25.2-15.1,35c-4,4.9-8.8,9.1-14.1,12.4l-2,1.2c-0.7,0.4-1.4,0.7-2.1,1.1
	l-2.1,1.1l-2.2,0.9c-2.9,1.3-5.8,2.1-8.9,2.9c-12.1,2.6-25.3,0.9-36.1-5c-7.1-4-13.2-9.8-18-16.7c-0.7-3.5-1.5-6.9-2.5-10.4
	c-2-7-4.6-13.8-8-20.4c-0.1-5.7,0.8-11.2,2.9-16.2c2.2-5.4,6-10.1,10.8-13.8c2.4-1.9,5-3.5,7.8-4.8c1.4-0.6,2.8-1.3,4.2-1.7
	c1.5-0.4,2.9-0.9,4.4-1.2c5.9-1.3,12.2-1.2,18.1,0.4c5.9,1.5,11.5,4.4,16.2,8.4c4.7,3.9,8.5,8.9,10.9,14.6c0.3,0.7,0.6,1.4,0.9,2.1
	l0.7,2.2c0.2,0.7,0.5,1.5,0.6,2.2l0.4,2.3l0.4,2.3c0.1,0.8,0.2,1.6,0.2,2.3c0.1,1.5,0.1,3.1-0.1,4.6c-0.2,3-1,5.9-2.2,8.4
	c-1.2,2.5-3,4.8-5.3,6.6c-2.2,1.9-4.9,3.3-7.8,4.1c-1.4,0.4-2.9,0.6-4.4,0.8c-1.5,0-3,0-4.4-0.3c-2.9-0.5-5.7-1.8-8.1-3.8
	c-2.4-1.9-4.5-4.4-5.8-7.2c-1.3-2.8-1.4-5.8,0.3-8.4c1.7-2.5,4.7-4.5,7.9-5.5c0.3-0.1,0.5-0.4,0.5-0.8c0-0.4-0.4-0.7-0.8-0.6
	c-1.8,0.2-3.6,0.7-5.4,1.5c-1.7,0.8-3.4,1.9-4.8,3.4c-1.4,1.5-2.3,3.5-2.7,5.6c-0.4,2.1-0.1,4.3,0.5,6.2c1.1,3.8,3.2,7.3,6,10.2
	c2.9,2.8,6.4,5.1,10.4,6.2c2,0.6,4.1,0.9,6.1,1.1c2.1,0,4.2-0.1,6.2-0.5c4.1-0.8,8-2.4,11.4-4.8c3.4-2.4,6.5-5.4,8.6-9.3
	c2.1-3.8,3.3-7.8,4-11.8c0.3-2,0.5-4.1,0.5-6.1c0-1,0-2-0.1-3l-0.3-3l-0.4-3c-0.2-1-0.5-1.9-0.7-2.9l-0.8-2.9c-0.3-1-0.7-1.9-1-2.8
	c-2.8-7.5-7.5-14.4-13.5-19.7c-6-5.4-13.3-9.3-21.1-11.5c-7.8-2.2-16.1-2.5-24.1-1c-2,0.4-3.9,1-5.9,1.5c-2,0.6-3.9,1.3-5.7,2.2
	c-3.7,1.7-7.2,3.7-10.5,6.1c-6.5,4.8-12.2,11.4-15.6,19.1c-0.6,1.4-1.2,2.8-1.7,4.1c-2.1-2.4-4.3-4.8-6.6-7
	c-2.6-2.5-5.4-4.7-8.4-6.8c-5.9-4.2-12.6-7.4-19.5-9.5c-3.5-1.1-7-1.9-10.6-2.4c-1.8-0.2-3.6-0.5-5.4-0.6l-5.3-0.3
	c-7-0.2-14,0.2-20.9,1.2c-6.8,1.1-13.6,2.6-20.2,4.6c-6.6,2.1-13,4.4-19.3,7.3c-2.6,1.2-5.1,2.4-7.6,3.8
	C74.5,111.1,102.1,82,135.6,61.6z M89.9,401.4c16.2,3.5,32.9,5.3,49.7,5.3c9.2,0,18.4-0.5,27.4-1.6c62.7-7.5,111.4-50.5,154.4-88.5
	c2.6-2.3,5.3-4.7,7.9-7c34.8-30.5,87.3-63.8,140.8-49.8c-0.8,18-3.8,35.5-8.7,52.2c-35.2,0.9-66.1,7.8-92.1,20.7
	c-23.5,11.6-40.2,30.5-56.2,48.7c-13.1,14.8-25.4,28.8-41,38.9c-29.7,19.3-68.8,28.4-119.1,27.6C129.3,436.3,108,420.5,89.9,401.4z
	 M250,470.5c-16.8,0-33.2-1.9-49-5.5c32.2-4.2,59.2-13.5,81.8-28.2c17.9-11.6,31.7-27.2,45-42.4c15.5-17.6,30.2-34.2,50.2-44.1
	c21.6-10.7,47.4-16.9,76.6-18.4C422.1,413,342.6,470.5,250,470.5z"/>
</svg>
