<?xml version="1.0" encoding="utf-8"?>
<!-- Generator: Adobe Illustrator 24.0.3, SVG Export Plug-In . SVG Version: 6.00 Build 0)  -->
<svg version="1.1" id="White_Lotus" xmlns="http://www.w3.org/2000/svg" xmlns:xlink="http://www.w3.org/1999/xlink" x="0px"
	 y="0px" viewBox="0 0 500 500" style="enable-background:new 0 0 500 500;" xml:space="preserve">
<style type="text/css">
	.st0{fill:#FFFFFC;}
	.st1{fill:#193B5E;}
	.st2{fill:#FFFFFE;}
</style>
<g>
	<circle class="st0" cx="250" cy="250" r="245.44"/>
	<circle class="st1" cx="250" cy="250" r="230.08"/>
	<circle class="st0" cx="250" cy="250" r="222.08"/>
	<circle class="st1" cx="250" cy="250" r="206.08"/>
	<path class="st0" d="M436.21,290.31c-2.86-15-7.12-28.32-6.56-43.56c0.61-16.08,15.63-51.32,1.35-64.45c-2.5-2.3-5.5-3.3-8.79-3.43
		c0.01-0.02,0.03-0.03,0.05-0.05c1.09-1.17,1.98-2.51,2.58-4.03c4.62-11.7-6.69-22.43-14.92-28.01
		c-12.63-8.58-25.06-14.99-35.44-26.16c-10.94-11.8-25.24-47.35-44.62-46.53c-3.39,0.14-6.23,1.55-8.64,3.79c0-0.02,0-0.04,0-0.06
		c-0.05-1.6-0.37-3.17-1.02-4.68c-5.01-11.53-20.6-11.13-30.35-9.25c-15,2.86-28.32,7.12-43.56,6.56
		c-16.08-0.61-51.32-15.63-64.45-1.35c-2.3,2.5-3.3,5.5-3.43,8.79c-0.02-0.01-0.03-0.03-0.05-0.05c-1.17-1.09-2.51-1.98-4.03-2.58
		c-11.7-4.62-22.43,6.69-28.01,14.92c-8.58,12.63-14.99,25.06-26.16,35.44c-11.8,10.94-47.35,25.24-46.53,44.62
		c0.14,3.39,1.55,6.23,3.79,8.64c-0.02,0-0.04,0-0.06,0c-1.6,0.05-3.17,0.37-4.68,1.02c-11.53,5.01-11.13,20.6-9.25,30.35
		c2.86,15,7.12,28.32,6.56,43.56c-0.61,16.08-15.63,51.32-1.35,64.45c2.5,2.3,5.5,3.3,8.79,3.43c-0.01,0.02-0.03,0.03-0.05,0.05
		c-1.09,1.17-1.98,2.51-2.58,4.03c-4.62,11.7,6.69,22.43,14.92,28.01c12.63,8.58,25.06,14.99,35.44,26.16
		c10.94,11.8,25.24,47.35,44.62,46.53c3.39-0.14,6.23-1.55,8.64-3.79c0,0.02,0,0.04,0,0.06c0.05,1.6,0.37,3.17,1.02,4.68
		c5.01,11.53,20.6,11.13,30.35,9.25c15-2.86,28.32-7.12,43.56-6.56c16.08,0.61,51.32,15.63,64.45,1.35c2.3-2.5,3.3-5.5,3.43-8.79
		c0.02,0.01,0.03,0.03,0.05,0.05c1.17,1.09,2.51,1.98,4.03,2.58c11.7,4.62,22.43-6.69,28.01-14.92
		c8.58-12.63,14.99-25.06,26.16-35.44c11.8-10.94,47.35-25.24,46.53-44.62c-0.14-3.39-1.55-6.23-3.79-8.64c0.02,0,0.04,0,0.06,0
		c1.6-0.05,3.17-0.37,4.68-1.02C438.49,315.66,438.08,300.07,436.21,290.31z M234.67,282.47c0.17-0.43,0.34-0.87,0.51-1.3
		l-18.84-18.84c0.43-0.19,0.85-0.37,1.28-0.56v-26.64c0.43,0.17,0.87,0.34,1.3,0.51l18.84-18.84c0.19,0.43,0.37,0.85,0.56,1.28
		h26.64c-0.17,0.43-0.34,0.87-0.51,1.3l18.84,18.84c-0.43,0.19-0.85,0.37-1.28,0.56v26.64c-0.43-0.17-0.87-0.34-1.3-0.51
		l-18.84,18.84c-0.19-0.43-0.37-0.85-0.56-1.28H234.67z"/>
	<g>
		<path class="st1" d="M294.23,93.15c-15.45-8.38-43.52,18.53-43.52,18.53c-6.82-6.46-13.4-11.37-21.93-15.44
			c-6.79-3.24-19.16-7.15-25.01-0.09c-3.28,3.95-3.04,10.42-2.62,15.24c1.53,17.44,8.57,35.26,15.69,51.12
			c3.34,7.43,6.81,15.27,12.98,20.82c2.55,2.3,6.23,2.91,9.48,1.96c3.27-0.95,6.09-3.31,8.06-6.04c0.31-0.43,3.39-4.61,3.38-4.63
			c2.35,4.75,7.87,10.88,13.4,11.71c5.82,0.87,9.71-6.03,12.26-10.21c2.93-4.8,5.03-10.04,7.07-15.26
			c4.07-10.45,8.07-20.81,10.95-31.67c2.01-7.59,3.78-15.48,3.93-23.37C298.42,101.79,298.35,95.38,294.23,93.15z"/>
		<path class="st1" d="M169.76,107.76c-16.85,5-17.67,43.88-17.67,43.88c-9.39,0.25-17.52,1.44-26.43,4.59
			c-7.09,2.51-18.61,8.49-17.75,17.62c0.48,5.11,5.22,9.51,8.92,12.62c13.41,11.26,30.99,18.87,47.24,25.05
			c7.61,2.9,15.61,5.98,23.9,5.54c3.43-0.18,6.46-2.35,8.09-5.32c1.64-2.99,1.97-6.64,1.43-9.97c-0.08-0.52-0.86-5.66-0.89-5.66
			c5.02,1.69,13.26,2.13,17.76-1.2c4.73-3.5,2.6-11.13,1.45-15.89c-1.32-5.47-3.54-10.66-5.8-15.79
			c-4.51-10.27-9.01-20.42-14.66-30.14c-3.95-6.79-8.27-13.62-13.74-19.31C178.83,110.91,174.25,106.43,169.76,107.76z"/>
		<path class="st1" d="M92.07,206.11c-8.38,15.45,18.53,43.52,18.53,43.52c-6.46,6.82-11.37,13.4-15.44,21.93
			c-3.24,6.79-7.15,19.16-0.09,25.01c3.95,3.28,10.42,3.04,15.24,2.62c17.44-1.53,35.26-8.57,51.12-15.69
			c7.43-3.34,15.27-6.81,20.82-12.98c2.3-2.55,2.91-6.23,1.96-9.48c-0.95-3.27-3.31-6.09-6.04-8.06c-0.43-0.31-4.61-3.39-4.63-3.38
			c4.75-2.35,10.88-7.87,11.71-13.4c0.87-5.82-6.03-9.71-10.21-12.26c-4.8-2.93-10.04-5.03-15.26-7.07
			c-10.45-4.07-20.81-8.07-31.67-10.95c-7.59-2.01-15.48-3.78-23.37-3.93C100.72,201.92,94.31,201.99,92.07,206.11z"/>
		<path class="st1" d="M106.69,330.59c5,16.85,43.88,17.67,43.88,17.67c0.25,9.39,1.44,17.52,4.59,26.43
			c2.51,7.09,8.49,18.61,17.62,17.75c5.11-0.48,9.51-5.22,12.62-8.92c11.26-13.41,18.87-30.99,25.05-47.24
			c2.9-7.61,5.98-15.61,5.54-23.9c-0.18-3.43-2.35-6.46-5.32-8.09c-2.99-1.64-6.64-1.97-9.97-1.43c-0.52,0.08-5.66,0.86-5.66,0.89
			c1.69-5.02,2.13-13.26-1.2-17.76c-3.5-4.73-11.13-2.6-15.89-1.45c-5.47,1.32-10.66,3.54-15.79,5.8
			c-10.27,4.51-20.42,9.01-30.14,14.66c-6.79,3.95-13.62,8.27-19.31,13.74C109.84,321.51,105.35,326.09,106.69,330.59z"/>
		<path class="st1" d="M205.04,408.27c15.45,8.38,43.52-18.53,43.52-18.53c6.82,6.46,13.4,11.37,21.93,15.44
			c6.79,3.24,19.16,7.15,25.01,0.09c3.28-3.95,3.04-10.42,2.62-15.24c-1.53-17.44-8.57-35.26-15.69-51.12
			c-3.34-7.43-6.81-15.27-12.98-20.82c-2.55-2.3-6.23-2.91-9.48-1.96c-3.27,0.95-6.09,3.31-8.06,6.04
			c-0.31,0.43-3.39,4.61-3.38,4.63c-2.35-4.75-7.87-10.88-13.4-11.71c-5.82-0.87-9.71,6.03-12.26,10.21
			c-2.93,4.8-5.03,10.04-7.07,15.26c-4.07,10.45-8.07,20.81-10.95,31.67c-2.01,7.59-3.78,15.48-3.93,23.37
			C200.85,399.62,200.91,406.03,205.04,408.27z"/>
		<path class="st1" d="M329.51,393.65c16.85-5,17.67-43.88,17.67-43.88c9.39-0.25,17.52-1.44,26.43-4.59
			c7.09-2.51,18.61-8.49,17.75-17.62c-0.48-5.11-5.22-9.51-8.92-12.62c-13.41-11.26-30.99-18.87-47.24-25.05
			c-7.61-2.9-15.61-5.98-23.9-5.54c-3.43,0.18-6.46,2.35-8.09,5.32c-1.64,2.99-1.97,6.64-1.43,9.97c0.08,0.52,0.86,5.66,0.89,5.66
			c-5.02-1.69-13.26-2.13-17.76,1.2c-4.73,3.5-2.6,11.13-1.45,15.89c1.32,5.47,3.54,10.66,5.8,15.79
			c4.51,10.27,9.01,20.42,14.66,30.14c3.95,6.79,8.27,13.62,13.74,19.31C320.43,390.5,325.01,394.99,329.51,393.65z"/>
		<path class="st1" d="M407.19,295.3c8.38-15.45-18.53-43.52-18.53-43.52c6.46-6.82,11.37-13.4,15.44-21.93
			c3.24-6.79,7.15-19.16,0.09-25.01c-3.95-3.28-10.42-3.04-15.24-2.62c-17.44,1.53-35.26,8.57-51.12,15.69
			c-7.43,3.34-15.27,6.81-20.82,12.98c-2.3,2.55-2.91,6.23-1.96,9.48c0.95,3.27,3.31,6.09,6.04,8.06c0.43,0.31,4.61,3.39,4.63,3.38
			c-4.75,2.35-10.88,7.87-11.71,13.4c-0.87,5.82,6.03,9.71,10.21,12.26c4.8,2.93,10.04,5.03,15.26,7.07
			c10.45,4.07,20.81,8.07,31.67,10.95c7.59,2.01,15.48,3.78,23.37,3.93C398.55,299.5,404.96,299.43,407.19,295.3z"/>
		<path class="st1" d="M392.58,170.83c-5-16.85-43.88-17.67-43.88-17.67c-0.25-9.39-1.44-17.52-4.59-26.43
			c-2.51-7.09-8.49-18.61-17.62-17.75c-5.11,0.48-9.51,5.22-12.62,8.92c-11.26,13.41-18.87,30.99-25.05,47.24
			c-2.9,7.61-5.98,15.61-5.54,23.9c0.18,3.43,2.35,6.46,5.32,8.09c2.99,1.64,6.64,1.97,9.97,1.43c0.52-0.08,5.66-0.86,5.66-0.89
			c-1.69,5.02-2.13,13.26,1.2,17.76c3.5,4.73,11.13,2.6,15.89,1.45c5.47-1.32,10.66-3.54,15.79-5.8
			c10.27-4.51,20.42-9.01,30.14-14.66c6.79-3.95,13.62-8.27,19.31-13.74C389.43,179.91,393.91,175.33,392.58,170.83z"/>
	</g>
	<circle class="st1" cx="250" cy="250" r="57.83"/>
	<g>
		<circle class="st2" cx="249.65" cy="250.66" r="14.88"/>
		<circle class="st2" cx="249.65" cy="214.96" r="14.88"/>
		<circle class="st2" cx="224.4" cy="225.41" r="14.88"/>
		<circle class="st2" cx="213.94" cy="250.66" r="14.88"/>
		<circle class="st2" cx="224.4" cy="275.9" r="14.88"/>
		<circle class="st2" cx="249.65" cy="286.36" r="14.88"/>
		<circle class="st2" cx="274.89" cy="275.9" r="14.88"/>
		<circle class="st2" cx="285.35" cy="250.66" r="14.88"/>
		<circle class="st2" cx="274.89" cy="225.41" r="14.88"/>
	</g>
</g>
</svg>
