<svg id="Layer_1" data-name="Layer 1" xmlns="http://www.w3.org/2000/svg" viewBox="0 0 114.51 114.51"><defs><style>.cls-1{fill:#2d2d2d;}</style></defs><title>ai</title><path class="cls-1" d="M106.68,124.4H8.42a8.14,8.14,0,0,1-8.13-8.13V18A8.14,8.14,0,0,1,8.42,9.89h98.26A8.14,8.14,0,0,1,114.81,18v98.25A8.14,8.14,0,0,1,106.68,124.4ZM8.42,14.13A3.89,3.89,0,0,0,4.54,18v98.25a3.89,3.89,0,0,0,3.88,3.89h98.26a3.9,3.9,0,0,0,3.89-3.89V18a3.89,3.89,0,0,0-3.89-3.89Z" transform="translate(-0.29 -9.89)"/><path class="cls-1" d="M43.59,78.47l-3.06,11h-10L43.59,46.59H56.31l13.3,42.88H59.17l-3.31-11Zm10.87-7.26-2.67-9.09c-.76-2.55-1.52-5.73-2.16-8.27H49.5c-.63,2.54-1.27,5.79-2,8.27L45,71.21Z" transform="translate(-0.29 -9.89)"/><path class="cls-1" d="M84.62,49.71a4.86,4.86,0,0,1-5.22,4.84,4.73,4.73,0,0,1-5-4.84c-.07-2.8,2-4.9,5.09-4.9A4.85,4.85,0,0,1,84.62,49.71Zm-10,39.76V58.37H84.3v31.1Z" transform="translate(-0.29 -9.89)"/></svg>