<svg id="Layer_1" data-name="Layer 1" xmlns="http://www.w3.org/2000/svg" viewBox="0 0 114.22 114.22"><defs><style>.cls-1{fill:#2d2d2d;}</style></defs><title>bootstrap</title><path class="cls-1" d="M75,80.93c0,10.81-10.12,10.56-11.19,10.56H43.14V70.66H63.77C74.62,70.66,75,78.8,75,80.93ZM62.18,62.28c.17,0,9.8.26,9.8-9.25,0-4-.9-9.15-9.8-9.15h-19v18.4ZM114.66,28.6v76.14a19.1,19.1,0,0,1-19,19H19.48a19.1,19.1,0,0,1-19-19V28.6a19.1,19.1,0,0,1,19-19H95.62A19.1,19.1,0,0,1,114.66,28.6Zm-28,53.84c0-5.5-1.7-14.86-12.51-17.17v-.19c5.84-2.49,9.52-7.2,9.52-14.18,0-1.79.51-16.52-19.78-16.52H31.48V101c32.69,0,35.66.43,41.71-1.46C76.81,98.43,86.63,95,86.63,82.44Z" transform="translate(-0.44 -9.56)"/></svg>