<svg id="Layer_1" data-name="Layer 1" xmlns="http://www.w3.org/2000/svg" viewBox="0 0 115.1 115.1"><defs><style>.cls-1{fill:#2d2d2d;}</style></defs><title>js</title><path class="cls-1" d="M0,9.59H115.1v115.1H0ZM62.69,99.26V62.52H51.9V99.26c0,2.57-.52,4.32-1.54,5.27a6,6,0,0,1-4.24,1.41,5.76,5.76,0,0,1-4.24-1.54,13.08,13.08,0,0,1-2.83-3.86l-8.73,5.14q4.62,10,16.18,10,7.45,0,11.82-4.11T62.69,99.26ZM88.12,115.7q8,0,13-4t5-11.18q0-6.42-3.6-10.27-3.33-3.34-10.79-6.68l-2.57-1a23,23,0,0,1-5.26-3.08,4.95,4.95,0,0,1,0-6.94,5.3,5.3,0,0,1,3.72-1.29,7.48,7.48,0,0,1,4,1,8.61,8.61,0,0,1,3,3.6l8.48-5.4a16.48,16.48,0,0,0-6.3-6.68,18.63,18.63,0,0,0-9.12-2q-7.19,0-11.56,4.11a13.53,13.53,0,0,0-4.37,10.28,15,15,0,0,0,3.6,10.27q3.07,3.34,9.5,5.91l2.57,1.29a32.05,32.05,0,0,1,5.91,3.08,4.87,4.87,0,0,1,0,8,8.75,8.75,0,0,1-5.39,1.55q-6.42,0-10.54-6.68l-8.73,5.13a21.43,21.43,0,0,0,7.19,8A23.6,23.6,0,0,0,88.12,115.7Z" transform="translate(0 -9.59)"/></svg>