<svg id="Layer_1" data-name="Layer 1" xmlns="http://www.w3.org/2000/svg" viewBox="0 0 114.51 114.51"><defs><style>.cls-1{fill:#2d2d2d;}</style></defs><title>ps</title><path class="cls-1" d="M106.68,124.4H8.42a8.14,8.14,0,0,1-8.13-8.13V18A8.14,8.14,0,0,1,8.42,9.89h98.26A8.14,8.14,0,0,1,114.81,18v98.25A8.14,8.14,0,0,1,106.68,124.4ZM8.42,14.13A3.89,3.89,0,0,0,4.54,18v98.25a3.89,3.89,0,0,0,3.88,3.89h98.26a3.9,3.9,0,0,0,3.89-3.89V18a3.89,3.89,0,0,0-3.89-3.89Z" transform="translate(-0.29 -9.89)"/><path class="cls-1" d="M30.13,46.12a79.3,79.3,0,0,1,13.11-.89c6,0,10.24,1.14,13.1,3.43a12.53,12.53,0,0,1,4.58,9.93A13.72,13.72,0,0,1,57,68.77c-3.31,3.11-8.21,4.51-13.93,4.51a23.93,23.93,0,0,1-3.31-.19V88.42H30.13Zm9.61,19.46a14.79,14.79,0,0,0,3.24.26c5.16,0,8.34-2.61,8.34-7,0-3.94-2.74-6.3-7.57-6.3a15.91,15.91,0,0,0-4,.39Z" transform="translate(-0.29 -9.89)"/><path class="cls-1" d="M65.38,80a18.91,18.91,0,0,0,8.33,2.36c2.93,0,4.14-1,4.14-2.61s-1-2.36-4.58-3.57c-6.43-2.16-8.91-5.66-8.85-9.35,0-5.79,5-10.17,12.66-10.17a20.78,20.78,0,0,1,8.78,1.78l-1.72,6.68a15.17,15.17,0,0,0-6.74-1.79c-2.35,0-3.69,1-3.69,2.55s1.21,2.23,5,3.56c5.91,2,8.39,5,8.46,9.61,0,5.79-4.58,10-13.49,10a22,22,0,0,1-10-2.16Z" transform="translate(-0.29 -9.89)"/></svg>