<svg id="Layer_1" data-name="Layer 1" xmlns="http://www.w3.org/2000/svg" viewBox="0 0 115.1 100.72"><defs><style>.cls-1{fill:#2d2d2d;}</style></defs><title>react</title><path class="cls-1" d="M94,50.3c-1.21-.41-2.42-.79-3.64-1.15.21-.83.39-1.66.57-2.5,2.76-13.39.94-24.16-5.2-27.71-5.91-3.4-15.55.13-25.31,8.63-1,.83-1.91,1.71-2.81,2.58-.61-.58-1.24-1.17-1.87-1.73-10.23-9.08-20.48-12.9-26.61-9.33C23.25,22.51,21.49,32.65,24,45.33c.25,1.26.52,2.49.84,3.75-1.44.41-2.86.86-4.19,1.33C8.61,54.57,0,61.13,0,67.92c0,7,9.17,14,21.65,18.32,1,.34,2,.68,3.06,1-.34,1.35-.63,2.68-.9,4.05-2.36,12.47-.52,22.37,5.37,25.76,6.07,3.51,16.28-.09,26.21-8.79.79-.7,1.58-1.42,2.36-2.18,1,1,2,1.89,3.06,2.79,9.62,8.27,19.13,11.62,25,8.22,6.07-3.5,8-14.14,5.48-27.08-.2-1-.42-2-.67-3,.72-.2,1.42-.43,2.11-.65,13-4.3,22.37-11.24,22.37-18.37,0-6.81-8.86-13.42-21.09-17.62ZM63.6,31.21C72,23.93,79.76,21.07,83.31,23.12c3.8,2.18,5.26,11,2.88,22.57-.16.76-.31,1.5-.52,2.25a113.93,113.93,0,0,0-15.13-2.39A113.08,113.08,0,0,0,61,33.62C61.84,32.78,62.7,32,63.6,31.21Zm-26,48.38c1.14,2,2.31,3.91,3.55,5.82a101.56,101.56,0,0,1-10.43-1.68,105,105,0,0,1,3.66-10c1,2,2.09,3.94,3.22,5.87ZM30.78,52.54c3.23-.71,6.67-1.3,10.25-1.75-1.19,1.87-2.36,3.78-3.46,5.71s-2.19,3.87-3.2,5.85C33,59,31.77,55.71,30.78,52.54ZM36.94,68c1.48-3.1,3.1-6.13,4.81-9.12S45.3,53,47.23,50.16q5.06-.37,10.32-.38c3.51,0,7,.13,10.32.38q2.86,4.25,5.46,8.7t4.88,9.08c-1.51,3.11-3.12,6.16-4.85,9.18S69.83,83,67.91,85.88c-3.34.25-6.83.36-10.36.36s-6.95-.11-10.25-.31q-2.94-4.29-5.53-8.77c-1.73-3-3.33-6-4.83-9.13Zm40.6,11.51c1.14-2,2.22-4,3.28-6a104.13,104.13,0,0,1,3.8,10,99.69,99.69,0,0,1-10.57,1.8c1.22-1.89,2.36-3.82,3.49-5.76Zm3.23-17.19c-1-2-2.13-4-3.26-5.89s-2.24-3.8-3.44-5.67a103.72,103.72,0,0,1,10.32,1.8A96.81,96.81,0,0,1,80.77,62.35ZM57.6,37.06a99.85,99.85,0,0,1,6.65,8c-4.45-.2-8.92-.2-13.38,0C53.08,42.2,55.35,39.51,57.6,37.06ZM31.52,23.27c3.77-2.2,12.16.95,21,8.77.56.5,1.12,1,1.7,1.58a113.73,113.73,0,0,0-9.64,11.93,118.9,118.9,0,0,0-15.11,2.34c-.29-1.15-.54-2.31-.78-3.48C26.57,33.53,28,25.32,31.52,23.27ZM26,82.53q-1.41-.41-2.79-.87c-4.79-1.51-10.23-3.89-14.16-7a10.09,10.09,0,0,1-4.23-6.72c0-4.11,7.11-9.37,17.36-13,1.28-.45,2.58-.85,3.89-1.23A119.4,119.4,0,0,0,31.59,68,122.87,122.87,0,0,0,26,82.53Zm26.21,22a41.12,41.12,0,0,1-12.68,7.93,10,10,0,0,1-7.93.29c-3.58-2.07-5.06-10-3-20.68.25-1.26.52-2.52.83-3.75a112.11,112.11,0,0,0,15.27,2.2,119.22,119.22,0,0,0,9.71,12c-.72.7-1.44,1.38-2.16,2Zm5.51-5.47a104.23,104.23,0,0,1-6.81-8.16c2.16.09,4.38.14,6.63.14s4.59,0,6.84-.16A98.6,98.6,0,0,1,57.73,99.1Zm29.38,6.75a10,10,0,0,1-3.71,7c-3.57,2.07-11.19-.63-19.42-7.69-.94-.8-1.89-1.68-2.85-2.58a111.12,111.12,0,0,0,9.48-12A110.47,110.47,0,0,0,85.94,88.2c.23.92.43,1.84.61,2.74a41,41,0,0,1,.56,14.91ZM91.2,81.68c-.62.2-1.25.4-1.91.58a112.78,112.78,0,0,0-5.73-14.34,113.39,113.39,0,0,0,5.51-14.14c1.17.34,2.29.7,3.37,1.06,10.48,3.59,17.83,8.94,17.83,13C110.27,72.28,102.42,78,91.2,81.68ZM57.55,78.31A10.3,10.3,0,1,0,47.25,68a10.3,10.3,0,0,0,10.3,10.3Z" transform="translate(0 -17.66)"/></svg>